SplineFontDB: 3.2
FontName: BertiogaSans-BoldItalic
FullName: Bertioga Sans Bold Italic
FamilyName: Bertioga Sans
Weight: Bold
Copyright: Copyright 2020 The Arimo Project Authors (https://github.com/googlefonts/arimo)\nCopyright 2020 The Libra Sans Project Authors (https://github.com/stefanpeev/libra-sans)\nCopyright 2024 The Bertioga Sans Project Authors (https://github.com/cssobral2013/bertioga-sans)
Version: 3.004
ItalicAngle: -12
UnderlinePosition: -292
UnderlineWidth: 150
Ascent: 1638
Descent: 410
InvalidEm: 0
sfntRevision: 0x000300c4
LayerCount: 2
Layer: 0 1 "Back" 1
Layer: 1 1 "Fore" 0
XUID: [1021 531 -1996577725 1120940]
StyleMap: 0x0021
FSType: 0
OS2Version: 4
OS2_WeightWidthSlopeOnly: 0
OS2_UseTypoMetrics: 1
CreationTime: 1574117783
ModificationTime: 1708645439
PfmFamily: 17
TTFWeight: 700
TTFWidth: 5
LineGap: 67
VLineGap: 0
Panose: 2 11 6 4 2 2 2 9 2 4
OS2TypoAscent: 1854
OS2TypoAOffset: 0
OS2TypoDescent: -434
OS2TypoDOffset: 0
OS2TypoLinegap: 67
OS2WinAscent: 2136
OS2WinAOffset: 0
OS2WinDescent: 797
OS2WinDOffset: 0
HheadAscent: 1854
HheadAOffset: 0
HheadDescent: -434
HheadDOffset: 0
OS2SubXSize: 1331
OS2SubYSize: 1229
OS2SubXOff: -33
OS2SubYOff: 154
OS2SupXSize: 1331
OS2SupYSize: 1229
OS2SupXOff: 152
OS2SupYOff: 717
OS2StrikeYSize: 102
OS2StrikeYPos: 530
OS2CapHeight: 1409
OS2XHeight: 1082
OS2Vendor: 'GOOG'
OS2CodePages: 600001bf.dff70000
OS2UnicodeRanges: e0000aff.500078ff.00000021.00000000
Lookup: 4 1 0 "Ligature Substitution lookup 0" { "Ligature Substitution lookup 0 subtable"  } []
Lookup: 4 1 0 "'dlig' Discretionary Ligatures in Hebrew lookup 1" { "'dlig' Discretionary Ligatures in Hebrew lookup 1 subtable"  } ['dlig' ('hebr' <'dflt' > ) ]
Lookup: 4 0 0 "'ccmp' Glyph Composition/Decomposition lookup 2" { "'ccmp' Glyph Composition/Decomposition lookup 2 subtable"  } ['ccmp' ('cyrl' <'dflt' > 'grek' <'dflt' > 'latn' <'MAH ' 'dflt' > ) ]

StartChar: .notdef
Encoding: 65536 -1 0
Width: 1536
GlyphClass: 2
Flags: W
LayerCount: 2
Fore
SplineSet
1330 1409 m 1,0,-1
 1330 0 l 1,1,-1
 205 0 l 1,2,-1
 205 1409 l 1,3,-1
 1330 1409 l 1,0,-1
281 76 m 1,4,-1
 1254 76 l 1,5,-1
 1254 1333 l 1,6,-1
 281 1333 l 1,7,-1
 281 76 l 1,4,-1
EndSplineSet
EndChar

StartChar: exclam
Encoding: 33 33 4
Width: 682
GlyphClass: 2
Flags: W
LayerCount: 2
Fore
SplineSet
647 1409 m 1,0,-1
 423 426 l 1,1,-1
 193 426 l 1,2,-1
 353 1409 l 1,3,-1
 647 1409 l 1,0,-1
419 270 m 1,4,-1
 367 0 l 1,5,-1
 79 0 l 1,6,-1
 131 270 l 1,7,-1
 419 270 l 1,4,-1
EndSplineSet
EndChar

StartChar: quotedbl
Encoding: 34 34 5
Width: 971
GlyphClass: 2
Flags: W
LayerCount: 2
Fore
SplineSet
992 1409 m 1,0,-1
 864 898 l 1,1,-1
 645 898 l 1,2,-1
 717 1409 l 1,3,-1
 992 1409 l 1,0,-1
564 1409 m 1,4,-1
 438 898 l 1,5,-1
 219 898 l 1,6,-1
 291 1409 l 1,7,-1
 564 1409 l 1,4,-1
EndSplineSet
EndChar

StartChar: numbersign
Encoding: 35 35 6
Width: 1139
GlyphClass: 2
Flags: W
LayerCount: 2
Fore
SplineSet
374 381 m 1,0,-1
 294 0 l 1,1,-1
 141 0 l 1,2,-1
 220 381 l 1,3,-1
 65 381 l 1,4,-1
 65 530 l 1,5,-1
 253 530 l 1,6,-1
 323 862 l 1,7,-1
 116 862 l 1,8,-1
 116 1010 l 1,9,-1
 354 1010 l 1,10,-1
 438 1395 l 1,11,-1
 591 1395 l 1,12,-1
 509 1010 l 1,13,-1
 816 1010 l 1,14,-1
 900 1395 l 1,15,-1
 1056 1395 l 1,16,-1
 972 1010 l 1,17,-1
 1136 1010 l 1,18,-1
 1136 862 l 1,19,-1
 939 862 l 1,20,-1
 870 530 l 1,21,-1
 1085 530 l 1,22,-1
 1085 381 l 1,23,-1
 839 381 l 1,24,-1
 757 0 l 1,25,-1
 601 0 l 1,26,-1
 681 381 l 1,27,-1
 374 381 l 1,0,-1
407 530 m 1,28,-1
 716 530 l 1,29,-1
 786 862 l 1,30,-1
 479 862 l 1,31,-1
 407 530 l 1,28,-1
EndSplineSet
EndChar

StartChar: dollar
Encoding: 36 36 7
Width: 1139
GlyphClass: 2
Flags: W
LayerCount: 2
Fore
SplineSet
1080 474 m 0,0,1
 1080 261 1080 261 939 146.5 c 128,-1,2
 798 32 798 32 516 21 c 1,3,-1
 483 -152 l 1,4,-1
 371 -152 l 1,5,-1
 403 23 l 1,6,7
 227 23 227 23 114 116.5 c 128,-1,8
 1 210 1 210 -11 366 c 1,9,-1
 251 408 l 1,10,11
 258 320 258 320 306.5 275.5 c 128,-1,12
 355 231 355 231 445 231 c 1,13,-1
 518 619 l 1,14,15
 367 656 367 656 272 731 c 0,16,17
 209 781 209 781 176.5 846 c 128,-1,18
 144 911 144 911 144 988 c 0,19,20
 144 1111 144 1111 207 1202 c 0,21,22
 269 1292 269 1292 393 1343 c 128,-1,23
 517 1394 517 1394 672 1394 c 1,24,-1
 696 1520 l 1,25,-1
 806 1516 l 1,26,-1
 779 1386 l 1,27,28
 941 1386 941 1386 1042.5 1307 c 128,-1,29
 1144 1228 1144 1228 1157 1089 c 1,30,-1
 896 1032 l 1,31,32
 867 1190 867 1190 741 1190 c 1,33,-1
 674 837 l 1,34,35
 883 787 883 787 981.5 698.5 c 128,-1,36
 1080 610 1080 610 1080 474 c 0,0,1
412 1006 m 0,37,38
 412 957 412 957 444.5 924.5 c 128,-1,39
 477 892 477 892 566 863 c 1,40,-1
 633 1194 l 1,41,42
 534 1194 534 1194 473 1141 c 128,-1,43
 412 1088 412 1088 412 1006 c 0,37,38
810 413 m 0,44,45
 810 490 810 490 766 530.5 c 128,-1,46
 722 571 722 571 627 593 c 1,47,-1
 554 231 l 1,48,49
 669 231 669 231 739.5 280 c 128,-1,50
 810 329 810 329 810 413 c 0,44,45
EndSplineSet
EndChar

StartChar: percent
Encoding: 37 37 8
Width: 1821
GlyphClass: 2
Flags: W
LayerCount: 2
Fore
SplineSet
546 1421 m 0,0,1
 696 1421 696 1421 775.5 1341.5 c 128,-1,2
 855 1262 855 1262 855 1113 c 0,3,4
 855 1033 855 1033 829 935 c 0,5,6
 815 867 815 867 792.5 810 c 128,-1,7
 770 753 770 753 739 708 c 0,8,9
 615 524 615 524 407 524 c 0,10,11
 265 524 265 524 188.5 608 c 128,-1,12
 112 692 112 692 112 841 c 0,13,14
 112 930 112 930 136 1015 c 1,15,16
 220 1421 220 1421 546 1421 c 0,0,1
486 0 m 1,17,-1
 289 0 l 1,18,-1
 1375 1409 l 1,19,-1
 1574 1409 l 1,20,-1
 486 0 l 1,17,-1
545 1270 m 0,21,22
 505 1270 505 1270 475 1255 c 128,-1,23
 445 1240 445 1240 422 1210 c 0,24,25
 392 1170 392 1170 370 1098 c 128,-1,26
 348 1026 348 1026 336.5 951.5 c 128,-1,27
 325 877 325 877 325 827 c 0,28,29
 325 685 325 685 411 685 c 0,30,31
 481 685 481 685 526 735 c 0,32,33
 556 767 556 767 577.5 819.5 c 128,-1,34
 599 872 599 872 613 945 c 1,35,36
 641 1053 641 1053 641 1131 c 0,37,38
 641 1270 641 1270 545 1270 c 0,21,22
1454 882 m 0,39,40
 1604 882 1604 882 1684 802.5 c 128,-1,41
 1764 723 1764 723 1764 574 c 0,42,43
 1764 494 1764 494 1738 396 c 0,44,45
 1724 328 1724 328 1701.5 271 c 128,-1,46
 1679 214 1679 214 1648 169 c 0,47,48
 1524 -15 1524 -15 1316 -15 c 0,49,50
 1174 -15 1174 -15 1097.5 69 c 128,-1,51
 1021 153 1021 153 1021 302 c 0,52,53
 1021 391 1021 391 1045 476 c 1,54,55
 1129 882 1129 882 1454 882 c 0,39,40
1454 731 m 0,56,57
 1415 731 1415 731 1384.5 716 c 128,-1,58
 1354 701 1354 701 1331 671 c 0,59,60
 1301 631 1301 631 1279.5 559 c 128,-1,61
 1258 487 1258 487 1246 412.5 c 128,-1,62
 1234 338 1234 338 1234 288 c 0,63,64
 1234 146 1234 146 1320 146 c 0,65,66
 1393 146 1393 146 1439 201 c 0,67,68
 1468 233 1468 233 1488 284.5 c 128,-1,69
 1508 336 1508 336 1522 406 c 1,70,71
 1550 514 1550 514 1550 592 c 0,72,73
 1550 731 1550 731 1454 731 c 0,56,57
EndSplineSet
EndChar

StartChar: ampersand
Encoding: 38 38 9
Width: 1479
GlyphClass: 2
Flags: W
LayerCount: 2
Fore
SplineSet
1329 677 m 1,0,1
 1284 573 1284 573 1209 459.5 c 128,-1,2
 1134 346 1134 346 1051 261 c 1,3,4
 1089 229 1089 229 1134.5 213 c 128,-1,5
 1180 197 1180 197 1235 197 c 0,6,7
 1299 197 1299 197 1346 213 c 1,8,-1
 1307 10 l 1,9,10
 1242 -12 1242 -12 1168 -12 c 0,11,12
 994 -12 994 -12 863 105 c 1,13,14
 828 77 828 77 797 58 c 128,-1,15
 766 39 766 39 740 28 c 0,16,17
 688 6 688 6 619 -7 c 128,-1,18
 550 -20 550 -20 464 -20 c 0,19,20
 263 -20 263 -20 156 76.5 c 128,-1,21
 49 173 49 173 49 354 c 0,22,23
 49 457 49 457 96.5 542 c 128,-1,24
 144 627 144 627 238.5 694.5 c 128,-1,25
 333 762 333 762 475 811 c 1,26,27
 460 859 460 859 450 922 c 128,-1,28
 440 985 440 985 440 1037 c 0,29,30
 440 1209 440 1209 554.5 1313 c 128,-1,31
 669 1417 669 1417 868 1417 c 0,32,33
 1027 1417 1027 1417 1115.5 1349.5 c 128,-1,34
 1204 1282 1204 1282 1204 1160 c 0,35,36
 1204 1069 1204 1069 1159 999 c 128,-1,37
 1114 929 1114 929 1028 870 c 0,38,39
 985 841 985 841 912 805 c 128,-1,40
 839 769 839 769 736 727 c 1,41,42
 779 608 779 608 817 537 c 128,-1,43
 855 466 855 466 908 395 c 1,44,45
 975 466 975 466 1033.5 557 c 128,-1,46
 1092 648 1092 648 1142 760 c 1,47,-1
 1329 677 l 1,0,1
667 1041 m 0,48,49
 667 962 667 962 687 896 c 1,50,51
 758 923 758 923 806 944.5 c 128,-1,52
 854 966 854 966 879 982 c 0,53,54
 929 1014 929 1014 954.5 1052.5 c 128,-1,55
 980 1091 980 1091 980 1142 c 256,56,57
 980 1193 980 1193 946.5 1220 c 128,-1,58
 913 1247 913 1247 855 1247 c 0,59,60
 770 1247 770 1247 718.5 1192 c 128,-1,61
 667 1137 667 1137 667 1041 c 0,48,49
493 170 m 0,62,63
 556 170 556 170 618 192.5 c 128,-1,64
 680 215 680 215 725 249 c 1,65,66
 663 331 663 331 613 426.5 c 128,-1,67
 563 522 563 522 525 631 c 1,68,69
 401 575 401 575 352.5 509 c 128,-1,70
 304 443 304 443 304 360 c 0,71,72
 304 275 304 275 356 222.5 c 128,-1,73
 408 170 408 170 493 170 c 0,62,63
EndSplineSet
EndChar

StartChar: quotesingle
Encoding: 39 39 10
Width: 487
GlyphClass: 2
Flags: W
LayerCount: 2
Fore
SplineSet
543 1409 m 1,0,-1
 417 898 l 1,1,-1
 198 898 l 1,2,-1
 271 1409 l 1,3,-1
 543 1409 l 1,0,-1
EndSplineSet
EndChar

StartChar: parenleft
Encoding: 40 40 11
Width: 682
GlyphClass: 2
Flags: W
LayerCount: 2
Fore
SplineSet
874 1484 m 1,0,1
 350 984 350 984 350 280 c 0,2,3
 350 -119 350 -119 497 -425 c 1,4,-1
 222 -425 l 1,5,6
 74 -110 74 -110 74 296 c 0,7,8
 74 659 74 659 206 962 c 128,-1,9
 338 1265 338 1265 593 1484 c 1,10,-1
 874 1484 l 1,0,1
EndSplineSet
EndChar

StartChar: parenright
Encoding: 41 41 12
Width: 682
GlyphClass: 2
Flags: W
LayerCount: 2
Fore
SplineSet
-180 -425 m 1,0,1
 345 88 345 88 345 809 c 0,2,3
 345 979 345 979 305 1160 c 128,-1,4
 265 1341 265 1341 196 1484 c 1,5,-1
 461 1484 l 1,6,7
 622 1164 622 1164 622 793 c 0,8,9
 622 418 622 418 488 107 c 128,-1,10
 354 -204 354 -204 101 -425 c 1,11,-1
 -180 -425 l 1,0,1
EndSplineSet
EndChar

StartChar: asterisk
Encoding: 42 42 13
Width: 797
GlyphClass: 2
Flags: W
LayerCount: 2
Fore
SplineSet
813 768 m 1,0,-1
 629 647 l 1,1,-1
 483 899 l 1,2,-1
 334 647 l 1,3,-1
 148 770 l 1,4,-1
 338 981 l 1,5,-1
 88 1042 l 1,6,-1
 156 1239 l 1,7,-1
 395 1135 l 1,8,-1
 377 1409 l 1,9,-1
 592 1409 l 1,10,-1
 574 1135 l 1,11,-1
 809 1239 l 1,12,-1
 877 1042 l 1,13,-1
 627 981 l 1,14,-1
 813 768 l 1,0,-1
EndSplineSet
EndChar

StartChar: plus
Encoding: 43 43 14
Width: 1196
GlyphClass: 2
Flags: W
LayerCount: 2
Fore
SplineSet
750 569 m 1,0,-1
 750 161 l 1,1,-1
 524 161 l 1,2,-1
 524 569 l 1,3,-1
 125 569 l 1,4,-1
 125 793 l 1,5,-1
 524 793 l 1,6,-1
 524 1201 l 1,7,-1
 750 1201 l 1,8,-1
 750 793 l 1,9,-1
 1152 793 l 1,10,-1
 1152 569 l 1,11,-1
 750 569 l 1,0,-1
EndSplineSet
EndChar

StartChar: comma
Encoding: 44 44 15
Width: 569
GlyphClass: 2
Flags: W
LayerCount: 2
Fore
SplineSet
347 66 m 2,0,1
 324 -54 324 -54 281 -145.5 c 128,-1,2
 238 -237 238 -237 165 -317 c 1,3,-1
 -20 -317 l 1,4,5
 58 -239 58 -239 109.5 -156 c 128,-1,6
 161 -73 161 -73 175 0 c 1,7,-1
 46 0 l 1,8,-1
 105 305 l 1,9,-1
 394 305 l 1,10,-1
 347 66 l 2,0,1
EndSplineSet
EndChar

StartChar: hyphen
Encoding: 45 45 16
AltUni2: 0000ad.ffffffff.0
Width: 682
GlyphClass: 2
Flags: W
LayerCount: 2
Fore
SplineSet
623 653 m 1,0,-1
 576 409 l 1,1,-1
 56 409 l 1,2,-1
 103 653 l 1,3,-1
 623 653 l 1,0,-1
EndSplineSet
EndChar

StartChar: period
Encoding: 46 46 17
Width: 569
GlyphClass: 2
Flags: W
LayerCount: 2
Fore
SplineSet
394 305 m 1,0,-1
 335 0 l 1,1,-1
 46 0 l 1,2,-1
 105 305 l 1,3,-1
 394 305 l 1,0,-1
EndSplineSet
EndChar

StartChar: slash
Encoding: 47 47 18
Width: 569
GlyphClass: 2
Flags: W
LayerCount: 2
Fore
SplineSet
749 1484 m 1,0,-1
 166 -41 l 1,1,-1
 -76 -41 l 1,2,-1
 511 1484 l 1,3,-1
 749 1484 l 1,0,-1
EndSplineSet
EndChar

StartChar: zero
Encoding: 48 48 19
Width: 1139
GlyphClass: 2
Flags: W
LayerCount: 2
Fore
SplineSet
724 1430 m 0,0,1
 921 1430 921 1430 1020 1313.5 c 128,-1,2
 1119 1197 1119 1197 1119 964 c 0,3,4
 1119 852 1119 852 1081 665 c 0,5,6
 1009 322 1009 322 858.5 151 c 128,-1,7
 708 -20 708 -20 478 -20 c 0,8,9
 278 -20 278 -20 181.5 97.5 c 128,-1,10
 85 215 85 215 85 454 c 0,11,12
 85 547 85 547 105 672.5 c 128,-1,13
 125 798 125 798 163 924 c 128,-1,14
 201 1050 201 1050 253 1144 c 0,15,16
 332 1285 332 1285 448 1357.5 c 128,-1,17
 564 1430 564 1430 724 1430 c 0,0,1
497 201 m 0,18,19
 615 201 615 201 685 309 c 0,20,21
 713 352 713 352 737.5 422 c 128,-1,22
 762 492 762 492 782 573.5 c 128,-1,23
 802 655 802 655 816.5 735 c 128,-1,24
 831 815 831 815 838.5 879.5 c 128,-1,25
 846 944 846 944 846 977 c 0,26,27
 846 1093 846 1093 808 1151.5 c 128,-1,28
 770 1210 770 1210 694 1210 c 0,29,30
 608 1210 608 1210 555 1163 c 128,-1,31
 502 1116 502 1116 464 1012 c 0,32,33
 445 960 445 960 426.5 876.5 c 128,-1,34
 408 793 408 793 392.5 702.5 c 128,-1,35
 377 612 377 612 367.5 534.5 c 128,-1,36
 358 457 358 457 358 415 c 0,37,38
 358 308 358 308 392.5 254.5 c 128,-1,39
 427 201 427 201 497 201 c 0,18,19
EndSplineSet
EndChar

StartChar: one
Encoding: 49 49 20
Width: 1139
GlyphClass: 2
Flags: W
LayerCount: 2
Fore
SplineSet
1029 231 m 1,0,-1
 985 0 l 1,1,-1
 33 0 l 1,2,-1
 76 231 l 1,3,-1
 425 231 l 1,4,-1
 604 1152 l 1,5,-1
 223 938 l 1,6,-1
 270 1180 l 1,7,-1
 666 1409 l 1,8,-1
 936 1409 l 1,9,-1
 706 231 l 1,10,-1
 1029 231 l 1,0,-1
EndSplineSet
EndChar

StartChar: two
Encoding: 50 50 21
Width: 1139
GlyphClass: 2
Flags: W
LayerCount: 2
Fore
SplineSet
997 231 m 1,0,-1
 953 0 l 1,1,-1
 -32 0 l 1,2,-1
 5 195 l 1,3,4
 30 238 30 238 58 277 c 128,-1,5
 86 316 86 316 118 351 c 0,6,7
 161 399 161 399 206 441.5 c 128,-1,8
 251 484 251 484 322.5 538.5 c 128,-1,9
 394 593 394 593 514 677 c 0,10,11
 588 729 588 729 638.5 768.5 c 128,-1,12
 689 808 689 808 716 835 c 0,13,14
 770 889 770 889 799.5 945 c 128,-1,15
 829 1001 829 1001 829 1063 c 0,16,17
 829 1134 829 1134 788.5 1170 c 128,-1,18
 748 1206 748 1206 667 1206 c 0,19,20
 579 1206 579 1206 525 1162 c 128,-1,21
 471 1118 471 1118 444 1022 c 1,22,-1
 178 1081 l 1,23,24
 231 1260 231 1260 359 1345 c 128,-1,25
 487 1430 487 1430 687 1430 c 0,26,27
 827 1430 827 1430 923 1391 c 128,-1,28
 1019 1352 1019 1352 1068.5 1275 c 128,-1,29
 1118 1198 1118 1198 1118 1083 c 0,30,31
 1118 987 1118 987 1076 900 c 0,32,33
 1048 842 1048 842 1003 788 c 128,-1,34
 958 734 958 734 880 671 c 128,-1,35
 802 608 802 608 676 523 c 0,36,37
 544 433 544 433 465.5 365 c 128,-1,38
 387 297 387 297 343 231 c 1,39,-1
 997 231 l 1,0,-1
EndSplineSet
EndChar

StartChar: three
Encoding: 51 51 22
Width: 1139
GlyphClass: 2
Flags: W
LayerCount: 2
Fore
SplineSet
535 829 m 2,0,1
 684 829 684 829 757.5 887 c 128,-1,2
 831 945 831 945 831 1051 c 0,3,4
 831 1123 831 1123 792.5 1164.5 c 128,-1,5
 754 1206 754 1206 674 1206 c 0,6,7
 581 1206 581 1206 522 1160 c 128,-1,8
 463 1114 463 1114 437 1022 c 1,9,-1
 170 1074 l 1,10,11
 221 1252 221 1252 350 1341 c 128,-1,12
 479 1430 479 1430 685 1430 c 0,13,14
 888 1430 888 1430 1002 1339 c 128,-1,15
 1116 1248 1116 1248 1116 1086 c 0,16,17
 1116 930 1116 930 1019 835 c 128,-1,18
 922 740 922 740 755 725 c 1,19,-1
 754 721 l 1,20,21
 889 700 889 700 959.5 621.5 c 128,-1,22
 1030 543 1030 543 1030 418 c 0,23,24
 1030 294 1030 294 965 193 c 0,25,26
 900 91 900 91 782 35.5 c 128,-1,27
 664 -20 664 -20 511 -20 c 0,28,29
 374 -20 374 -20 272 15 c 0,30,31
 39 96 39 96 16 343 c 1,32,-1
 298 381 l 1,33,34
 309 291 309 291 361 248.5 c 128,-1,35
 413 206 413 206 524 206 c 0,36,37
 628 206 628 206 686.5 262 c 128,-1,38
 745 318 745 318 745 416 c 0,39,40
 745 509 745 509 690 555.5 c 128,-1,41
 635 602 635 602 525 602 c 2,42,-1
 418 602 l 1,43,-1
 462 829 l 1,44,-1
 535 829 l 2,0,1
EndSplineSet
EndChar

StartChar: four
Encoding: 52 52 23
Width: 1139
GlyphClass: 2
Flags: W
LayerCount: 2
Fore
SplineSet
874 286 m 1,0,-1
 820 0 l 1,1,-1
 552 0 l 1,2,-1
 606 286 l 1,3,-1
 -34 286 l 1,4,-1
 7 493 l 1,5,-1
 724 1409 l 1,6,-1
 1094 1409 l 1,7,-1
 916 496 l 1,8,-1
 1104 496 l 1,9,-1
 1062 286 l 1,10,-1
 874 286 l 1,0,-1
800 1206 m 1,11,12
 777 1167 777 1167 747.5 1124.5 c 128,-1,13
 718 1082 718 1082 683 1036 c 2,14,-1
 259 496 l 1,15,-1
 648 496 l 1,16,-1
 750 1020 l 2,17,18
 759 1065 759 1065 771.5 1111.5 c 128,-1,19
 784 1158 784 1158 800 1206 c 1,11,12
EndSplineSet
EndChar

StartChar: five
Encoding: 53 53 24
Width: 1139
GlyphClass: 2
Flags: W
LayerCount: 2
Fore
SplineSet
994 235 m 0,0,1
 924 112 924 112 791.5 46 c 128,-1,2
 659 -20 659 -20 486 -20 c 0,3,4
 287 -20 287 -20 167.5 68.5 c 128,-1,5
 48 157 48 157 20 329 c 1,6,-1
 303 374 l 1,7,8
 321 281 321 281 368.5 243.5 c 128,-1,9
 416 206 416 206 510 206 c 0,10,11
 635 206 635 206 706.5 282.5 c 128,-1,12
 778 359 778 359 778 486 c 0,13,14
 778 591 778 591 728.5 649 c 128,-1,15
 679 707 679 707 589 707 c 0,16,17
 466 707 466 707 387 616 c 1,18,-1
 113 616 l 1,19,-1
 316 1409 l 1,20,-1
 1163 1409 l 1,21,-1
 1120 1178 l 1,22,-1
 526 1178 l 1,23,-1
 439 844 l 1,24,25
 481 882 481 882 545 908 c 128,-1,26
 609 934 609 934 694 934 c 0,27,28
 861 934 861 934 962.5 821 c 128,-1,29
 1064 708 1064 708 1064 518 c 0,30,31
 1064 356 1064 356 994 235 c 0,0,1
EndSplineSet
EndChar

StartChar: six
Encoding: 54 54 25
Width: 1139
GlyphClass: 2
Flags: W
LayerCount: 2
Fore
SplineSet
533 -20 m 0,0,1
 393 -20 393 -20 295 40 c 128,-1,2
 197 100 197 100 146 213.5 c 128,-1,3
 95 327 95 327 95 487 c 0,4,5
 95 757 95 757 179 974 c 0,6,7
 262 1192 262 1192 411.5 1311 c 128,-1,8
 561 1430 561 1430 745 1430 c 0,9,10
 925 1430 925 1430 1028.5 1346.5 c 128,-1,11
 1132 1263 1132 1263 1150 1106 c 1,12,-1
 884 1065 l 1,13,14
 870 1138 870 1138 833 1173 c 128,-1,15
 796 1208 796 1208 730 1208 c 0,16,17
 615 1208 615 1208 530 1093 c 128,-1,18
 445 978 445 978 406 746 c 1,19,20
 459 818 459 818 540.5 862.5 c 128,-1,21
 622 907 622 907 725 907 c 0,22,23
 835 907 835 907 914 862 c 128,-1,24
 993 817 993 817 1035.5 733 c 128,-1,25
 1078 649 1078 649 1078 533 c 0,26,27
 1078 381 1078 381 1008 254 c 0,28,29
 938 126 938 126 813.5 53 c 128,-1,30
 689 -20 689 -20 533 -20 c 0,0,1
369 429 m 0,31,32
 369 324 369 324 418 262 c 128,-1,33
 467 200 467 200 558 200 c 0,34,35
 630 200 630 200 682.5 237 c 128,-1,36
 735 274 735 274 763.5 341.5 c 128,-1,37
 792 409 792 409 792 499 c 0,38,39
 792 596 792 596 744.5 648 c 128,-1,40
 697 700 697 700 614 700 c 0,41,42
 546 700 546 700 490 666 c 0,43,44
 433 632 433 632 401 570 c 128,-1,45
 369 508 369 508 369 429 c 0,31,32
EndSplineSet
EndChar

StartChar: seven
Encoding: 55 55 26
Width: 1139
GlyphClass: 2
Flags: W
LayerCount: 2
Fore
SplineSet
472 0 m 1,0,-1
 174 0 l 1,1,2
 209 182 209 182 277.5 335.5 c 128,-1,3
 346 489 346 489 440 629 c 0,4,5
 487 699 487 699 539 767 c 128,-1,6
 591 835 591 835 648.5 902.5 c 128,-1,7
 706 970 706 970 767.5 1038.5 c 128,-1,8
 829 1107 829 1107 893 1178 c 1,9,-1
 143 1178 l 1,10,-1
 188 1409 l 1,11,-1
 1219 1409 l 1,12,-1
 1175 1186 l 1,13,14
 1134 1137 1134 1137 1093.5 1089 c 128,-1,15
 1053 1041 1053 1041 1013 992 c 0,16,17
 973 945 973 945 937 900.5 c 128,-1,18
 901 856 901 856 868 814 c 0,19,20
 825 758 825 758 787 704.5 c 128,-1,21
 749 651 749 651 717 601 c 0,22,23
 617 446 617 446 561 303.5 c 128,-1,24
 505 161 505 161 472 0 c 1,0,-1
EndSplineSet
EndChar

StartChar: eight
Encoding: 56 56 27
Width: 1139
GlyphClass: 2
Flags: W
LayerCount: 2
Fore
SplineSet
707 1429 m 0,0,1
 906 1429 906 1429 1021 1337.5 c 128,-1,2
 1136 1246 1136 1246 1136 1091 c 0,3,4
 1136 951 1136 951 1050.5 857 c 128,-1,5
 965 763 965 763 820 743 c 1,6,-1
 819 739 l 1,7,8
 930 706 930 706 989.5 625 c 128,-1,9
 1049 544 1049 544 1049 432 c 0,10,11
 1049 224 1049 224 900.5 102 c 128,-1,12
 752 -20 752 -20 493 -20 c 0,13,14
 271 -20 271 -20 149 80.5 c 128,-1,15
 27 181 27 181 27 360 c 0,16,17
 27 507 27 507 121.5 605 c 128,-1,18
 216 703 216 703 386 737 c 1,19,-1
 386 741 l 1,20,21
 294 782 294 782 246.5 862.5 c 128,-1,22
 199 943 199 943 199 1052 c 0,23,24
 199 1229 199 1229 336 1329 c 128,-1,25
 473 1429 473 1429 707 1429 c 0,0,1
648 840 m 0,26,27
 742 840 742 840 796.5 899.5 c 128,-1,28
 851 959 851 959 851 1064 c 0,29,30
 851 1148 851 1148 808 1190 c 128,-1,31
 765 1232 765 1232 679 1232 c 0,32,33
 584 1232 584 1232 530 1176.5 c 128,-1,34
 476 1121 476 1121 476 1020 c 0,35,36
 476 933 476 933 521 886.5 c 128,-1,37
 566 840 566 840 648 840 c 0,26,27
561 640 m 0,38,39
 445 640 445 640 381 569 c 128,-1,40
 317 498 317 498 317 377 c 0,41,42
 317 282 317 282 370.5 230 c 128,-1,43
 424 178 424 178 520 178 c 0,44,45
 628 178 628 178 694 250 c 128,-1,46
 760 322 760 322 760 444 c 0,47,48
 760 539 760 539 707 589.5 c 128,-1,49
 654 640 654 640 561 640 c 0,38,39
EndSplineSet
EndChar

StartChar: nine
Encoding: 57 57 28
Width: 1139
GlyphClass: 2
Flags: W
LayerCount: 2
Fore
SplineSet
817 653 m 1,0,1
 752 576 752 576 678 539.5 c 128,-1,2
 604 503 604 503 500 503 c 0,3,4
 397 503 397 503 316 550 c 0,5,6
 237 597 237 597 192 686 c 128,-1,7
 147 775 147 775 147 893 c 0,8,9
 147 1042 147 1042 218 1167 c 256,10,11
 289 1292 289 1292 414.5 1361 c 128,-1,12
 540 1430 540 1430 692 1430 c 0,13,14
 826 1430 826 1430 924 1372 c 128,-1,15
 1022 1314 1022 1314 1076 1207.5 c 128,-1,16
 1130 1101 1130 1101 1130 957 c 0,17,18
 1130 843 1130 843 1108 717 c 128,-1,19
 1086 591 1086 591 1045 472.5 c 128,-1,20
 1004 354 1004 354 946 261 c 0,21,22
 890 171 890 171 819 109 c 0,23,24
 747 45 747 45 662 12.5 c 128,-1,25
 577 -20 577 -20 479 -20 c 0,26,27
 297 -20 297 -20 186 66 c 128,-1,28
 75 152 75 152 48 311 c 1,29,-1
 322 359 l 1,30,31
 336 280 336 280 380.5 241 c 128,-1,32
 425 202 425 202 498 202 c 0,33,34
 614 202 614 202 694 314.5 c 128,-1,35
 774 427 774 427 817 653 c 1,0,1
855 1009 m 0,36,37
 855 1096 855 1096 805 1153 c 128,-1,38
 755 1210 755 1210 678 1210 c 0,39,40
 564 1210 564 1210 498 1126 c 128,-1,41
 432 1042 432 1042 432 900 c 0,42,43
 432 815 432 815 480 762.5 c 128,-1,44
 528 710 528 710 611 710 c 0,45,46
 696 710 696 710 756 756 c 0,47,48
 855 835 855 835 855 1009 c 0,36,37
EndSplineSet
EndChar

StartChar: colon
Encoding: 58 58 29
Width: 682
GlyphClass: 2
Flags: W
LayerCount: 2
Fore
SplineSet
578 1034 m 1,0,-1
 523 752 l 1,1,-1
 235 752 l 1,2,-1
 290 1034 l 1,3,-1
 578 1034 l 1,0,-1
432 281 m 1,4,-1
 377 0 l 1,5,-1
 89 0 l 1,6,-1
 144 281 l 1,7,-1
 432 281 l 1,4,-1
EndSplineSet
EndChar

StartChar: semicolon
Encoding: 59 59 30
AltUni2: 00037e.ffffffff.0
Width: 682
GlyphClass: 2
Flags: W
LayerCount: 2
Fore
SplineSet
578 1034 m 1,0,-1
 523 752 l 1,1,-1
 235 752 l 1,2,-1
 290 1034 l 1,3,-1
 578 1034 l 1,0,-1
390 66 m 2,4,5
 367 -54 367 -54 324.5 -145 c 128,-1,6
 282 -236 282 -236 207 -317 c 1,7,-1
 23 -317 l 1,8,9
 101 -239 101 -239 152.5 -156 c 128,-1,10
 204 -73 204 -73 218 0 c 1,11,-1
 89 0 l 1,12,-1
 144 281 l 1,13,-1
 432 281 l 1,14,-1
 390 66 l 2,4,5
EndSplineSet
EndChar

StartChar: less
Encoding: 60 60 31
Width: 1196
GlyphClass: 2
Flags: W
LayerCount: 2
Fore
SplineSet
1151 352 m 1,0,-1
 1151 125 l 1,1,-1
 124 516 l 1,2,-1
 124 838 l 1,3,-1
 1151 1229 l 1,4,-1
 1151 1001 l 1,5,-1
 318 676 l 1,6,-1
 1151 352 l 1,0,-1
EndSplineSet
EndChar

StartChar: equal
Encoding: 61 61 32
Width: 1196
GlyphClass: 2
Flags: W
LayerCount: 2
Fore
SplineSet
1150 1065 m 1,0,-1
 1150 842 l 1,1,-1
 123 842 l 1,2,-1
 123 1065 l 1,3,-1
 1150 1065 l 1,0,-1
1150 512 m 1,4,-1
 1150 291 l 1,5,-1
 123 291 l 1,6,-1
 123 512 l 1,7,-1
 1150 512 l 1,4,-1
EndSplineSet
EndChar

StartChar: greater
Encoding: 62 62 33
Width: 1196
GlyphClass: 2
Flags: W
LayerCount: 2
Fore
SplineSet
1151 516 m 1,0,-1
 124 125 l 1,1,-1
 124 352 l 1,2,-1
 956 676 l 1,3,-1
 124 1001 l 1,4,-1
 124 1229 l 1,5,-1
 1151 838 l 1,6,-1
 1151 516 l 1,0,-1
EndSplineSet
EndChar

StartChar: question
Encoding: 63 63 34
Width: 1251
GlyphClass: 2
Flags: W
LayerCount: 2
Fore
SplineSet
745 1430 m 0,0,1
 888 1430 888 1430 992 1387.5 c 128,-1,2
 1096 1345 1096 1345 1152.5 1266 c 128,-1,3
 1209 1187 1209 1187 1209 1075 c 0,4,5
 1209 1030 1209 1030 1200 989.5 c 128,-1,6
 1191 949 1191 949 1172 914 c 0,7,8
 1147 867 1147 867 1110 825 c 128,-1,9
 1073 783 1073 783 1009.5 738 c 128,-1,10
 946 693 946 693 841 635 c 0,11,12
 802 610 802 610 775.5 590.5 c 128,-1,13
 749 571 749 571 735 557 c 0,14,15
 707 530 707 530 689.5 499 c 128,-1,16
 672 468 672 468 666 426 c 1,17,-1
 399 426 l 1,18,19
 413 503 413 503 444 561 c 0,20,21
 465 599 465 599 492 631.5 c 128,-1,22
 519 664 519 664 565.5 700 c 128,-1,23
 612 736 612 736 690 784 c 0,24,25
 759 827 759 827 804.5 860 c 128,-1,26
 850 893 850 893 877 924 c 0,27,28
 904 954 904 954 915 985 c 128,-1,29
 926 1016 926 1016 926 1055 c 0,30,31
 926 1118 926 1118 878 1159.5 c 128,-1,32
 830 1201 830 1201 729 1201 c 0,33,34
 616 1201 616 1201 546 1153 c 128,-1,35
 476 1105 476 1105 450 1008 c 1,36,-1
 184 1048 l 1,37,38
 243 1239 243 1239 383 1334.5 c 128,-1,39
 523 1430 523 1430 745 1430 c 0,0,1
650 270 m 1,40,-1
 598 0 l 1,41,-1
 309 0 l 1,42,-1
 361 270 l 1,43,-1
 650 270 l 1,40,-1
EndSplineSet
EndChar

StartChar: at
Encoding: 64 64 35
Width: 1997
GlyphClass: 2
Flags: W
LayerCount: 2
Fore
SplineSet
1911 755 m 0,0,1
 1911 573 1911 573 1848 423 c 0,2,3
 1784 273 1784 273 1672 188.5 c 128,-1,4
 1560 104 1560 104 1430 104 c 0,5,6
 1338 104 1338 104 1288.5 149.5 c 128,-1,7
 1239 195 1239 195 1239 276 c 0,8,9
 1239 295 1239 295 1240.5 311.5 c 128,-1,10
 1242 328 1242 328 1245 343 c 1,11,-1
 1239 343 l 1,12,13
 1189 238 1189 238 1090.5 171 c 128,-1,14
 992 104 992 104 889 104 c 0,15,16
 732 104 732 104 645.5 205.5 c 128,-1,17
 559 307 559 307 559 489 c 0,18,19
 559 651 559 651 624 795 c 0,20,21
 689 938 689 938 803 1019.5 c 128,-1,22
 917 1101 917 1101 1059 1101 c 0,23,24
 1254 1101 1254 1101 1323 927 c 1,25,-1
 1329 927 l 1,26,-1
 1368 1079 l 1,27,-1
 1524 1079 l 1,28,-1
 1407 573 l 2,29,30
 1370 403 1370 403 1370 333 c 0,31,32
 1370 283 1370 283 1393.5 262 c 128,-1,33
 1417 241 1417 241 1448 241 c 0,34,35
 1528 241 1528 241 1601 311 c 0,36,37
 1674 380 1674 380 1716.5 496.5 c 128,-1,38
 1759 613 1759 613 1759 753 c 0,39,40
 1759 929 1759 929 1683 1063 c 256,41,42
 1607 1197 1607 1197 1462.5 1270 c 128,-1,43
 1318 1343 1318 1343 1127 1343 c 0,44,45
 887 1343 887 1343 704 1238 c 256,46,47
 521 1133 521 1133 416.5 935 c 128,-1,48
 312 737 312 737 312 491 c 0,49,50
 312 297 312 297 392 149 c 256,51,52
 472 1 472 1 615.5 -74.5 c 128,-1,53
 759 -150 759 -150 953 -150 c 0,54,55
 1246 -150 1246 -150 1542 5 c 1,56,-1
 1604 -117 l 1,57,58
 1436 -212 1436 -212 1275.5 -253 c 128,-1,59
 1115 -294 1115 -294 946 -294 c 0,60,61
 710 -294 710 -294 531 -198 c 0,62,63
 351 -103 351 -103 250.5 77.5 c 128,-1,64
 150 258 150 258 150 491 c 0,65,66
 150 774 150 774 277 1003 c 0,67,68
 403 1232 403 1232 626 1358 c 128,-1,69
 849 1484 849 1484 1125 1484 c 0,70,71
 1368 1484 1368 1484 1546 1394 c 0,72,73
 1724 1303 1724 1303 1817.5 1138 c 128,-1,74
 1911 973 1911 973 1911 755 c 0,0,1
1264 751 m 0,75,76
 1264 846 1264 846 1204.5 906 c 128,-1,77
 1145 966 1145 966 1051 966 c 256,78,79
 957 966 957 966 883 904 c 0,80,81
 808 841 808 841 766.5 726.5 c 128,-1,82
 725 612 725 612 725 491 c 0,83,84
 725 377 725 377 773.5 311 c 128,-1,85
 822 245 822 245 922 245 c 0,86,87
 988 245 988 245 1050.5 287.5 c 128,-1,88
 1113 330 1113 330 1162 409 c 0,89,90
 1195 462 1195 462 1217.5 526.5 c 128,-1,91
 1240 591 1240 591 1252 651 c 128,-1,92
 1264 711 1264 711 1264 751 c 0,75,76
EndSplineSet
EndChar

StartChar: A
Encoding: 65 65 36
Width: 1479
GlyphClass: 2
Flags: W
LayerCount: 2
Fore
SplineSet
447 360 m 1,0,-1
 252 0 l 1,1,-1
 -42 0 l 1,2,-1
 745 1409 l 1,3,-1
 1093 1409 l 1,4,-1
 1331 0 l 1,5,-1
 1039 0 l 1,6,-1
 984 360 l 1,7,-1
 447 360 l 1,0,-1
876 1192 m 1,8,9
 866 1160 866 1160 841 1107 c 128,-1,10
 816 1054 816 1054 778 980 c 2,11,-1
 566 582 l 1,12,-1
 961 582 l 1,13,-1
 894 1034 l 2,14,15
 885 1102 885 1102 880.5 1141.5 c 128,-1,16
 876 1181 876 1181 876 1192 c 1,8,9
EndSplineSet
EndChar

StartChar: B
Encoding: 66 66 37
Width: 1479
GlyphClass: 2
Flags: W
LayerCount: 2
Fore
SplineSet
1368 431 m 0,0,1
 1368 220 1368 220 1211.5 110 c 128,-1,2
 1055 0 1055 0 741 0 c 2,3,-1
 36 0 l 1,4,-1
 310 1409 l 1,5,-1
 894 1409 l 2,6,7
 1145 1409 1145 1409 1274 1326.5 c 128,-1,8
 1403 1244 1403 1244 1403 1083 c 0,9,10
 1403 805 1403 805 1079 738 c 1,11,12
 1215 715 1215 715 1291.5 632.5 c 128,-1,13
 1368 550 1368 550 1368 431 c 0,0,1
494 841 m 1,14,-1
 788 841 l 2,15,16
 963 841 963 841 1036.5 887 c 128,-1,17
 1110 933 1110 933 1110 1038 c 0,18,19
 1110 1118 1110 1118 1053 1154 c 128,-1,20
 996 1190 996 1190 862 1190 c 2,21,-1
 561 1190 l 1,22,-1
 494 841 l 1,14,-1
373 219 m 1,23,-1
 701 219 l 2,24,25
 910 219 910 219 991 269.5 c 128,-1,26
 1072 320 1072 320 1072 437 c 0,27,28
 1072 527 1072 527 1004 575 c 128,-1,29
 936 623 936 623 782 623 c 2,30,-1
 452 623 l 1,31,-1
 373 219 l 1,23,-1
EndSplineSet
EndChar

StartChar: C
Encoding: 67 67 38
Width: 1479
GlyphClass: 2
Flags: W
LayerCount: 2
Fore
SplineSet
1149 469 m 1,0,-1
 1376 352 l 1,1,2
 1271 166 1271 166 1104.5 73 c 128,-1,3
 938 -20 938 -20 711 -20 c 0,4,5
 520 -20 520 -20 382 52 c 0,6,7
 243 124 243 124 171.5 257.5 c 128,-1,8
 100 391 100 391 100 569 c 0,9,10
 100 821 100 821 205 1020 c 0,11,12
 310 1218 310 1218 498.5 1324 c 128,-1,13
 687 1430 687 1430 927 1430 c 0,14,15
 1157 1430 1157 1430 1304.5 1331.5 c 128,-1,16
 1452 1233 1452 1233 1503 1038 c 1,17,-1
 1229 967 l 1,18,19
 1200 1074 1200 1074 1118 1136 c 128,-1,20
 1036 1198 1036 1198 918 1198 c 0,21,22
 706 1198 706 1198 573 1067 c 0,23,24
 490 986 490 986 445.5 860.5 c 128,-1,25
 401 735 401 735 401 573 c 0,26,27
 401 400 401 400 486.5 305.5 c 128,-1,28
 572 211 572 211 731 211 c 0,29,30
 864 211 864 211 968.5 275.5 c 128,-1,31
 1073 340 1073 340 1149 469 c 1,0,-1
EndSplineSet
EndChar

StartChar: D
Encoding: 68 68 39
Width: 1479
GlyphClass: 2
Flags: W
LayerCount: 2
Fore
SplineSet
734 1409 m 2,0,1
 956 1409 956 1409 1109.5 1339.5 c 128,-1,2
 1263 1270 1263 1270 1342 1136 c 128,-1,3
 1421 1002 1421 1002 1421 807 c 0,4,5
 1421 572 1421 572 1322 390 c 0,6,7
 1223 209 1223 209 1035 104.5 c 128,-1,8
 847 0 847 0 614 0 c 2,9,-1
 36 0 l 1,10,-1
 310 1409 l 1,11,-1
 734 1409 l 2,0,1
375 228 m 1,12,-1
 605 228 l 2,13,14
 765 228 765 228 889 297 c 0,15,16
 1012 365 1012 365 1078.5 494 c 128,-1,17
 1145 623 1145 623 1145 794 c 0,18,19
 1145 983 1145 983 1039.5 1082 c 128,-1,20
 934 1181 934 1181 736 1181 c 2,21,-1
 560 1181 l 1,22,-1
 375 228 l 1,12,-1
EndSplineSet
EndChar

StartChar: E
Encoding: 69 69 40
Width: 1366
GlyphClass: 2
Flags: W
LayerCount: 2
Fore
SplineSet
1229 228 m 1,0,-1
 1184 0 l 1,1,-1
 36 0 l 1,2,-1
 309 1409 l 1,3,-1
 1417 1409 l 1,4,-1
 1373 1181 l 1,5,-1
 560 1181 l 1,6,-1
 491 827 l 1,7,-1
 1243 827 l 1,8,-1
 1199 599 l 1,9,-1
 447 599 l 1,10,-1
 375 228 l 1,11,-1
 1229 228 l 1,0,-1
EndSplineSet
EndChar

StartChar: F
Encoding: 70 70 41
Width: 1251
GlyphClass: 2
Flags: W
LayerCount: 2
Fore
SplineSet
431 517 m 1,0,-1
 330 0 l 1,1,-1
 36 0 l 1,2,-1
 309 1409 l 1,3,-1
 1295 1409 l 1,4,-1
 1251 1181 l 1,5,-1
 560 1181 l 1,6,-1
 475 745 l 1,7,-1
 1143 745 l 1,8,-1
 1099 517 l 1,9,-1
 431 517 l 1,0,-1
EndSplineSet
EndChar

StartChar: G
Encoding: 71 71 42
Width: 1593
GlyphClass: 2
Flags: W
LayerCount: 2
Fore
SplineSet
740 -19 m 0,0,1
 440 -19 440 -19 270 139.5 c 128,-1,2
 100 298 100 298 100 583 c 0,3,4
 100 834 100 834 205 1027 c 0,5,6
 309 1221 309 1221 500.5 1325.5 c 128,-1,7
 692 1430 692 1430 942 1430 c 0,8,9
 1170 1430 1170 1430 1323.5 1327 c 128,-1,10
 1477 1224 1477 1224 1530 1039 c 1,11,-1
 1248 961 l 1,12,13
 1219 1074 1219 1074 1136 1136 c 128,-1,14
 1053 1198 1053 1198 926 1198 c 0,15,16
 767 1198 767 1198 647 1123 c 256,17,18
 527 1048 527 1048 463 910 c 128,-1,19
 399 772 399 772 399 592 c 0,20,21
 399 414 399 414 494.5 312.5 c 128,-1,22
 590 211 590 211 764 211 c 0,23,24
 872 211 872 211 974 237 c 128,-1,25
 1076 263 1076 263 1148 307 c 1,26,-1
 1194 535 l 1,27,-1
 852 535 l 1,28,-1
 891 743 l 1,29,-1
 1505 743 l 1,30,-1
 1400 175 l 1,31,32
 1244 68 1244 68 1088 24.5 c 128,-1,33
 932 -19 932 -19 740 -19 c 0,0,1
EndSplineSet
EndChar

StartChar: H
Encoding: 72 72 43
Width: 1479
GlyphClass: 2
Flags: W
LayerCount: 2
Fore
SplineSet
448 604 m 1,0,-1
 330 0 l 1,1,-1
 36 0 l 1,2,-1
 309 1409 l 1,3,-1
 604 1409 l 1,4,-1
 495 848 l 1,5,-1
 1121 848 l 1,6,-1
 1230 1409 l 1,7,-1
 1514 1409 l 1,8,-1
 1240 0 l 1,9,-1
 956 0 l 1,10,-1
 1074 604 l 1,11,-1
 448 604 l 1,0,-1
EndSplineSet
EndChar

StartChar: I
Encoding: 73 73 44
Width: 569
GlyphClass: 2
Flags: W
LayerCount: 2
Fore
SplineSet
604 1409 m 1,0,-1
 330 0 l 1,1,-1
 36 0 l 1,2,-1
 309 1409 l 1,3,-1
 604 1409 l 1,0,-1
EndSplineSet
EndChar

StartChar: J
Encoding: 74 74 45
Width: 1139
GlyphClass: 2
Flags: W
LayerCount: 2
Fore
SplineSet
480 -20 m 0,0,1
 290 -20 290 -20 176.5 76 c 128,-1,2
 63 172 63 172 25 379 c 1,3,-1
 292 437 l 1,4,5
 315 324 315 324 367 267.5 c 128,-1,6
 419 211 419 211 499 211 c 0,7,8
 553 211 553 211 590 235 c 256,9,10
 627 259 627 259 651 303 c 128,-1,11
 675 347 675 347 693 440 c 2,12,-1
 880 1409 l 1,13,-1
 1174 1409 l 1,14,-1
 981 423 l 2,15,16
 936 192 936 192 816 86 c 128,-1,17
 696 -20 696 -20 480 -20 c 0,0,1
EndSplineSet
EndChar

StartChar: K
Encoding: 75 75 46
Width: 1479
GlyphClass: 2
Flags: W
LayerCount: 2
Fore
SplineSet
429 517 m 1,0,-1
 328 0 l 1,1,-1
 36 0 l 1,2,-1
 309 1409 l 1,3,-1
 604 1409 l 1,4,-1
 474 770 l 1,5,-1
 633 904 l 1,6,-1
 1234 1409 l 1,7,-1
 1603 1409 l 1,8,-1
 856 793 l 1,9,-1
 1321 0 l 1,10,-1
 995 0 l 1,11,-1
 640 640 l 1,12,-1
 429 517 l 1,0,-1
EndSplineSet
EndChar

StartChar: L
Encoding: 76 76 47
Width: 1251
GlyphClass: 2
Flags: W
LayerCount: 2
Fore
SplineSet
1131 228 m 1,0,-1
 1086 0 l 1,1,-1
 36 0 l 1,2,-1
 309 1409 l 1,3,-1
 604 1409 l 1,4,-1
 375 228 l 1,5,-1
 1131 228 l 1,0,-1
EndSplineSet
EndChar

StartChar: M
Encoding: 77 77 48
Width: 1706
GlyphClass: 2
Flags: W
LayerCount: 2
Fore
SplineSet
470 887 m 2,0,-1
 298 0 l 1,1,-1
 36 0 l 1,2,-1
 310 1409 l 1,3,-1
 705 1409 l 1,4,-1
 793 621 l 2,5,6
 799 552 799 552 805.5 483 c 128,-1,7
 812 414 812 414 818 345 c 1,8,9
 836 385 836 385 852.5 421.5 c 128,-1,10
 869 458 869 458 885 490 c 2,11,-1
 1349 1409 l 1,12,-1
 1742 1409 l 1,13,-1
 1468 0 l 1,14,-1
 1206 0 l 1,15,-1
 1378 884 l 2,16,17
 1391 949 1391 949 1409.5 1029.5 c 128,-1,18
 1428 1110 1428 1110 1452 1206 c 1,19,20
 1391 1073 1391 1073 1355 995.5 c 128,-1,21
 1319 918 1319 918 1300 878 c 128,-1,22
 1281 838 1281 838 1269 816 c 2,23,-1
 857 0 l 1,24,-1
 647 0 l 1,25,-1
 553 819 l 2,26,27
 537 965 537 965 527.5 1061.5 c 128,-1,28
 518 1158 518 1158 513 1206 c 1,29,30
 499 1084 499 1084 488.5 1004.5 c 128,-1,31
 478 925 478 925 470 887 c 2,0,-1
EndSplineSet
EndChar

StartChar: N
Encoding: 78 78 49
Width: 1479
GlyphClass: 2
Flags: W
LayerCount: 2
Fore
SplineSet
472 892 m 2,0,-1
 298 0 l 1,1,-1
 36 0 l 1,2,-1
 310 1409 l 1,3,-1
 660 1409 l 1,4,-1
 1037 268 l 1,5,6
 1052 371 1052 371 1060.5 424.5 c 128,-1,7
 1069 478 1069 478 1078 524 c 2,8,-1
 1252 1409 l 1,9,-1
 1514 1409 l 1,10,-1
 1240 0 l 1,11,-1
 884 0 l 1,12,-1
 510 1131 l 1,13,14
 499 1050 499 1050 489.5 990 c 128,-1,15
 480 930 480 930 472 892 c 2,0,-1
EndSplineSet
EndChar

StartChar: O
Encoding: 79 79 50
Width: 1593
GlyphClass: 2
Flags: W
LayerCount: 2
Fore
SplineSet
928 1430 m 0,0,1
 1124 1430 1124 1430 1265 1359.5 c 128,-1,2
 1406 1289 1406 1289 1482.5 1159.5 c 128,-1,3
 1559 1030 1559 1030 1559 851 c 0,4,5
 1559 604 1559 604 1454 401 c 0,6,7
 1348 197 1348 197 1159 88.5 c 128,-1,8
 970 -20 970 -20 727 -20 c 0,9,10
 535 -20 535 -20 392 52 c 0,11,12
 250 124 250 124 175 258.5 c 128,-1,13
 100 393 100 393 100 573 c 0,14,15
 100 809 100 809 206 1012 c 0,16,17
 311 1215 311 1215 498 1322.5 c 128,-1,18
 685 1430 685 1430 928 1430 c 0,0,1
914 1197 m 0,19,20
 752 1197 752 1197 638 1122 c 0,21,22
 562 1072 562 1072 509 986.5 c 128,-1,23
 456 901 456 901 428 796 c 128,-1,24
 400 691 400 691 400 581 c 0,25,26
 400 397 400 397 490 304.5 c 128,-1,27
 580 212 580 212 741 212 c 256,28,29
 902 212 902 212 1016 287 c 0,30,31
 1092 337 1092 337 1145.5 421 c 128,-1,32
 1199 505 1199 505 1227 610 c 128,-1,33
 1255 715 1255 715 1255 827 c 0,34,35
 1255 1003 1255 1003 1167.5 1100 c 128,-1,36
 1080 1197 1080 1197 914 1197 c 0,19,20
EndSplineSet
EndChar

StartChar: P
Encoding: 80 80 51
Width: 1366
GlyphClass: 2
Flags: W
LayerCount: 2
Fore
SplineSet
850 1409 m 2,0,1
 1096 1409 1096 1409 1232.5 1297 c 128,-1,2
 1369 1185 1369 1185 1369 987 c 0,3,4
 1369 837 1369 837 1299.5 726.5 c 128,-1,5
 1230 616 1230 616 1103.5 556 c 128,-1,6
 977 496 977 496 805 496 c 2,7,-1
 428 496 l 1,8,-1
 330 0 l 1,9,-1
 36 0 l 1,10,-1
 309 1409 l 1,11,-1
 850 1409 l 2,0,1
471 723 m 1,12,-1
 760 723 l 2,13,14
 915 723 915 723 992.5 781 c 128,-1,15
 1070 839 1070 839 1070 971 c 0,16,17
 1070 1073 1070 1073 1006 1126.5 c 128,-1,18
 942 1180 942 1180 822 1180 c 2,19,-1
 560 1180 l 1,20,-1
 471 723 l 1,12,-1
EndSplineSet
EndChar

StartChar: Q
Encoding: 81 81 52
Width: 1593
GlyphClass: 2
Flags: W
LayerCount: 2
Fore
SplineSet
928 1430 m 0,0,1
 1124 1430 1124 1430 1265 1359.5 c 128,-1,2
 1406 1289 1406 1289 1482.5 1159.5 c 128,-1,3
 1559 1030 1559 1030 1559 851 c 0,4,5
 1559 747 1559 747 1522 563 c 128,-1,6
 1485 379 1485 379 1313 207 c 0,7,8
 1142 34 1142 34 882 -8 c 1,9,10
 901 -106 901 -106 946.5 -150 c 128,-1,11
 992 -194 992 -194 1081 -194 c 0,12,13
 1158 -194 1158 -194 1231 -180 c 1,14,-1
 1186 -375 l 1,15,16
 1115 -400 1115 -400 1017 -400 c 0,17,18
 820 -400 820 -400 713.5 -306 c 128,-1,19
 607 -212 607 -212 584 -9 c 1,20,21
 466 10 466 10 376 60.5 c 128,-1,22
 286 111 286 111 224 187 c 0,23,24
 100 338 100 338 100 573 c 0,25,26
 100 809 100 809 206 1012 c 0,27,28
 311 1215 311 1215 498 1322.5 c 128,-1,29
 685 1430 685 1430 928 1430 c 0,0,1
914 1197 m 0,30,31
 752 1197 752 1197 638 1122 c 0,32,33
 562 1072 562 1072 509 986.5 c 128,-1,34
 456 901 456 901 428 796 c 128,-1,35
 400 691 400 691 400 581 c 0,36,37
 400 397 400 397 490 304.5 c 128,-1,38
 580 212 580 212 741 212 c 256,39,40
 902 212 902 212 1016 287 c 0,41,42
 1092 337 1092 337 1145.5 421 c 128,-1,43
 1199 505 1199 505 1227 610 c 128,-1,44
 1255 715 1255 715 1255 827 c 0,45,46
 1255 1003 1255 1003 1167.5 1100 c 128,-1,47
 1080 1197 1080 1197 914 1197 c 0,30,31
EndSplineSet
EndChar

StartChar: R
Encoding: 82 82 53
Width: 1479
GlyphClass: 2
Flags: W
LayerCount: 2
Fore
SplineSet
434 534 m 1,0,-1
 331 0 l 1,1,-1
 36 0 l 1,2,-1
 310 1409 l 1,3,-1
 961 1409 l 2,4,5
 1121 1409 1121 1409 1234 1360 c 256,6,7
 1347 1311 1347 1311 1406 1220 c 128,-1,8
 1465 1129 1465 1129 1465 1006 c 0,9,10
 1465 841 1465 841 1356.5 726 c 128,-1,11
 1248 611 1248 611 1062 583 c 1,12,-1
 1336 0 l 1,13,-1
 1010 0 l 1,14,-1
 780 534 l 1,15,-1
 434 534 l 1,0,-1
872 764 m 2,16,17
 1017 764 1017 764 1091.5 822.5 c 128,-1,18
 1166 881 1166 881 1166 989 c 0,19,20
 1166 1082 1166 1082 1102.5 1131 c 128,-1,21
 1039 1180 1039 1180 924 1180 c 2,22,-1
 560 1180 l 1,23,-1
 479 764 l 1,24,-1
 872 764 l 2,16,17
EndSplineSet
EndChar

StartChar: S
Encoding: 83 83 54
Width: 1366
GlyphClass: 2
Flags: W
LayerCount: 2
Fore
SplineSet
600 -20 m 0,0,1
 333 -20 333 -20 193 74.5 c 128,-1,2
 53 169 53 169 25 365 c 1,3,-1
 314 414 l 1,4,5
 335 303 335 303 407.5 252 c 128,-1,6
 480 201 480 201 620 201 c 0,7,8
 793 201 793 201 879 250.5 c 128,-1,9
 965 300 965 300 965 400 c 0,10,11
 965 440 965 440 950 472 c 128,-1,12
 935 504 935 504 905 527 c 256,13,14
 875 550 875 550 815.5 573 c 128,-1,15
 756 596 756 596 667 618 c 0,16,17
 484 667 484 667 395 720 c 0,18,19
 307 773 307 773 260 849.5 c 128,-1,20
 213 926 213 926 213 1037 c 0,21,22
 213 1155 213 1155 284.5 1243.5 c 128,-1,23
 356 1332 356 1332 485 1381 c 128,-1,24
 614 1430 614 1430 786 1430 c 0,25,26
 1024 1430 1024 1430 1168 1343.5 c 128,-1,27
 1312 1257 1312 1257 1345 1091 c 1,28,-1
 1057 1024 l 1,29,30
 1035 1114 1035 1114 961.5 1167.5 c 128,-1,31
 888 1221 888 1221 770 1221 c 0,32,33
 646 1221 646 1221 575 1174.5 c 128,-1,34
 504 1128 504 1128 504 1047 c 0,35,36
 504 1000 504 1000 530 967 c 128,-1,37
 556 934 556 934 606 910 c 0,38,39
 631 897 631 897 680.5 881 c 128,-1,40
 730 865 730 865 804 845 c 0,41,42
 963 801 963 801 1039 762.5 c 128,-1,43
 1115 724 1115 724 1161 676 c 0,44,45
 1206 628 1206 628 1230 566 c 128,-1,46
 1254 504 1254 504 1254 423 c 0,47,48
 1254 207 1254 207 1088 93.5 c 128,-1,49
 922 -20 922 -20 600 -20 c 0,0,1
EndSplineSet
EndChar

StartChar: T
Encoding: 84 84 55
Width: 1251
GlyphClass: 2
Flags: W
LayerCount: 2
Fore
SplineSet
895 1181 m 1,0,-1
 665 0 l 1,1,-1
 370 0 l 1,2,-1
 600 1181 l 1,3,-1
 145 1181 l 1,4,-1
 189 1409 l 1,5,-1
 1395 1409 l 1,6,-1
 1351 1181 l 1,7,-1
 895 1181 l 1,0,-1
EndSplineSet
EndChar

StartChar: U
Encoding: 85 85 56
Width: 1479
GlyphClass: 2
Flags: W
LayerCount: 2
Fore
SplineSet
672 -20 m 0,0,1
 408 -20 408 -20 263.5 97.5 c 128,-1,2
 119 215 119 215 119 431 c 0,3,4
 119 475 119 475 126.5 536.5 c 128,-1,5
 134 598 134 598 142 635 c 2,6,-1
 290 1409 l 1,7,-1
 585 1409 l 1,8,-1
 432 599 l 2,9,10
 414 512 414 512 414 427 c 0,11,12
 414 324 414 324 487 267.5 c 128,-1,13
 560 211 560 211 688 211 c 0,14,15
 853 211 853 211 938.5 287 c 128,-1,16
 1024 363 1024 363 1058 541 c 2,17,-1
 1226 1409 l 1,18,-1
 1521 1409 l 1,19,-1
 1350 530 l 2,20,21
 1295 249 1295 249 1130 114.5 c 128,-1,22
 965 -20 965 -20 672 -20 c 0,0,1
EndSplineSet
EndChar

StartChar: V
Encoding: 86 86 57
Width: 1366
GlyphClass: 2
Flags: W
LayerCount: 2
Fore
SplineSet
1509 1409 m 1,0,-1
 737 0 l 1,1,-1
 398 0 l 1,2,-1
 171 1409 l 1,3,-1
 476 1409 l 1,4,-1
 590 504 l 2,5,6
 598 431 598 431 603.5 364 c 128,-1,7
 609 297 609 297 612 238 c 1,8,9
 635 291 635 291 654.5 332.5 c 128,-1,10
 674 374 674 374 688 405 c 2,11,-1
 1201 1409 l 1,12,-1
 1509 1409 l 1,0,-1
EndSplineSet
EndChar

StartChar: W
Encoding: 87 87 58
Width: 1933
GlyphClass: 2
Flags: W
LayerCount: 2
Fore
SplineSet
968 877 m 2,0,-1
 594 0 l 1,1,-1
 239 0 l 1,2,-1
 150 1409 l 1,3,-1
 430 1409 l 1,4,-1
 466 594 l 2,5,6
 470 510 470 510 471.5 423.5 c 128,-1,7
 473 337 473 337 473 248 c 1,8,9
 506 331 506 331 539.5 413 c 128,-1,10
 573 495 573 495 606 577 c 2,11,-1
 961 1409 l 1,12,-1
 1277 1409 l 1,13,-1
 1308 552 l 2,14,15
 1311 476 1311 476 1313.5 400 c 128,-1,16
 1316 324 1316 324 1319 248 c 1,17,18
 1333 285 1333 285 1352.5 336 c 128,-1,19
 1372 387 1372 387 1398 453 c 2,20,-1
 1788 1409 l 1,21,-1
 2079 1409 l 1,22,-1
 1441 0 l 1,23,-1
 1091 0 l 1,24,-1
 1064 812 l 2,25,26
 1063 888 1063 888 1062 964 c 128,-1,27
 1061 1040 1061 1040 1059 1116 c 1,28,29
 1029 1036 1029 1036 1006.5 976.5 c 128,-1,30
 984 917 984 917 968 877 c 2,0,-1
EndSplineSet
EndChar

StartChar: X
Encoding: 88 88 59
Width: 1366
GlyphClass: 2
Flags: W
LayerCount: 2
Fore
SplineSet
928 0 m 1,0,-1
 675 532 l 1,1,-1
 220 0 l 1,2,-1
 -94 0 l 1,3,-1
 558 736 l 1,4,-1
 220 1409 l 1,5,-1
 529 1409 l 1,6,-1
 753 938 l 1,7,-1
 1155 1409 l 1,8,-1
 1468 1409 l 1,9,-1
 868 732 l 1,10,-1
 1235 0 l 1,11,-1
 928 0 l 1,0,-1
EndSplineSet
EndChar

StartChar: Y
Encoding: 89 89 60
Width: 1366
GlyphClass: 2
Flags: W
LayerCount: 2
Fore
SplineSet
836 578 m 1,0,-1
 724 0 l 1,1,-1
 430 0 l 1,2,-1
 542 578 l 1,3,-1
 172 1409 l 1,4,-1
 464 1409 l 1,5,-1
 723 804 l 1,6,-1
 1197 1409 l 1,7,-1
 1520 1409 l 1,8,-1
 836 578 l 1,0,-1
EndSplineSet
EndChar

StartChar: Z
Encoding: 90 90 61
Width: 1251
GlyphClass: 2
Flags: W
LayerCount: 2
Fore
SplineSet
1127 231 m 1,0,-1
 1082 0 l 1,1,-1
 -48 0 l 1,2,-1
 -8 209 l 1,3,-1
 919 1178 l 1,4,-1
 256 1178 l 1,5,-1
 301 1409 l 1,6,-1
 1315 1409 l 1,7,-1
 1275 1204 l 1,8,-1
 345 231 l 1,9,-1
 1127 231 l 1,0,-1
EndSplineSet
EndChar

StartChar: bracketleft
Encoding: 91 91 62
Width: 682
GlyphClass: 2
Flags: W
LayerCount: 2
Fore
SplineSet
524 -234 m 1,0,-1
 487 -425 l 1,1,-1
 -54 -425 l 1,2,-1
 316 1484 l 1,3,-1
 858 1484 l 1,4,-1
 821 1294 l 1,5,-1
 545 1294 l 1,6,-1
 248 -234 l 1,7,-1
 524 -234 l 1,0,-1
EndSplineSet
EndChar

StartChar: backslash
Encoding: 92 92 63
Width: 569
GlyphClass: 2
Flags: W
LayerCount: 2
Fore
SplineSet
349 1485 m 1,0,-1
 532 -41 l 1,1,-1
 289 -41 l 1,2,-1
 111 1485 l 1,3,-1
 349 1485 l 1,0,-1
EndSplineSet
EndChar

StartChar: bracketright
Encoding: 93 93 64
Width: 682
GlyphClass: 2
Flags: W
LayerCount: 2
Fore
SplineSet
738 1484 m 1,0,-1
 367 -425 l 1,1,-1
 -174 -425 l 1,2,-1
 -137 -234 l 1,3,-1
 140 -234 l 1,4,-1
 437 1294 l 1,5,-1
 159 1294 l 1,6,-1
 196 1484 l 1,7,-1
 738 1484 l 1,0,-1
EndSplineSet
EndChar

StartChar: asciicircum
Encoding: 94 94 65
Width: 1196
GlyphClass: 2
Flags: W
LayerCount: 2
Fore
SplineSet
636 1266 m 1,0,-1
 312 514 l 1,1,-1
 85 514 l 1,2,-1
 476 1409 l 1,3,-1
 798 1409 l 1,4,-1
 1191 514 l 1,5,-1
 962 514 l 1,6,-1
 636 1266 l 1,0,-1
EndSplineSet
EndChar

StartChar: underscore
Encoding: 95 95 66
Width: 1139
GlyphClass: 2
Flags: W
LayerCount: 2
Fore
SplineSet
1057 -172 m 1,0,-1
 1057 -250 l 1,1,-1
 -120 -250 l 1,2,-1
 -120 -172 l 1,3,-1
 1057 -172 l 1,0,-1
EndSplineSet
EndChar

StartChar: grave
Encoding: 96 96 67
Width: 682
GlyphClass: 2
Flags: W
LayerCount: 2
Fore
SplineSet
750 1214 m 1,0,-1
 744 1183 l 1,1,-1
 596 1183 l 1,2,-1
 289 1459 l 1,3,-1
 297 1502 l 1,4,-1
 555 1502 l 1,5,-1
 750 1214 l 1,0,-1
EndSplineSet
EndChar

StartChar: a
Encoding: 97 97 68
Width: 1139
GlyphClass: 2
Flags: W
LayerCount: 2
Fore
SplineSet
892 -10 m 0,0,1
 834 -10 834 -10 792 3 c 128,-1,2
 750 16 750 16 724.5 43 c 128,-1,3
 699 70 699 70 690 111 c 128,-1,4
 681 152 681 152 689 207 c 1,5,-1
 683 207 l 1,6,7
 648 153 648 153 611.5 110.5 c 128,-1,8
 575 68 575 68 532.5 39 c 128,-1,9
 490 10 490 10 437.5 -5 c 128,-1,10
 385 -20 385 -20 317 -20 c 0,11,12
 250 -20 250 -20 193.5 1 c 128,-1,13
 137 22 137 22 96 60.5 c 128,-1,14
 55 99 55 99 32.5 154 c 128,-1,15
 10 209 10 209 10 278 c 0,16,17
 10 379 10 379 44 446.5 c 128,-1,18
 78 514 78 514 135.5 556 c 128,-1,19
 193 598 193 598 268 619 c 128,-1,20
 343 640 343 640 424.5 649 c 128,-1,21
 506 658 506 658 588 658.5 c 128,-1,22
 670 659 670 659 742 660 c 1,23,24
 749 692 749 692 756 725.5 c 128,-1,25
 763 759 763 759 763 791 c 256,26,27
 763 823 763 823 755 847 c 128,-1,28
 747 871 747 871 731.5 887 c 128,-1,29
 716 903 716 903 692 911 c 128,-1,30
 668 919 668 919 636 919 c 0,31,32
 597 919 597 919 564 912 c 128,-1,33
 531 905 531 905 505.5 888.5 c 128,-1,34
 480 872 480 872 461.5 845 c 128,-1,35
 443 818 443 818 433 777 c 1,36,-1
 170 808 l 1,37,38
 190 894 190 894 236.5 950.5 c 128,-1,39
 283 1007 283 1007 347 1040.5 c 128,-1,40
 411 1074 411 1074 486.5 1088 c 128,-1,41
 562 1102 562 1102 641 1102 c 0,42,43
 718 1102 718 1102 790 1090 c 128,-1,44
 862 1078 862 1078 918 1046 c 128,-1,45
 974 1014 974 1014 1007.5 956.5 c 128,-1,46
 1041 899 1041 899 1041 807 c 0,47,48
 1041 769 1041 769 1033 728.5 c 128,-1,49
 1025 688 1025 688 1017 650 c 2,50,-1
 946 297 l 2,51,52
 942 280 942 280 940 261 c 128,-1,53
 938 242 938 242 938 225 c 0,54,55
 938 189 938 189 961 174.5 c 128,-1,56
 984 160 984 160 1017 160 c 0,57,58
 1033 160 1033 160 1048.5 161.5 c 128,-1,59
 1064 163 1064 163 1079 167 c 1,60,-1
 1065 12 l 1,61,62
 1023 -4 1023 -4 980 -7 c 128,-1,63
 937 -10 937 -10 892 -10 c 0,0,1
297 325 m 0,64,65
 297 291 297 291 307 263.5 c 128,-1,66
 317 236 317 236 335.5 216.5 c 128,-1,67
 354 197 354 197 381.5 186.5 c 128,-1,68
 409 176 409 176 443 176 c 0,69,70
 490 176 490 176 527 191 c 128,-1,71
 564 206 564 206 592.5 231.5 c 128,-1,72
 621 257 621 257 640.5 291.5 c 128,-1,73
 660 326 660 326 671 365 c 2,74,-1
 711 503 l 1,75,-1
 549 503 l 2,76,77
 507 503 507 503 462 494.5 c 128,-1,78
 417 486 417 486 380.5 465 c 128,-1,79
 344 444 344 444 320.5 410 c 128,-1,80
 297 376 297 376 297 325 c 0,64,65
EndSplineSet
EndChar

StartChar: b
Encoding: 98 98 69
Width: 1251
GlyphClass: 2
Flags: W
LayerCount: 2
Fore
SplineSet
855 1102 m 0,0,1
 1014 1102 1014 1102 1103 1007.5 c 128,-1,2
 1192 913 1192 913 1192 748 c 0,3,4
 1192 644 1192 644 1176.5 547 c 128,-1,5
 1161 450 1161 450 1130 355 c 0,6,7
 1068 163 1068 163 955.5 71.5 c 128,-1,8
 843 -20 843 -20 669 -20 c 0,9,10
 544 -20 544 -20 466.5 32 c 128,-1,11
 389 84 389 84 357 178 c 1,12,-1
 354 178 l 1,13,14
 346 141 346 141 339 113.5 c 128,-1,15
 332 86 332 86 327 67 c 0,16,17
 322 51 322 51 316.5 34 c 128,-1,18
 311 17 311 17 306 0 c 1,19,-1
 35 0 l 1,20,21
 40 15 40 15 55 82 c 128,-1,22
 70 149 70 149 84 223 c 2,23,-1
 330 1484 l 1,24,-1
 611 1484 l 1,25,-1
 527 1057 l 2,26,27
 520 1025 520 1025 512.5 989 c 128,-1,28
 505 953 505 953 495 913 c 1,29,-1
 499 913 l 1,30,31
 555 997 555 997 644.5 1049.5 c 128,-1,32
 734 1102 734 1102 855 1102 c 0,0,1
735 907 m 0,33,34
 607 907 607 907 531 816 c 0,35,36
 494 772 494 772 467.5 706.5 c 128,-1,37
 441 641 441 641 424 554 c 0,38,39
 407 458 407 458 407 401 c 0,40,41
 407 294 407 294 460 233.5 c 128,-1,42
 513 173 513 173 608 173 c 0,43,44
 709 173 709 173 766 236 c 0,45,46
 795 267 795 267 819 323.5 c 128,-1,47
 843 380 843 380 861 447.5 c 128,-1,48
 879 515 879 515 889 580.5 c 128,-1,49
 899 646 899 646 899 694 c 0,50,51
 899 799 899 799 863.5 853 c 128,-1,52
 828 907 828 907 735 907 c 0,33,34
EndSplineSet
EndChar

StartChar: c
Encoding: 99 99 70
Width: 1139
GlyphClass: 2
Flags: W
LayerCount: 2
Fore
SplineSet
536 173 m 0,0,1
 619 173 619 173 673 225.5 c 128,-1,2
 727 278 727 278 759 381 c 1,3,-1
 1030 331 l 1,4,5
 924 -20 924 -20 520 -20 c 0,6,7
 300 -20 300 -20 181.5 92.5 c 128,-1,8
 63 205 63 205 63 405 c 0,9,10
 63 601 63 601 142 771 c 0,11,12
 221 942 221 942 352.5 1022 c 128,-1,13
 484 1102 484 1102 680 1102 c 0,14,15
 869 1102 869 1102 982 1006.5 c 128,-1,16
 1095 911 1095 911 1109 741 c 1,17,-1
 825 718 l 1,18,19
 820 813 820 813 778 861 c 128,-1,20
 736 909 736 909 658 909 c 0,21,22
 551 909 551 909 490.5 835.5 c 128,-1,23
 430 762 430 762 381 575 c 1,24,25
 370 517 370 517 364 475 c 128,-1,26
 358 433 358 433 358 407 c 0,27,28
 358 173 358 173 536 173 c 0,0,1
EndSplineSet
EndChar

StartChar: d
Encoding: 100 100 71
Width: 1251
GlyphClass: 2
Flags: W
LayerCount: 2
Fore
SplineSet
392 -21 m 0,0,1
 238 -21 238 -21 148 81 c 128,-1,2
 58 183 58 183 58 354 c 0,3,4
 58 546 58 546 122 728 c 0,5,6
 186 911 186 911 301.5 1006.5 c 128,-1,7
 417 1102 417 1102 580 1102 c 0,8,9
 708 1102 708 1102 786.5 1052.5 c 128,-1,10
 865 1003 865 1003 894 904 c 1,11,-1
 899 904 l 1,12,13
 901 924 901 924 907 964 c 128,-1,14
 913 1004 913 1004 925 1066 c 2,15,-1
 1009 1484 l 1,16,-1
 1286 1484 l 1,17,-1
 1048 231 l 2,18,19
 1038 175 1038 175 1031 117 c 128,-1,20
 1024 59 1024 59 1019 0 c 1,21,-1
 738 0 l 1,22,23
 738 63 738 63 753 160 c 1,24,-1
 749 160 l 1,25,26
 678 67 678 67 595.5 23 c 128,-1,27
 513 -21 513 -21 392 -21 c 0,0,1
515 172 m 0,28,29
 672 172 672 172 753 313 c 0,30,31
 781 361 781 361 800.5 426.5 c 128,-1,32
 820 492 820 492 831 559.5 c 128,-1,33
 842 627 842 627 842 681 c 0,34,35
 842 801 842 801 795 855.5 c 128,-1,36
 748 910 748 910 654 910 c 0,37,38
 553 910 553 910 488 841 c 0,39,40
 445 795 445 795 415.5 718.5 c 128,-1,41
 386 642 386 642 370.5 555.5 c 128,-1,42
 355 469 355 469 355 393 c 0,43,44
 355 283 355 283 395 227.5 c 128,-1,45
 435 172 435 172 515 172 c 0,28,29
EndSplineSet
EndChar

StartChar: e
Encoding: 101 101 72
Width: 1139
GlyphClass: 2
Flags: W
LayerCount: 2
Fore
SplineSet
358 476 m 1,0,1
 351 441 351 441 351 387 c 0,2,3
 351 281 351 281 397.5 224.5 c 128,-1,4
 444 168 444 168 535 168 c 0,5,6
 609 168 609 168 662 210 c 128,-1,7
 715 252 715 252 748 337 c 1,8,-1
 993 263 l 1,9,10
 918 104 918 104 807 42 c 128,-1,11
 696 -20 696 -20 516 -20 c 0,12,13
 303 -20 303 -20 183 95.5 c 128,-1,14
 63 211 63 211 63 418 c 256,15,16
 63 625 63 625 135 781 c 0,17,18
 207 936 207 936 339.5 1019 c 128,-1,19
 472 1102 472 1102 646 1102 c 0,20,21
 855 1102 855 1102 968.5 994.5 c 128,-1,22
 1082 887 1082 887 1082 691 c 0,23,24
 1082 592 1082 592 1058 476 c 1,25,-1
 358 476 l 1,0,1
391 663 m 1,26,-1
 822 663 l 1,27,-1
 825 719 l 1,28,29
 825 826 825 826 775.5 875 c 128,-1,30
 726 924 726 924 646 924 c 0,31,32
 550 924 550 924 484.5 857.5 c 128,-1,33
 419 791 419 791 391 663 c 1,26,-1
EndSplineSet
EndChar

StartChar: f
Encoding: 102 102 73
Width: 682
GlyphClass: 2
Flags: W
LayerCount: 2
Fore
SplineSet
528 892 m 1,0,-1
 354 0 l 1,1,-1
 74 0 l 1,2,-1
 248 892 l 1,3,-1
 90 892 l 1,4,-1
 127 1082 l 1,5,-1
 285 1082 l 1,6,-1
 307 1195 l 2,7,8
 329 1303 329 1303 377 1364 c 0,9,10
 426 1427 426 1427 505 1455.5 c 128,-1,11
 584 1484 584 1484 698 1484 c 0,12,13
 768 1484 768 1484 853 1467 c 1,14,-1
 817 1286 l 1,15,16
 811 1287 811 1287 798 1289 c 128,-1,17
 785 1291 785 1291 770 1292 c 0,18,19
 757 1294 757 1294 744 1295 c 128,-1,20
 731 1296 731 1296 721 1296 c 0,21,22
 654 1296 654 1296 624 1264 c 128,-1,23
 594 1232 594 1232 581 1167 c 2,24,-1
 565 1082 l 1,25,-1
 778 1082 l 1,26,-1
 741 892 l 1,27,-1
 528 892 l 1,0,-1
EndSplineSet
EndChar

StartChar: g
Encoding: 103 103 74
Width: 1251
GlyphClass: 2
Flags: W
LayerCount: 2
Fore
SplineSet
431 -425 m 0,0,1
 232 -425 232 -425 125 -356 c 128,-1,2
 18 -287 18 -287 -7 -142 c 1,3,-1
 276 -112 l 1,4,5
 303 -239 303 -239 464 -239 c 0,6,7
 574 -239 574 -239 635 -180 c 128,-1,8
 696 -121 696 -121 730 27 c 0,9,10
 740 75 740 75 748 118.5 c 128,-1,11
 756 162 756 162 761 201 c 1,12,-1
 759 201 l 1,13,14
 696 112 696 112 649 73 c 0,15,16
 601 34 601 34 541.5 13 c 128,-1,17
 482 -8 482 -8 405 -8 c 0,18,19
 250 -8 250 -8 157.5 92 c 128,-1,20
 65 192 65 192 65 356 c 0,21,22
 65 423 65 423 72 488.5 c 128,-1,23
 79 554 79 554 93.5 617.5 c 128,-1,24
 108 681 108 681 129 742 c 0,25,26
 192 927 192 927 303.5 1014 c 128,-1,27
 415 1101 415 1101 586 1101 c 0,28,29
 704 1101 704 1101 789 1045 c 128,-1,30
 874 989 874 989 901 893 c 1,31,-1
 903 893 l 1,32,33
 907 913 907 913 917 956 c 128,-1,34
 927 999 927 999 937.5 1038 c 128,-1,35
 948 1077 948 1077 951 1082 c 1,36,-1
 1216 1082 l 1,37,-1
 1197 999 l 1,38,-1
 1167 853 l 1,39,-1
 1002 10 l 2,40,41
 955 -223 955 -223 820 -324 c 128,-1,42
 685 -425 685 -425 431 -425 c 0,0,1
359 396 m 0,43,44
 359 197 359 197 532 197 c 0,45,46
 621 197 621 197 694 264 c 256,47,48
 767 331 767 331 806.5 446.5 c 128,-1,49
 846 562 846 562 846 686 c 0,50,51
 846 790 846 790 794 849.5 c 128,-1,52
 742 909 742 909 648 909 c 0,53,54
 572 909 572 909 523 877 c 128,-1,55
 474 845 474 845 439 774 c 0,56,57
 416 726 416 726 398 655.5 c 128,-1,58
 380 585 380 585 369.5 515 c 128,-1,59
 359 445 359 445 359 396 c 0,43,44
EndSplineSet
EndChar

StartChar: h
Encoding: 104 104 75
Width: 1251
GlyphClass: 2
Flags: W
LayerCount: 2
Fore
SplineSet
486 897 m 1,0,1
 561 1001 561 1001 651.5 1051 c 128,-1,2
 742 1101 742 1101 859 1101 c 0,3,4
 1011 1101 1011 1101 1088 1028 c 128,-1,5
 1165 955 1165 955 1165 817 c 0,6,7
 1165 792 1165 792 1158 737.5 c 128,-1,8
 1151 683 1151 683 1144 653 c 2,9,-1
 1017 0 l 1,10,-1
 738 0 l 1,11,-1
 856 595 l 2,12,13
 882 722 882 722 882 760 c 0,14,15
 882 889 882 889 730 889 c 0,16,17
 663 889 663 889 600.5 851.5 c 128,-1,18
 538 814 538 814 494 750 c 128,-1,19
 450 686 450 686 435 606 c 2,20,-1
 317 0 l 1,21,-1
 35 0 l 1,22,-1
 321 1484 l 1,23,-1
 601 1484 l 1,24,-1
 522 1079 l 2,25,26
 513 1033 513 1033 503 988 c 128,-1,27
 493 943 493 943 483 897 c 1,28,-1
 486 897 l 1,0,1
EndSplineSet
EndChar

StartChar: i
Encoding: 105 105 76
Width: 569
GlyphClass: 2
Flags: W
LayerCount: 2
Fore
SplineSet
604 1484 m 1,0,-1
 563 1277 l 1,1,-1
 282 1277 l 1,2,-1
 323 1484 l 1,3,-1
 604 1484 l 1,0,-1
526 1082 m 1,4,-1
 315 0 l 1,5,-1
 35 0 l 1,6,-1
 245 1082 l 1,7,-1
 526 1082 l 1,4,-1
EndSplineSet
Substitution2: "Single Substitution lookup 11 subtable" dotlessi
EndChar

StartChar: j
Encoding: 106 106 77
Width: 569
GlyphClass: 2
Flags: W
LayerCount: 2
Fore
SplineSet
604 1484 m 1,0,-1
 564 1277 l 1,1,-1
 283 1277 l 1,2,-1
 323 1484 l 1,3,-1
 604 1484 l 1,0,-1
-54 -425 m 0,4,5
 -151 -425 -151 -425 -220 -406 c 1,6,-1
 -184 -218 l 1,7,8
 -170 -219 -170 -219 -155 -220.5 c 128,-1,9
 -140 -222 -140 -222 -126 -222 c 0,10,11
 -59 -222 -59 -222 -27.5 -187.5 c 128,-1,12
 4 -153 4 -153 22 -60 c 2,13,-1
 245 1082 l 1,14,-1
 526 1082 l 1,15,-1
 290 -128 l 2,16,17
 261 -272 261 -272 173.5 -348.5 c 128,-1,18
 86 -425 86 -425 -54 -425 c 0,4,5
EndSplineSet
Substitution2: "Single Substitution lookup 11 subtable" uni0237
EndChar

StartChar: k
Encoding: 107 107 78
Width: 1139
GlyphClass: 2
Flags: W
LayerCount: 2
Fore
SplineSet
400 422 m 1,0,-1
 315 0 l 1,1,-1
 35 0 l 1,2,-1
 323 1484 l 1,3,-1
 604 1484 l 1,4,-1
 437 634 l 1,5,-1
 597 788 l 1,6,-1
 902 1082 l 1,7,-1
 1224 1082 l 1,8,-1
 751 660 l 1,9,-1
 1026 0 l 1,10,-1
 728 0 l 1,11,-1
 540 497 l 1,12,-1
 400 422 l 1,0,-1
EndSplineSet
EndChar

StartChar: l
Encoding: 108 108 79
Width: 569
GlyphClass: 2
Flags: W
LayerCount: 2
Fore
SplineSet
604 1484 m 1,0,-1
 315 0 l 1,1,-1
 35 0 l 1,2,-1
 323 1484 l 1,3,-1
 604 1484 l 1,0,-1
EndSplineSet
EndChar

StartChar: m
Encoding: 109 109 80
Width: 1821
GlyphClass: 2
Flags: W
LayerCount: 2
Fore
SplineSet
673 0 m 1,0,-1
 796 635 l 2,1,2
 813 729 813 729 813 771 c 0,3,4
 813 832 813 832 781.5 862 c 128,-1,5
 750 892 750 892 687 892 c 0,6,7
 599 892 599 892 530.5 816.5 c 128,-1,8
 462 741 462 741 435 604 c 2,9,-1
 317 0 l 1,10,-1
 35 0 l 1,11,-1
 201 851 l 2,12,13
 221 946 221 946 240 1082 c 1,14,-1
 512 1082 l 1,15,16
 512 1075 512 1075 507 1040.5 c 128,-1,17
 502 1006 502 1006 495.5 965.5 c 128,-1,18
 489 925 489 925 484 897 c 1,19,-1
 487 897 l 1,20,21
 564 1013 564 1013 638.5 1057 c 128,-1,22
 713 1101 713 1101 815 1101 c 0,23,24
 1068 1101 1068 1101 1097 869 c 1,25,26
 1177 994 1177 994 1259.5 1047.5 c 128,-1,27
 1342 1101 1342 1101 1451 1101 c 0,28,29
 1589 1101 1589 1101 1662.5 1028 c 128,-1,30
 1736 955 1736 955 1736 817 c 0,31,32
 1736 754 1736 754 1715 653 c 2,33,-1
 1587 0 l 1,34,-1
 1308 0 l 1,35,-1
 1430 627 l 2,36,37
 1448 717 1448 717 1448 771 c 0,38,39
 1447 832 1447 832 1415.5 862 c 128,-1,40
 1384 892 1384 892 1322 892 c 0,41,42
 1231 892 1231 892 1164 815 c 128,-1,43
 1097 738 1097 738 1071 607 c 2,44,-1
 952 0 l 1,45,-1
 673 0 l 1,0,-1
EndSplineSet
EndChar

StartChar: n
Encoding: 110 110 81
Width: 1251
GlyphClass: 2
Flags: W
LayerCount: 2
Fore
SplineSet
435 606 m 2,0,-1
 317 0 l 1,1,-1
 35 0 l 1,2,-1
 201 851 l 2,3,4
 209 891 209 891 218.5 948.5 c 128,-1,5
 228 1006 228 1006 239 1082 c 1,6,-1
 507 1082 l 1,7,8
 507 1076 507 1076 502.5 1037.5 c 128,-1,9
 498 999 498 999 492.5 957 c 128,-1,10
 487 915 487 915 483 897 c 1,11,-1
 486 897 l 1,12,13
 561 1001 561 1001 651.5 1051 c 128,-1,14
 742 1101 742 1101 859 1101 c 0,15,16
 1011 1101 1011 1101 1088 1028 c 128,-1,17
 1165 955 1165 955 1165 817 c 0,18,19
 1165 792 1165 792 1158 737.5 c 128,-1,20
 1151 683 1151 683 1144 653 c 2,21,-1
 1017 0 l 1,22,-1
 738 0 l 1,23,-1
 856 595 l 2,24,25
 882 722 882 722 882 760 c 0,26,27
 882 889 882 889 730 889 c 0,28,29
 663 889 663 889 600.5 851.5 c 128,-1,30
 538 814 538 814 494 750 c 128,-1,31
 450 686 450 686 435 606 c 2,0,-1
EndSplineSet
EndChar

StartChar: o
Encoding: 111 111 82
Width: 1251
GlyphClass: 2
Flags: W
LayerCount: 2
Fore
SplineSet
1185 683 m 0,0,1
 1185 580 1185 580 1165 487.5 c 128,-1,2
 1145 395 1145 395 1104 315 c 0,3,4
 1022 154 1022 154 872.5 67 c 128,-1,5
 723 -20 723 -20 535 -20 c 0,6,7
 317 -20 317 -20 190 97.5 c 128,-1,8
 63 215 63 215 63 419 c 0,9,10
 63 620 63 620 143 775 c 256,11,12
 223 930 223 930 369.5 1015.5 c 128,-1,13
 516 1101 516 1101 704 1101 c 0,14,15
 939 1101 939 1101 1062 991.5 c 128,-1,16
 1185 882 1185 882 1185 683 c 0,0,1
891 662 m 1,17,18
 891 909 891 909 683 909 c 0,19,20
 570 909 570 909 502 849 c 0,21,22
 457 809 457 809 424.5 739.5 c 128,-1,23
 392 670 392 670 375 588.5 c 128,-1,24
 358 507 358 507 358 431 c 0,25,26
 358 301 358 301 410 236.5 c 128,-1,27
 462 172 462 172 566 172 c 0,28,29
 622 172 622 172 666.5 186.5 c 128,-1,30
 711 201 711 201 744 229 c 0,31,32
 809 285 809 285 846.5 400 c 128,-1,33
 884 515 884 515 891 662 c 1,17,18
EndSplineSet
EndChar

StartChar: p
Encoding: 112 112 83
Width: 1251
GlyphClass: 2
Flags: W
LayerCount: 2
Fore
SplineSet
662 -20 m 0,0,1
 537 -20 537 -20 459 32 c 128,-1,2
 381 84 381 84 349 178 c 1,3,-1
 347 178 l 1,4,5
 343 147 343 147 335.5 100 c 128,-1,6
 328 53 328 53 315 -10 c 0,7,8
 295 -113 295 -113 275 -217 c 128,-1,9
 255 -321 255 -321 235 -425 c 1,10,-1
 -45 -425 l 1,11,-1
 198 833 l 2,12,13
 203 861 203 861 208.5 888 c 128,-1,14
 214 915 214 915 218 943 c 0,15,16
 223 978 223 978 228 1013 c 128,-1,17
 233 1048 233 1048 237 1082 c 1,18,-1
 512 1082 l 1,19,20
 512 1073 512 1073 508.5 1039 c 128,-1,21
 505 1005 505 1005 500 968.5 c 128,-1,22
 495 932 495 932 489 913 c 1,23,-1
 493 913 l 1,24,25
 565 1013 565 1013 647.5 1057.5 c 128,-1,26
 730 1102 730 1102 848 1102 c 0,27,28
 1007 1102 1007 1102 1096 1007.5 c 128,-1,29
 1185 913 1185 913 1185 748 c 0,30,31
 1185 547 1185 547 1123 355 c 256,32,33
 1061 163 1061 163 948.5 71.5 c 128,-1,34
 836 -20 836 -20 662 -20 c 0,0,1
728 907 m 0,35,36
 602 907 602 907 526.5 819 c 128,-1,37
 451 731 451 731 417 554 c 0,38,39
 412 523 412 523 408 495.5 c 128,-1,40
 404 468 404 468 402 444.5 c 128,-1,41
 400 421 400 421 400 401 c 0,42,43
 400 294 400 294 453 233.5 c 128,-1,44
 506 173 506 173 601 173 c 0,45,46
 704 173 704 173 762 237 c 0,47,48
 792 269 792 269 815.5 323.5 c 128,-1,49
 839 378 839 378 855.5 443 c 128,-1,50
 872 508 872 508 880.5 574 c 128,-1,51
 889 640 889 640 889 694 c 0,52,53
 889 800 889 800 850.5 853.5 c 128,-1,54
 812 907 812 907 728 907 c 0,35,36
EndSplineSet
EndChar

StartChar: q
Encoding: 113 113 84
Width: 1251
GlyphClass: 2
Flags: W
LayerCount: 2
Fore
SplineSet
394 -21 m 0,0,1
 242 -21 242 -21 150.5 77 c 128,-1,2
 59 175 59 175 59 348 c 0,3,4
 59 545 59 545 123 727 c 0,5,6
 187 910 187 910 303 1006 c 128,-1,7
 419 1102 419 1102 580 1102 c 0,8,9
 710 1102 710 1102 781 1056.5 c 128,-1,10
 852 1011 852 1011 893 903 c 1,11,-1
 898 903 l 1,12,13
 907 944 907 944 914.5 977.5 c 128,-1,14
 922 1011 922 1011 930 1037.5 c 128,-1,15
 938 1064 938 1064 945 1082 c 1,16,-1
 1215 1082 l 1,17,18
 1211 1069 1211 1069 1203.5 1035.5 c 128,-1,19
 1196 1002 1196 1002 1185 949 c 256,20,21
 1174 896 1174 896 1107 552.5 c 128,-1,22
 1040 209 1040 209 918 -425 c 1,23,-1
 637 -425 l 1,24,-1
 722 7 l 1,25,-1
 758 163 l 1,26,-1
 754 163 l 1,27,28
 679 65 679 65 594.5 22 c 128,-1,29
 510 -21 510 -21 394 -21 c 0,0,1
518 172 m 0,30,31
 645 172 645 172 720 260.5 c 128,-1,32
 795 349 795 349 827 527 c 0,33,34
 833 557 833 557 836.5 583.5 c 128,-1,35
 840 610 840 610 841.5 634.5 c 128,-1,36
 843 659 843 659 843 680 c 0,37,38
 843 795 843 795 799.5 852.5 c 128,-1,39
 756 910 756 910 669 910 c 0,40,41
 558 910 558 910 493 846 c 0,42,43
 449 803 449 803 418.5 725.5 c 128,-1,44
 388 648 388 648 372 558 c 128,-1,45
 356 468 356 468 356 386 c 0,46,47
 356 282 356 282 396.5 227 c 128,-1,48
 437 172 437 172 518 172 c 0,30,31
EndSplineSet
EndChar

StartChar: r
Encoding: 114 114 85
Width: 797
GlyphClass: 2
Flags: W
LayerCount: 2
Fore
SplineSet
844 853 m 1,0,1
 775 868 775 868 730 868 c 0,2,3
 648 868 648 868 586.5 829.5 c 128,-1,4
 525 791 525 791 483 712.5 c 128,-1,5
 441 634 441 634 417 514 c 2,6,-1
 316 0 l 1,7,-1
 35 0 l 1,8,-1
 196 830 l 2,9,10
 202 859 202 859 207.5 888 c 128,-1,11
 213 917 213 917 217 947 c 0,12,13
 223 980 223 980 228.5 1014 c 128,-1,14
 234 1048 234 1048 238 1082 c 1,15,-1
 506 1082 l 1,16,-1
 484 910 l 1,17,-1
 476 861 l 1,18,-1
 480 861 l 1,19,20
 553 995 553 995 624 1048.5 c 128,-1,21
 695 1102 695 1102 787 1102 c 0,22,23
 832 1102 832 1102 890 1088 c 1,24,-1
 844 853 l 1,0,1
EndSplineSet
EndChar

StartChar: s
Encoding: 115 115 86
Width: 1139
GlyphClass: 2
Flags: W
LayerCount: 2
Fore
SplineSet
1000 334 m 0,0,1
 1000 160 1000 160 871.5 70 c 128,-1,2
 743 -20 743 -20 497 -20 c 0,3,4
 296 -20 296 -20 180 51 c 128,-1,5
 64 122 64 122 23 271 c 1,6,-1
 274 307 l 1,7,8
 295 232 295 232 351 199 c 128,-1,9
 407 166 407 166 517 166 c 0,10,11
 739 166 739 166 739 302 c 0,12,13
 739 353 739 353 698 382 c 0,14,15
 656 409 656 409 515 439 c 0,16,17
 395 466 395 466 318 506 c 0,18,19
 230 552 230 552 191.5 616.5 c 128,-1,20
 153 681 153 681 153 769 c 0,21,22
 153 929 153 929 278.5 1014 c 128,-1,23
 404 1099 404 1099 637 1099 c 0,24,25
 843 1099 843 1099 944 1028.5 c 128,-1,26
 1045 958 1045 958 1069 811 c 1,27,-1
 818 782 l 1,28,29
 801 851 801 851 752 882 c 128,-1,30
 703 913 703 913 618 913 c 0,31,32
 515 913 515 913 464 883 c 128,-1,33
 413 853 413 853 413 793 c 0,34,35
 413 760 413 760 433 738 c 128,-1,36
 453 716 453 716 490 700 c 0,37,38
 526 684 526 684 668 651 c 0,39,40
 804 620 804 620 880 570 c 0,41,42
 944 528 944 528 972 469.5 c 128,-1,43
 1000 411 1000 411 1000 334 c 0,0,1
EndSplineSet
EndChar

StartChar: t
Encoding: 116 116 87
Width: 682
GlyphClass: 2
Flags: W
LayerCount: 2
Fore
SplineSet
376 -16 m 0,0,1
 252 -16 252 -16 184 42.5 c 128,-1,2
 116 101 116 101 116 209 c 0,3,4
 116 283 116 283 132 366 c 2,5,-1
 234 892 l 1,6,-1
 86 892 l 1,7,-1
 123 1082 l 1,8,-1
 285 1082 l 1,9,-1
 422 1336 l 1,10,-1
 598 1336 l 1,11,-1
 550 1082 l 1,12,-1
 752 1082 l 1,13,-1
 717 892 l 1,14,-1
 512 892 l 1,15,-1
 408 357 l 2,16,17
 397 299 397 299 397 268 c 0,18,19
 397 222 397 222 420.5 199.5 c 128,-1,20
 444 177 444 177 484 177 c 0,21,22
 518 177 518 177 592 190 c 1,23,-1
 560 8 l 1,24,25
 479 -16 479 -16 376 -16 c 0,0,1
EndSplineSet
EndChar

StartChar: u
Encoding: 117 117 88
Width: 1251
GlyphClass: 2
Flags: W
LayerCount: 2
Fore
SplineSet
764 185 m 1,0,1
 688 78 688 78 597.5 29.5 c 128,-1,2
 507 -19 507 -19 391 -19 c 0,3,4
 239 -19 239 -19 162 54 c 128,-1,5
 85 127 85 127 85 265 c 0,6,7
 85 282 85 282 88.5 313.5 c 128,-1,8
 92 345 92 345 97 378 c 128,-1,9
 102 411 102 411 106 429 c 2,10,-1
 233 1082 l 1,11,-1
 512 1082 l 1,12,-1
 394 487 l 2,13,14
 368 362 368 362 368 322 c 0,15,16
 368 193 368 193 520 193 c 0,17,18
 588 193 588 193 649.5 230 c 128,-1,19
 711 267 711 267 755.5 331.5 c 128,-1,20
 800 396 800 396 815 476 c 2,21,-1
 933 1082 l 1,22,-1
 1215 1082 l 1,23,-1
 1049 231 l 2,24,25
 1041 191 1041 191 1031.5 133.5 c 128,-1,26
 1022 76 1022 76 1011 0 c 1,27,-1
 743 0 l 1,28,29
 743 6 743 6 747.5 44.5 c 128,-1,30
 752 83 752 83 758 125.5 c 128,-1,31
 764 168 764 168 767 185 c 1,32,-1
 764 185 l 1,0,1
EndSplineSet
EndChar

StartChar: v
Encoding: 118 118 89
Width: 1139
GlyphClass: 2
Flags: W
LayerCount: 2
Fore
SplineSet
1232 1082 m 1,0,-1
 622 0 l 1,1,-1
 286 0 l 1,2,-1
 110 1082 l 1,3,-1
 399 1082 l 1,4,-1
 470 477 l 2,5,6
 472 462 472 462 475.5 423.5 c 128,-1,7
 479 385 479 385 483 340 c 128,-1,8
 487 295 487 295 489 259 c 2,9,-1
 492 208 l 1,10,-1
 514 257 l 2,11,12
 539 315 539 315 564 369 c 128,-1,13
 589 423 589 423 614 474 c 2,14,-1
 930 1082 l 1,15,-1
 1232 1082 l 1,0,-1
EndSplineSet
EndChar

StartChar: w
Encoding: 119 119 90
Width: 1593
GlyphClass: 2
Flags: W
LayerCount: 2
Fore
SplineSet
767 658 m 2,0,-1
 465 0 l 1,1,-1
 168 0 l 1,2,-1
 99 1082 l 1,3,-1
 357 1082 l 1,4,-1
 371 386 l 2,5,6
 372 353 372 353 371.5 320.5 c 128,-1,7
 371 288 371 288 371 255 c 1,8,9
 391 303 391 303 409.5 351 c 128,-1,10
 428 399 428 399 450 446 c 2,11,-1
 744 1082 l 1,12,-1
 1045 1082 l 1,13,-1
 1087 446 l 2,14,15
 1090 398 1090 398 1090.5 350.5 c 128,-1,16
 1091 303 1091 303 1092 255 c 1,17,18
 1106 288 1106 288 1119 321 c 128,-1,19
 1132 354 1132 354 1145 387 c 2,20,-1
 1436 1082 l 1,21,-1
 1702 1082 l 1,22,-1
 1207 0 l 1,23,-1
 910 0 l 1,24,-1
 867 660 l 1,25,-1
 862 890 l 1,26,27
 836 819 836 819 812 761 c 128,-1,28
 788 703 788 703 767 658 c 2,0,-1
EndSplineSet
EndChar

StartChar: x
Encoding: 120 120 91
Width: 1139
GlyphClass: 2
Flags: W
LayerCount: 2
Fore
SplineSet
538 383 m 1,0,-1
 211 0 l 1,1,-1
 -90 0 l 1,2,-1
 418 562 l 1,3,-1
 139 1082 l 1,4,-1
 431 1082 l 1,5,-1
 604 735 l 1,6,-1
 900 1082 l 1,7,-1
 1208 1082 l 1,8,-1
 725 557 l 1,9,-1
 1019 0 l 1,10,-1
 724 0 l 1,11,-1
 538 383 l 1,0,-1
EndSplineSet
EndChar

StartChar: y
Encoding: 121 121 92
Width: 1139
GlyphClass: 2
Flags: W
LayerCount: 2
Fore
SplineSet
88 -425 m 0,0,1
 -8 -425 -8 -425 -85 -407 c 1,2,-1
 -47 -211 l 1,3,4
 -6 -220 -6 -220 40 -220 c 0,5,6
 118 -220 118 -220 177.5 -174 c 128,-1,7
 237 -128 237 -128 296 -24 c 2,8,-1
 324 24 l 1,9,-1
 112 1082 l 1,10,-1
 403 1082 l 1,11,-1
 474 585 l 2,12,13
 478 555 478 555 484 506 c 128,-1,14
 490 457 490 457 495.5 404.5 c 128,-1,15
 501 352 501 352 505 309.5 c 128,-1,16
 509 267 509 267 509 251 c 1,17,18
 514 261 514 261 518 270 c 128,-1,19
 522 279 522 279 526 288 c 2,20,-1
 665 581 l 1,21,-1
 924 1082 l 1,22,-1
 1224 1082 l 1,23,-1
 570 -57 l 1,24,25
 462 -226 462 -226 396 -292 c 0,26,27
 329 -360 329 -360 255 -392.5 c 128,-1,28
 181 -425 181 -425 88 -425 c 0,0,1
EndSplineSet
EndChar

StartChar: z
Encoding: 122 122 93
Width: 1024
GlyphClass: 2
Flags: W
LayerCount: 2
Fore
SplineSet
888 205 m 1,0,-1
 848 0 l 1,1,-1
 -10 0 l 1,2,-1
 28 199 l 1,3,-1
 641 879 l 1,4,-1
 201 879 l 1,5,-1
 241 1082 l 1,6,-1
 1010 1082 l 1,7,-1
 971 881 l 1,8,-1
 361 205 l 1,9,-1
 888 205 l 1,0,-1
EndSplineSet
EndChar

StartChar: braceleft
Encoding: 123 123 94
Width: 797
GlyphClass: 2
Flags: W
LayerCount: 2
Fore
SplineSet
388 -425 m 2,0,1
 269 -425 269 -425 200.5 -364.5 c 128,-1,2
 132 -304 132 -304 132 -202 c 0,3,4
 132 -161 132 -161 143 -101 c 2,5,-1
 204 207 l 2,6,7
 211 239 211 239 211 275 c 0,8,9
 211 352 211 352 163 391.5 c 128,-1,10
 115 431 115 431 19 433 c 1,11,-1
 57 625 l 1,12,13
 288 629 288 629 331 852 c 2,14,-1
 398 1190 l 2,15,16
 427 1336 427 1336 510.5 1410 c 128,-1,17
 594 1484 594 1484 748 1484 c 2,18,-1
 942 1484 l 1,19,-1
 905 1294 l 1,20,-1
 829 1294 l 2,21,22
 747 1294 747 1294 704 1247.5 c 128,-1,23
 661 1201 661 1201 639 1089 c 2,24,-1
 579 779 l 2,25,26
 560 685 560 685 490 618.5 c 128,-1,27
 420 552 420 552 323 532 c 1,28,-1
 322 528 l 1,29,30
 396 509 396 509 440.5 458.5 c 128,-1,31
 485 408 485 408 485 333 c 0,32,33
 485 306 485 306 480 281 c 2,34,-1
 415 -53 l 2,35,36
 411 -74 411 -74 408.5 -93 c 128,-1,37
 406 -112 406 -112 406 -129 c 0,38,39
 406 -182 406 -182 439 -208 c 128,-1,40
 472 -234 472 -234 528 -234 c 2,41,-1
 608 -234 l 1,42,-1
 571 -425 l 1,43,-1
 388 -425 l 2,0,1
EndSplineSet
EndChar

StartChar: bar
Encoding: 124 124 95
Width: 573
GlyphClass: 2
Flags: W
LayerCount: 2
Fore
SplineSet
453 1484 m 1,0,-1
 453 -425 l 1,1,-1
 191 -425 l 1,2,-1
 191 1484 l 1,3,-1
 453 1484 l 1,0,-1
EndSplineSet
EndChar

StartChar: braceright
Encoding: 125 125 96
Width: 797
GlyphClass: 2
Flags: W
LayerCount: 2
Fore
SplineSet
399 1485 m 2,0,1
 518 1485 518 1485 586.5 1424.5 c 128,-1,2
 655 1364 655 1364 655 1262 c 0,3,4
 655 1219 655 1219 644 1161 c 2,5,-1
 583 853 l 2,6,7
 576 822 576 822 576 785 c 0,8,9
 576 708 576 708 622.5 668.5 c 128,-1,10
 669 629 669 629 768 627 c 1,11,-1
 730 435 l 1,12,13
 499 431 499 431 456 207 c 2,14,-1
 389 -130 l 2,15,16
 358 -282 358 -282 273.5 -353.5 c 128,-1,17
 189 -425 189 -425 39 -425 c 2,18,-1
 -155 -425 l 1,19,-1
 -118 -235 l 1,20,-1
 -42 -235 l 2,21,22
 40 -235 40 -235 83 -188.5 c 128,-1,23
 126 -142 126 -142 148 -30 c 2,24,-1
 208 280 l 2,25,26
 227 375 227 375 297 441.5 c 128,-1,27
 367 508 367 508 464 528 c 1,28,-1
 465 531 l 1,29,30
 390 550 390 550 346 601.5 c 128,-1,31
 302 653 302 653 302 727 c 0,32,33
 302 754 302 754 307 779 c 2,34,-1
 372 1112 l 2,35,36
 377 1135 377 1135 379 1154 c 128,-1,37
 381 1173 381 1173 381 1189 c 0,38,39
 381 1242 381 1242 348 1268 c 128,-1,40
 315 1294 315 1294 259 1294 c 2,41,-1
 179 1294 l 1,42,-1
 216 1485 l 1,43,-1
 399 1485 l 2,0,1
EndSplineSet
EndChar

StartChar: asciitilde
Encoding: 126 126 97
Width: 1196
GlyphClass: 2
Flags: W
LayerCount: 2
Fore
SplineSet
889 516 m 0,0,1
 814 516 814 516 741.5 537 c 128,-1,2
 669 558 669 558 594 584 c 0,3,4
 458 631 458 631 373 631 c 0,5,6
 302 631 302 631 242.5 609.5 c 128,-1,7
 183 588 183 588 118 543 c 1,8,-1
 118 756 l 1,9,10
 231 840 231 840 389 840 c 0,11,12
 469 840 469 840 545.5 818 c 128,-1,13
 622 796 622 796 696 770 c 0,14,15
 741 755 741 755 779 744.5 c 128,-1,16
 817 734 817 734 849.5 728.5 c 128,-1,17
 882 723 882 723 908 723 c 0,18,19
 1041 723 1041 723 1156 815 c 1,20,-1
 1156 596 l 1,21,22
 1092 552 1092 552 1033.5 534 c 128,-1,23
 975 516 975 516 889 516 c 0,0,1
EndSplineSet
EndChar

StartChar: exclamdown
Encoding: 161 161 99
Width: 682
GlyphClass: 2
Flags: W
LayerCount: 2
Fore
SplineSet
588 1082 m 1,0,-1
 535 812 l 1,1,-1
 247 812 l 1,2,-1
 300 1082 l 1,3,-1
 588 1082 l 1,0,-1
242 654 m 1,4,-1
 472 654 l 1,5,-1
 314 -327 l 1,6,-1
 20 -327 l 1,7,-1
 242 654 l 1,4,-1
EndSplineSet
EndChar

StartChar: cent
Encoding: 162 162 100
Width: 1139
GlyphClass: 2
Flags: W
LayerCount: 2
Fore
SplineSet
549 328 m 0,0,1
 632 328 632 328 686 380.5 c 128,-1,2
 740 433 740 433 772 536 c 1,3,-1
 1043 486 l 1,4,5
 991 317 991 317 875.5 232 c 128,-1,6
 760 147 760 147 584 136 c 1,7,-1
 552 -31 l 1,8,-1
 390 -31 l 1,9,-1
 422 143 l 1,10,11
 257 169 257 169 166.5 277 c 128,-1,12
 76 385 76 385 76 560 c 0,13,14
 76 666 76 666 94 739 c 0,15,16
 120 852 120 852 163 941 c 128,-1,17
 206 1030 206 1030 266 1094 c 0,18,19
 335 1168 335 1168 427.5 1208.5 c 128,-1,20
 520 1249 520 1249 638 1255 c 1,21,-1
 669 1409 l 1,22,-1
 831 1409 l 1,23,-1
 799 1248 l 1,24,25
 941 1225 941 1225 1026 1132 c 128,-1,26
 1111 1039 1111 1039 1122 896 c 1,27,-1
 838 873 l 1,28,29
 833 968 833 968 791 1016 c 128,-1,30
 749 1064 749 1064 671 1064 c 0,31,32
 564 1064 564 1064 504 991 c 0,33,34
 472 952 472 952 444.5 888.5 c 128,-1,35
 417 825 417 825 394 730 c 0,36,37
 381 673 381 673 376 630.5 c 128,-1,38
 371 588 371 588 371 562 c 0,39,40
 371 328 371 328 549 328 c 0,0,1
EndSplineSet
EndChar

StartChar: sterling
Encoding: 163 163 101
Width: 1139
GlyphClass: 2
Flags: W
LayerCount: 2
Fore
SplineSet
977 0 m 1,0,-1
 -51 0 l 1,1,-1
 -12 205 l 1,2,3
 82 243 82 243 139 309.5 c 128,-1,4
 196 376 196 376 217 481 c 2,5,-1
 242 604 l 1,6,-1
 55 604 l 1,7,-1
 87 774 l 1,8,-1
 265 774 l 1,9,-1
 316 1034 l 2,10,11
 355 1241 355 1241 465 1335.5 c 128,-1,12
 575 1430 575 1430 772 1430 c 0,13,14
 948 1430 948 1430 1052.5 1350.5 c 128,-1,15
 1157 1271 1157 1271 1174 1130 c 1,16,-1
 929 1082 l 1,17,18
 914 1166 914 1166 872.5 1202.5 c 128,-1,19
 831 1239 831 1239 760 1239 c 0,20,21
 682 1239 682 1239 640 1193 c 128,-1,22
 598 1147 598 1147 578 1042 c 2,23,-1
 525 774 l 1,24,-1
 811 774 l 1,25,-1
 778 604 l 1,26,-1
 492 604 l 1,27,-1
 465 478 l 2,28,29
 444 381 444 381 386 314 c 128,-1,30
 328 247 328 247 233 210 c 1,31,-1
 1015 210 l 1,32,-1
 977 0 l 1,0,-1
EndSplineSet
EndChar

StartChar: currency
Encoding: 164 164 102
Width: 1139
Flags: W
LayerCount: 2
Fore
SplineSet
149 684 m 256,0,1
 149 805 149 805 209 905 c 1,2,-1
 76 1038 l 1,3,-1
 233 1194 l 1,4,-1
 364 1061 l 1,5,6
 465 1120 465 1120 584 1120 c 0,7,8
 705 1120 705 1120 803 1061 c 1,9,-1
 938 1196 l 1,10,-1
 1096 1038 l 1,11,-1
 960 903 l 1,12,13
 1020 804 1020 804 1020 684 c 0,14,15
 1020 565 1020 565 962 467 c 1,16,-1
 1096 334 l 1,17,-1
 938 174 l 1,18,-1
 805 309 l 1,19,20
 704 250 704 250 584 250 c 0,21,22
 462 250 462 250 364 307 c 1,23,-1
 229 170 l 1,24,-1
 72 328 l 1,25,-1
 207 465 l 1,26,27
 149 563 149 563 149 684 c 256,0,1
375 686 m 0,28,29
 375 629 375 629 403 581.5 c 128,-1,30
 431 534 431 534 478.5 505.5 c 128,-1,31
 526 477 526 477 584 477 c 0,32,33
 641 477 641 477 688 505.5 c 128,-1,34
 735 534 735 534 763.5 582 c 128,-1,35
 792 630 792 630 792 686 c 0,36,37
 792 744 792 744 764 791 c 128,-1,38
 736 838 736 838 689 866.5 c 128,-1,39
 642 895 642 895 584 895 c 0,40,41
 527 895 527 895 479.5 867 c 128,-1,42
 432 839 432 839 403.5 791.5 c 128,-1,43
 375 744 375 744 375 686 c 0,28,29
EndSplineSet
EndChar

StartChar: yen
Encoding: 165 165 103
Width: 1139
GlyphClass: 2
Flags: W
LayerCount: 2
Fore
SplineSet
647 236 m 1,0,-1
 601 0 l 1,1,-1
 329 0 l 1,2,-1
 375 236 l 1,3,-1
 39 236 l 1,4,-1
 67 383 l 1,5,-1
 404 383 l 1,6,-1
 436 545 l 1,7,-1
 99 545 l 1,8,-1
 127 691 l 1,9,-1
 403 691 l 1,10,-1
 179 1409 l 1,11,-1
 463 1409 l 1,12,-1
 617 813 l 1,13,-1
 1007 1409 l 1,14,-1
 1301 1409 l 1,15,-1
 797 691 l 1,16,-1
 1073 691 l 1,17,-1
 1045 545 l 1,18,-1
 707 545 l 1,19,-1
 675 383 l 1,20,-1
 1013 383 l 1,21,-1
 985 236 l 1,22,-1
 647 236 l 1,0,-1
EndSplineSet
EndChar

StartChar: brokenbar
Encoding: 166 166 104
Width: 573
Flags: W
LayerCount: 2
Fore
SplineSet
454 1484 m 1,0,-1
 454 736 l 1,1,-1
 192 736 l 1,2,-1
 192 1484 l 1,3,-1
 454 1484 l 1,0,-1
454 324 m 1,4,-1
 454 -425 l 1,5,-1
 192 -425 l 1,6,-1
 192 324 l 1,7,-1
 454 324 l 1,4,-1
EndSplineSet
EndChar

StartChar: section
Encoding: 167 167 105
Width: 1139
GlyphClass: 2
Flags: W
LayerCount: 2
Fore
SplineSet
1079 668 m 0,0,1
 1079 556 1079 556 1021 483 c 128,-1,2
 963 410 963 410 830 368 c 1,3,4
 962 294 962 294 962 142 c 0,5,6
 962 -40 962 -40 823.5 -134.5 c 128,-1,7
 685 -229 685 -229 425 -229 c 0,8,9
 205 -229 205 -229 91 -159.5 c 128,-1,10
 -23 -90 -23 -90 -42 59 c 1,11,-1
 202 96 l 1,12,13
 216 13 216 13 274 -23 c 128,-1,14
 332 -59 332 -59 438 -59 c 0,15,16
 574 -59 574 -59 645 -19 c 128,-1,17
 716 21 716 21 716 95 c 0,18,19
 716 143 716 143 691 174 c 128,-1,20
 666 205 666 205 619 226 c 0,21,22
 573 247 573 247 416 283 c 0,23,24
 95 354 95 354 95 585 c 0,25,26
 95 794 95 794 366 861 c 1,27,28
 221 940 221 940 221 1100 c 0,29,30
 221 1265 221 1265 344 1346 c 128,-1,31
 467 1427 467 1427 718 1427 c 0,32,33
 922 1427 922 1427 1031.5 1357 c 128,-1,34
 1141 1287 1141 1287 1148 1153 c 1,35,-1
 904 1128 l 1,36,37
 892 1196 892 1196 836 1226.5 c 128,-1,38
 780 1257 780 1257 697 1257 c 0,39,40
 469 1257 469 1257 469 1124 c 0,41,42
 469 1087 469 1087 495 1058 c 0,43,44
 525 1025 525 1025 580 1004.5 c 128,-1,45
 635 984 635 984 722 963 c 0,46,47
 901 922 901 922 990 848.5 c 128,-1,48
 1079 775 1079 775 1079 668 c 0,0,1
346 626 m 0,49,50
 346 584 346 584 371 554.5 c 128,-1,51
 396 525 396 525 439 504 c 0,52,53
 480 483 480 483 600 454 c 1,54,55
 711 463 711 463 770.5 499.5 c 128,-1,56
 830 536 830 536 830 598 c 0,57,58
 830 633 830 633 816.5 660 c 128,-1,59
 803 687 803 687 776 707 c 0,60,61
 721 745 721 745 571 780 c 1,62,63
 468 774 468 774 407 735 c 128,-1,64
 346 696 346 696 346 626 c 0,49,50
EndSplineSet
EndChar

StartChar: dieresis
Encoding: 168 168 106
Width: 682
GlyphClass: 2
Flags: W
LayerCount: 2
Fore
SplineSet
828 1418 m 1,0,-1
 785 1199 l 1,1,-1
 568 1199 l 1,2,-1
 611 1418 l 1,3,-1
 828 1418 l 1,0,-1
391 1418 m 1,4,-1
 348 1199 l 1,5,-1
 135 1199 l 1,6,-1
 177 1418 l 1,7,-1
 391 1418 l 1,4,-1
EndSplineSet
EndChar

StartChar: copyright
Encoding: 169 169 107
Width: 1509
GlyphClass: 2
Flags: W
LayerCount: 2
Fore
SplineSet
1508 707 m 0,0,1
 1508 514 1508 514 1412 346 c 0,2,3
 1315 177 1315 177 1146.5 80.5 c 128,-1,4
 978 -16 978 -16 785 -16 c 0,5,6
 589 -16 589 -16 419 85 c 0,7,8
 250 186 250 186 156 352 c 128,-1,9
 62 518 62 518 62 707 c 0,10,11
 62 901 62 901 159 1068 c 0,12,13
 256 1236 256 1236 424 1333 c 128,-1,14
 592 1430 592 1430 785 1430 c 0,15,16
 979 1430 979 1430 1148 1333 c 0,17,18
 1316 1236 1316 1236 1412 1068.5 c 128,-1,19
 1508 901 1508 901 1508 707 c 0,0,1
1396 707 m 0,20,21
 1396 871 1396 871 1314 1011 c 256,22,23
 1232 1151 1232 1151 1090 1233 c 128,-1,24
 948 1315 948 1315 785 1315 c 0,25,26
 628 1315 628 1315 488 1237 c 256,27,28
 348 1159 348 1159 262.5 1017.5 c 128,-1,29
 177 876 177 876 177 707 c 0,30,31
 177 544 177 544 259 402 c 0,32,33
 340 260 340 260 480.5 178 c 128,-1,34
 621 96 621 96 785 96 c 256,35,36
 949 96 949 96 1091 178 c 256,37,38
 1233 260 1233 260 1314.5 402 c 128,-1,39
 1396 544 1396 544 1396 707 c 0,20,21
798 285 m 0,40,41
 605 285 605 285 499.5 396 c 128,-1,42
 394 507 394 507 394 709 c 0,43,44
 394 912 394 912 496 1018 c 128,-1,45
 598 1124 598 1124 789 1124 c 0,46,47
 1048 1124 1048 1124 1142 895 c 1,48,-1
 986 854 l 1,49,50
 960 915 960 915 911.5 949 c 128,-1,51
 863 983 863 983 794 983 c 0,52,53
 685 983 685 983 629.5 913 c 128,-1,54
 574 843 574 843 574 709 c 0,55,56
 574 574 574 574 633 500 c 128,-1,57
 692 426 692 426 798 426 c 0,58,59
 936 426 936 426 994 569 c 1,60,-1
 1154 522 l 1,61,62
 1096 397 1096 397 1009 341 c 128,-1,63
 922 285 922 285 798 285 c 0,40,41
EndSplineSet
EndChar

StartChar: ordfeminine
Encoding: 170 170 108
Width: 758
GlyphClass: 2
Flags: W
LayerCount: 2
Fore
SplineSet
679 697 m 0,0,1
 613 697 613 697 577.5 723 c 128,-1,2
 542 749 542 749 542 795 c 2,3,-1
 545 836 l 1,4,-1
 542 836 l 1,5,6
 486 749 486 749 433 719 c 128,-1,7
 380 689 380 689 304 689 c 0,8,9
 215 689 215 689 159.5 743 c 128,-1,10
 104 797 104 797 104 884 c 0,11,12
 104 1001 104 1001 187 1063 c 128,-1,13
 270 1125 270 1125 457 1128 c 2,14,-1
 580 1130 l 1,15,16
 594 1200 594 1200 594 1217 c 0,17,18
 594 1299 594 1299 512 1299 c 0,19,20
 452 1299 452 1299 422 1276 c 128,-1,21
 392 1253 392 1253 380 1208 c 1,22,-1
 209 1227 l 1,23,24
 229 1315 229 1315 303 1366.5 c 128,-1,25
 377 1418 377 1418 515 1418 c 0,26,27
 650 1418 650 1418 712.5 1371.5 c 128,-1,28
 775 1325 775 1325 775 1227 c 0,29,30
 775 1210 775 1210 771.5 1189.5 c 128,-1,31
 768 1169 768 1169 763 1148 c 2,32,-1
 712 895 l 2,33,34
 711 883 711 883 710 871.5 c 128,-1,35
 709 860 709 860 707 848 c 0,36,37
 707 805 707 805 759 805 c 0,38,39
 776 805 776 805 800 811 c 1,40,-1
 790 709 l 1,41,42
 756 697 756 697 679 697 c 0,0,1
298 914 m 0,43,44
 298 863 298 863 323.5 839.5 c 128,-1,45
 349 816 349 816 387 816 c 0,46,47
 422 816 422 816 453.5 834.5 c 128,-1,48
 485 853 485 853 509 887.5 c 128,-1,49
 533 922 533 922 545 969 c 2,50,-1
 561 1029 l 1,51,-1
 463 1027 l 2,52,53
 386 1025 386 1025 342 996.5 c 128,-1,54
 298 968 298 968 298 914 c 0,43,44
EndSplineSet
EndChar

StartChar: guillemotleft
Encoding: 171 171 109
Width: 1139
GlyphClass: 2
Flags: W
LayerCount: 2
Fore
SplineSet
959 178 m 1,0,-1
 954 139 l 1,1,-1
 722 139 l 1,2,-1
 530 500 l 1,3,-1
 544 571 l 1,4,-1
 867 938 l 1,5,-1
 1106 938 l 1,6,-1
 1100 897 l 1,7,-1
 771 531 l 1,8,-1
 959 178 l 1,0,-1
501 178 m 1,9,-1
 496 139 l 1,10,-1
 264 139 l 1,11,-1
 72 500 l 1,12,-1
 86 571 l 1,13,-1
 409 938 l 1,14,-1
 648 938 l 1,15,-1
 642 897 l 1,16,-1
 313 531 l 1,17,-1
 501 178 l 1,9,-1
EndSplineSet
EndChar

StartChar: logicalnot
Encoding: 172 172 110
Width: 1196
GlyphClass: 2
Flags: W
LayerCount: 2
Fore
SplineSet
1102 793 m 1,0,-1
 1102 141 l 1,1,-1
 878 141 l 1,2,-1
 878 569 l 1,3,-1
 75 569 l 1,4,-1
 75 793 l 1,5,-1
 1102 793 l 1,0,-1
EndSplineSet
EndChar

StartChar: registered
Encoding: 174 174 111
Width: 1509
GlyphClass: 2
Flags: W
LayerCount: 2
Fore
SplineSet
1508 707 m 0,0,1
 1508 514 1508 514 1412 346 c 0,2,3
 1315 177 1315 177 1146.5 80.5 c 128,-1,4
 978 -16 978 -16 785 -16 c 0,5,6
 589 -16 589 -16 419 85 c 0,7,8
 250 186 250 186 156 352 c 128,-1,9
 62 518 62 518 62 707 c 0,10,11
 62 901 62 901 159 1068 c 0,12,13
 256 1236 256 1236 424 1333 c 128,-1,14
 592 1430 592 1430 785 1430 c 0,15,16
 979 1430 979 1430 1148 1333 c 0,17,18
 1316 1236 1316 1236 1412 1068.5 c 128,-1,19
 1508 901 1508 901 1508 707 c 0,0,1
1396 707 m 0,20,21
 1396 871 1396 871 1314 1011 c 256,22,23
 1232 1151 1232 1151 1090 1233 c 128,-1,24
 948 1315 948 1315 785 1315 c 0,25,26
 628 1315 628 1315 488 1237 c 256,27,28
 348 1159 348 1159 262.5 1017.5 c 128,-1,29
 177 876 177 876 177 707 c 0,30,31
 177 544 177 544 259 402 c 0,32,33
 340 260 340 260 480.5 178 c 128,-1,34
 621 96 621 96 785 96 c 256,35,36
 949 96 949 96 1091 178 c 256,37,38
 1233 260 1233 260 1314.5 402 c 128,-1,39
 1396 544 1396 544 1396 707 c 0,20,21
658 610 m 1,40,-1
 658 297 l 1,41,-1
 480 297 l 1,42,-1
 480 1112 l 1,43,-1
 810 1112 l 2,44,45
 963 1112 963 1112 1039 1047.5 c 128,-1,46
 1115 983 1115 983 1115 870 c 0,47,48
 1115 776 1115 776 1067 717 c 128,-1,49
 1019 658 1019 658 941 633 c 1,50,-1
 1154 297 l 1,51,-1
 953 297 l 1,52,-1
 775 610 l 1,53,-1
 658 610 l 1,40,-1
935 868 m 0,54,55
 935 925 935 925 897.5 955 c 128,-1,56
 860 985 860 985 791 985 c 2,57,-1
 658 985 l 1,58,-1
 658 739 l 1,59,-1
 802 739 l 2,60,61
 868 739 868 739 901.5 774.5 c 128,-1,62
 935 810 935 810 935 868 c 0,54,55
EndSplineSet
EndChar

StartChar: macron
Encoding: 175 175 112
Width: 1131
Flags: W
LayerCount: 2
Fore
SplineSet
1148 1546 m 1,0,-1
 1148 1452 l 1,1,-1
 -17 1452 l 1,2,-1
 -17 1546 l 1,3,-1
 1148 1546 l 1,0,-1
EndSplineSet
EndChar

StartChar: degree
Encoding: 176 176 113
Width: 819
GlyphClass: 2
Flags: W
LayerCount: 2
Fore
SplineSet
830 1110 m 256,0,1
 830 1023 830 1023 787 951.5 c 128,-1,2
 744 880 744 880 671.5 837.5 c 128,-1,3
 599 795 599 795 509 795 c 0,4,5
 421 795 421 795 348.5 837 c 128,-1,6
 276 879 276 879 232.5 950.5 c 128,-1,7
 189 1022 189 1022 189 1111 c 0,8,9
 189 1199 189 1199 232 1270 c 128,-1,10
 275 1341 275 1341 348 1383 c 128,-1,11
 421 1425 421 1425 509 1425 c 0,12,13
 599 1425 599 1425 671.5 1382.5 c 128,-1,14
 744 1340 744 1340 787 1268.5 c 128,-1,15
 830 1197 830 1197 830 1110 c 256,0,1
672 1110 m 256,16,17
 672 1180 672 1180 625.5 1228 c 128,-1,18
 579 1276 579 1276 509 1276 c 0,19,20
 438 1276 438 1276 390.5 1227.5 c 128,-1,21
 343 1179 343 1179 343 1110 c 256,22,23
 343 1041 343 1041 392 991.5 c 128,-1,24
 441 942 441 942 509 942 c 0,25,26
 576 942 576 942 624 991 c 128,-1,27
 672 1040 672 1040 672 1110 c 256,16,17
EndSplineSet
EndChar

StartChar: plusminus
Encoding: 177 177 114
Width: 1124
GlyphClass: 2
Flags: W
LayerCount: 2
Fore
SplineSet
712 707 m 1,0,-1
 712 366 l 1,1,-1
 488 366 l 1,2,-1
 488 707 l 1,3,-1
 87 707 l 1,4,-1
 87 930 l 1,5,-1
 488 930 l 1,6,-1
 488 1270 l 1,7,-1
 712 1270 l 1,8,-1
 712 930 l 1,9,-1
 1114 930 l 1,10,-1
 1114 707 l 1,11,-1
 712 707 l 1,0,-1
1114 223 m 1,12,-1
 1114 0 l 1,13,-1
 87 0 l 1,14,-1
 87 223 l 1,15,-1
 1114 223 l 1,12,-1
EndSplineSet
EndChar

StartChar: uni00B2
Encoding: 178 178 115
Width: 682
Flags: W
LayerCount: 2
Fore
SplineSet
71 696 m 1,0,-1
 95 816 l 1,1,2
 123 861 123 861 164 900 c 0,3,4
 189 924 189 924 219.5 947 c 128,-1,5
 250 970 250 970 288 994 c 128,-1,6
 326 1018 326 1018 373 1045 c 0,7,8
 427 1074 427 1074 464 1102 c 0,9,10
 506 1134 506 1134 524 1164.5 c 128,-1,11
 542 1195 542 1195 542 1231 c 0,12,13
 542 1260 542 1260 520 1279.5 c 128,-1,14
 498 1299 498 1299 463 1299 c 0,15,16
 419 1299 419 1299 390.5 1275 c 128,-1,17
 362 1251 362 1251 349 1202 c 1,18,-1
 187 1236 l 1,19,20
 218 1335 218 1335 287 1380.5 c 128,-1,21
 356 1426 356 1426 479 1426 c 0,22,23
 594 1426 594 1426 660 1375.5 c 128,-1,24
 726 1325 726 1325 726 1239 c 0,25,26
 726 1178 726 1178 701 1135 c 0,27,28
 676 1090 676 1090 637.5 1055.5 c 128,-1,29
 599 1021 599 1021 551 994 c 0,30,31
 527 981 527 981 503.5 968 c 128,-1,32
 480 955 480 955 457 943 c 0,33,34
 411 918 411 918 372 893.5 c 128,-1,35
 333 869 333 869 311 839 c 1,36,-1
 660 839 l 1,37,-1
 635 696 l 1,38,-1
 71 696 l 1,0,-1
EndSplineSet
EndChar

StartChar: uni00B3
Encoding: 179 179 116
Width: 682
Flags: W
LayerCount: 2
Fore
SplineSet
341 1126 m 1,0,-1
 401 1126 l 2,1,2
 463 1126 463 1126 501 1151 c 128,-1,3
 539 1176 539 1176 539 1221 c 0,4,5
 539 1262 539 1262 518 1283 c 128,-1,6
 497 1304 497 1304 456 1304 c 0,7,8
 411 1304 411 1304 382.5 1280.5 c 128,-1,9
 354 1257 354 1257 341 1210 c 1,10,-1
 178 1234 l 1,11,12
 204 1332 204 1332 274 1379 c 128,-1,13
 344 1426 344 1426 476 1426 c 0,14,15
 594 1426 594 1426 660 1381.5 c 128,-1,16
 726 1337 726 1337 726 1247 c 0,17,18
 726 1176 726 1176 675.5 1125 c 128,-1,19
 625 1074 625 1074 543 1067 c 1,20,-1
 542 1065 l 1,21,22
 606 1053 606 1053 645 1014.5 c 128,-1,23
 684 976 684 976 684 913 c 0,24,25
 684 812 684 812 599 750 c 128,-1,26
 514 688 514 688 369 688 c 0,27,28
 123 688 123 688 96 885 c 1,29,-1
 277 910 l 1,30,31
 285 861 285 861 312 836 c 128,-1,32
 339 811 339 811 385 811 c 256,33,34
 431 811 431 811 463.5 837.5 c 128,-1,35
 496 864 496 864 496 915 c 0,36,37
 496 958 496 958 468.5 979 c 128,-1,38
 441 1000 441 1000 385 1000 c 2,39,-1
 317 1000 l 1,40,-1
 341 1126 l 1,0,-1
EndSplineSet
EndChar

StartChar: acute
Encoding: 180 180 117
Width: 682
GlyphClass: 2
Flags: W
LayerCount: 2
Fore
SplineSet
777 1459 m 1,0,-1
 401 1183 l 1,1,-1
 255 1183 l 1,2,-1
 261 1214 l 1,3,-1
 508 1502 l 1,4,-1
 785 1502 l 1,5,-1
 777 1459 l 1,0,-1
EndSplineSet
EndChar

StartChar: mu
Encoding: 181 181 118
Width: 1180
GlyphClass: 2
Flags: W
LayerCount: 2
Fore
SplineSet
306 -45 m 1,0,-1
 233 -425 l 1,1,-1
 -47 -425 l 1,2,-1
 244 1082 l 1,3,-1
 525 1082 l 1,4,-1
 407 477 l 2,5,6
 402 448 402 448 398.5 418 c 128,-1,7
 395 388 395 388 394 358 c 0,8,9
 394 193 394 193 519 193 c 0,10,11
 600 193 600 193 660 273 c 128,-1,12
 720 353 720 353 746 504 c 2,13,-1
 858 1082 l 1,14,-1
 1139 1082 l 1,15,-1
 992 325 l 2,16,17
 983 280 983 280 983 260 c 0,18,19
 983 191 983 191 1033 191 c 0,20,21
 1058 191 1058 191 1079 198 c 1,22,-1
 1063 5 l 1,23,24
 959 -20 959 -20 875 -20 c 0,25,26
 787 -20 787 -20 748.5 12.5 c 128,-1,27
 710 45 710 45 710 122 c 2,28,-1
 712 164 l 1,29,-1
 708 164 l 1,30,31
 666 77 666 77 613 28.5 c 128,-1,32
 560 -20 560 -20 479 -20 c 0,33,34
 420 -20 420 -20 381.5 4.5 c 128,-1,35
 343 29 343 29 328 70 c 1,36,-1
 322 70 l 1,37,-1
 306 -45 l 1,0,-1
EndSplineSet
EndChar

StartChar: paragraph
Encoding: 182 182 119
Width: 1139
GlyphClass: 2
Flags: W
LayerCount: 2
Fore
SplineSet
624 1266 m 1,0,-1
 624 -264 l 1,1,-1
 469 -264 l 1,2,-1
 469 694 l 1,3,4
 300 694 300 694 203 786.5 c 128,-1,5
 106 879 106 879 106 1049 c 0,6,7
 106 1218 106 1218 204.5 1313.5 c 128,-1,8
 303 1409 303 1409 477 1409 c 2,9,-1
 1106 1409 l 1,10,-1
 1106 1266 l 1,11,-1
 975 1266 l 1,12,-1
 975 -264 l 1,13,-1
 819 -264 l 1,14,-1
 819 1266 l 1,15,-1
 624 1266 l 1,0,-1
EndSplineSet
EndChar

StartChar: periodcentered
Encoding: 183 183 120
Width: 682
Flags: W
LayerCount: 2
Fore
SplineSet
536 836 m 1,0,-1
 477 531 l 1,1,-1
 189 531 l 1,2,-1
 248 836 l 1,3,-1
 536 836 l 1,0,-1
EndSplineSet
EndChar

StartChar: cedilla
Encoding: 184 184 121
Width: 682
Flags: W
LayerCount: 2
Fore
SplineSet
382 -83 m 1,0,1
 452 -84 452 -84 495.5 -116.5 c 128,-1,2
 539 -149 539 -149 539 -215 c 0,3,4
 539 -312 539 -312 455 -368.5 c 128,-1,5
 371 -425 371 -425 194 -425 c 0,6,7
 169 -425 169 -425 142.5 -423.5 c 128,-1,8
 116 -422 116 -422 88 -419 c 1,9,-1
 117 -302 l 1,10,11
 156 -309 156 -309 199 -309 c 0,12,13
 280 -309 280 -309 317 -291.5 c 128,-1,14
 354 -274 354 -274 354 -232 c 0,15,16
 354 -169 354 -169 244 -169 c 0,17,18
 231 -170 231 -170 218 -170 c 128,-1,19
 205 -170 205 -170 191 -171 c 1,20,-1
 289 0 l 1,21,-1
 430 0 l 1,22,-1
 382 -83 l 1,0,1
EndSplineSet
EndChar

StartChar: uni00B9
Encoding: 185 185 122
Width: 682
Flags: W
LayerCount: 2
Fore
SplineSet
657 814 m 1,0,-1
 634 693 l 1,1,-1
 98 693 l 1,2,-1
 121 814 l 1,3,-1
 305 814 l 1,4,-1
 396 1282 l 1,5,-1
 202 1174 l 1,6,-1
 226 1296 l 1,7,-1
 428 1413 l 1,8,-1
 603 1413 l 1,9,-1
 487 814 l 1,10,-1
 657 814 l 1,0,-1
EndSplineSet
EndChar

StartChar: ordmasculine
Encoding: 186 186 123
Width: 748
GlyphClass: 2
Flags: W
LayerCount: 2
Fore
SplineSet
409 689 m 0,0,1
 267 689 267 689 184.5 767.5 c 128,-1,2
 102 846 102 846 102 980 c 0,3,4
 102 1044 102 1044 116 1105 c 0,5,6
 149 1249 149 1249 255 1333.5 c 128,-1,7
 361 1418 361 1418 515 1418 c 0,8,9
 668 1418 668 1418 748 1344.5 c 128,-1,10
 828 1271 828 1271 828 1142 c 0,11,12
 828 1083 828 1083 818 1034 c 0,13,14
 789 877 789 877 679 783 c 128,-1,15
 569 689 569 689 409 689 c 0,0,1
501 1280 m 0,16,17
 426 1280 426 1280 381 1233 c 0,18,19
 355 1207 355 1207 338 1169 c 128,-1,20
 321 1131 321 1131 313.5 1085 c 128,-1,21
 306 1039 306 1039 306 987 c 0,22,23
 306 826 306 826 429 826 c 0,24,25
 479 826 479 826 505 838.5 c 128,-1,26
 531 851 531 851 552 875 c 0,27,28
 575 902 575 902 591.5 947.5 c 128,-1,29
 608 993 608 993 616.5 1042 c 128,-1,30
 625 1091 625 1091 625 1128 c 0,31,32
 625 1201 625 1201 593.5 1240.5 c 128,-1,33
 562 1280 562 1280 501 1280 c 0,16,17
EndSplineSet
EndChar

StartChar: guillemotright
Encoding: 187 187 124
Width: 1139
GlyphClass: 2
Flags: W
LayerCount: 2
Fore
SplineSet
1058 506 m 1,0,-1
 735 139 l 1,1,-1
 496 139 l 1,2,-1
 502 180 l 1,3,-1
 831 546 l 1,4,-1
 643 899 l 1,5,-1
 648 938 l 1,6,-1
 880 938 l 1,7,-1
 1072 577 l 1,8,-1
 1058 506 l 1,0,-1
600 506 m 1,9,-1
 277 139 l 1,10,-1
 38 139 l 1,11,-1
 44 180 l 1,12,-1
 373 546 l 1,13,-1
 185 899 l 1,14,-1
 190 938 l 1,15,-1
 422 938 l 1,16,-1
 614 577 l 1,17,-1
 600 506 l 1,9,-1
EndSplineSet
EndChar

StartChar: questiondown
Encoding: 191 191 128
Width: 1251
GlyphClass: 2
Flags: W
LayerCount: 2
Fore
SplineSet
926 1082 m 1,0,-1
 874 812 l 1,1,-1
 585 812 l 1,2,-1
 637 1082 l 1,3,-1
 926 1082 l 1,0,-1
490 -348 m 0,4,5
 348 -348 348 -348 243.5 -305.5 c 128,-1,6
 139 -263 139 -263 82.5 -183.5 c 128,-1,7
 26 -104 26 -104 26 7 c 0,8,9
 26 52 26 52 35.5 92.5 c 128,-1,10
 45 133 45 133 64 168 c 0,11,12
 89 216 89 216 126 257.5 c 128,-1,13
 163 299 163 299 226.5 344 c 128,-1,14
 290 389 290 389 394 447 c 1,15,16
 435 475 435 475 463 495.5 c 128,-1,17
 491 516 491 516 504 529 c 0,18,19
 531 555 531 555 547.5 585.5 c 128,-1,20
 564 616 564 616 569 656 c 1,21,-1
 836 656 l 1,22,23
 822 579 822 579 791 522 c 0,24,25
 771 484 771 484 743.5 451 c 128,-1,26
 716 418 716 418 670 382.5 c 128,-1,27
 624 347 624 347 545 298 c 0,28,29
 476 255 476 255 430.5 222 c 128,-1,30
 385 189 385 189 358 159 c 0,31,32
 331 128 331 128 320 97 c 128,-1,33
 309 66 309 66 309 27 c 0,34,35
 309 -36 309 -36 357 -77.5 c 128,-1,36
 405 -119 405 -119 506 -119 c 0,37,38
 619 -119 619 -119 689 -71 c 128,-1,39
 759 -23 759 -23 785 74 c 1,40,-1
 1051 34 l 1,41,42
 993 -157 993 -157 852.5 -252.5 c 128,-1,43
 712 -348 712 -348 490 -348 c 0,4,5
EndSplineSet
EndChar

StartChar: AE
Encoding: 198 198 135
Width: 2048
GlyphClass: 2
Flags: W
LayerCount: 2
Fore
SplineSet
457 360 m 1,0,-1
 215 0 l 1,1,-1
 -97 0 l 1,2,-1
 868 1409 l 1,3,-1
 2099 1409 l 1,4,-1
 2054 1182 l 1,5,-1
 1353 1182 l 1,6,-1
 1284 827 l 1,7,-1
 1923 827 l 1,8,-1
 1880 606 l 1,9,-1
 1241 606 l 1,10,-1
 1168 227 l 1,11,-1
 1910 227 l 1,12,-1
 1866 0 l 1,13,-1
 837 0 l 1,14,-1
 907 360 l 1,15,-1
 457 360 l 1,0,-1
602 582 m 1,16,-1
 950 582 l 1,17,-1
 1068 1192 l 1,18,-1
 1007 1192 l 1,19,-1
 871 983 l 1,20,-1
 602 582 l 1,16,-1
EndSplineSet
EndChar

StartChar: Eth
Encoding: 208 208 145
Width: 1479
Flags: W
LayerCount: 2
Fore
SplineSet
734 1409 m 2,0,1
 956 1409 956 1409 1109.5 1339.5 c 128,-1,2
 1263 1270 1263 1270 1342 1136 c 128,-1,3
 1421 1002 1421 1002 1421 807 c 0,4,5
 1421 572 1421 572 1322 390 c 0,6,7
 1223 209 1223 209 1035 104.5 c 128,-1,8
 847 0 847 0 614 0 c 2,9,-1
 36 0 l 1,10,-1
 151 594 l 1,11,-1
 23 594 l 1,12,-1
 65 813 l 1,13,-1
 194 813 l 1,14,-1
 310 1409 l 1,15,-1
 734 1409 l 2,0,1
375 228 m 1,16,-1
 605 228 l 2,17,18
 765 228 765 228 889 297 c 0,19,20
 1012 365 1012 365 1078.5 494 c 128,-1,21
 1145 623 1145 623 1145 794 c 0,22,23
 1145 983 1145 983 1039.5 1082 c 128,-1,24
 934 1181 934 1181 736 1181 c 2,25,-1
 560 1181 l 1,26,-1
 488 813 l 1,27,-1
 845 813 l 1,28,-1
 801 594 l 1,29,-1
 446 594 l 1,30,-1
 375 228 l 1,16,-1
EndSplineSet
EndChar

StartChar: multiply
Encoding: 215 215 152
Width: 1196
Flags: W
LayerCount: 2
Fore
SplineSet
640 526 m 1,0,-1
 284 168 l 1,1,-1
 126 326 l 1,2,-1
 482 684 l 1,3,-1
 130 1036 l 1,4,-1
 288 1192 l 1,5,-1
 640 842 l 1,6,-1
 992 1194 l 1,7,-1
 1150 1036 l 1,8,-1
 798 682 l 1,9,-1
 1150 332 l 1,10,-1
 992 172 l 1,11,-1
 640 526 l 1,0,-1
EndSplineSet
EndChar

StartChar: Oslash
Encoding: 216 216 153
Width: 1593
GlyphClass: 2
Flags: W
LayerCount: 2
Fore
SplineSet
1435 1227 m 1,0,1
 1559 1079 1559 1079 1559 851 c 0,2,3
 1559 604 1559 604 1454 401 c 0,4,5
 1348 197 1348 197 1159 88.5 c 128,-1,6
 970 -20 970 -20 727 -20 c 0,7,8
 505 -20 505 -20 357 71 c 1,9,-1
 242 -53 l 1,10,-1
 35 -53 l 1,11,-1
 240 167 l 1,12,13
 100 325 100 325 100 573 c 0,14,15
 100 809 100 809 206 1012 c 0,16,17
 311 1215 311 1215 498 1322.5 c 128,-1,18
 685 1430 685 1430 928 1430 c 0,19,20
 1164 1430 1164 1430 1324 1326 c 1,21,-1
 1455 1466 l 1,22,-1
 1658 1466 l 1,23,-1
 1435 1227 l 1,0,1
914 1197 m 0,24,25
 752 1197 752 1197 638 1122 c 0,26,27
 562 1072 562 1072 509 986.5 c 128,-1,28
 456 901 456 901 428 796 c 128,-1,29
 400 691 400 691 400 581 c 0,30,31
 400 460 400 460 439 379 c 1,32,-1
 1138 1127 l 1,33,34
 1052 1197 1052 1197 914 1197 c 0,24,25
1255 827 m 0,35,36
 1255 926 1255 926 1226 1002 c 1,37,-1
 538 264 l 1,38,39
 617 212 617 212 741 212 c 0,40,41
 902 212 902 212 1016 287 c 0,42,43
 1092 337 1092 337 1145.5 421 c 128,-1,44
 1199 505 1199 505 1227 610 c 128,-1,45
 1255 715 1255 715 1255 827 c 0,35,36
EndSplineSet
EndChar

StartChar: Thorn
Encoding: 222 222 159
Width: 1366
Flags: W
LayerCount: 2
Fore
SplineSet
384 271 m 1,0,-1
 331 0 l 1,1,-1
 36 0 l 1,2,-1
 310 1409 l 1,3,-1
 605 1409 l 1,4,-1
 561 1184 l 1,5,-1
 807 1184 l 2,6,7
 1053 1184 1053 1184 1189.5 1072 c 128,-1,8
 1326 960 1326 960 1326 762 c 0,9,10
 1326 612 1326 612 1256.5 501.5 c 128,-1,11
 1187 391 1187 391 1060.5 331 c 128,-1,12
 934 271 934 271 762 271 c 2,13,-1
 384 271 l 1,0,-1
428 498 m 1,14,-1
 717 498 l 2,15,16
 872 498 872 498 949.5 556 c 128,-1,17
 1027 614 1027 614 1027 746 c 0,18,19
 1027 848 1027 848 963 901.5 c 128,-1,20
 899 955 899 955 779 955 c 2,21,-1
 517 955 l 1,22,-1
 428 498 l 1,14,-1
EndSplineSet
EndChar

StartChar: germandbls
Encoding: 223 223 160
Width: 1251
GlyphClass: 2
Flags: W
LayerCount: 2
Fore
SplineSet
1152 345 m 0,0,1
 1152 178 1152 178 1041.5 79 c 128,-1,2
 931 -20 931 -20 749 -20 c 0,3,4
 648 -20 648 -20 567.5 -5.5 c 128,-1,5
 487 9 487 9 428 37 c 1,6,-1
 496 223 l 1,7,8
 574 187 574 187 622 176.5 c 128,-1,9
 670 166 670 166 720 166 c 0,10,11
 800 166 800 166 841.5 208 c 128,-1,12
 883 250 883 250 883 322 c 0,13,14
 883 373 883 373 855 412.5 c 128,-1,15
 827 452 827 452 761 501 c 0,16,17
 697 547 697 547 667.5 598.5 c 128,-1,18
 638 650 638 650 638 718 c 256,19,20
 638 786 638 786 672.5 840.5 c 128,-1,21
 707 895 707 895 785 953 c 0,22,23
 863 1012 863 1012 897 1061 c 128,-1,24
 931 1110 931 1110 931 1168 c 0,25,26
 931 1221 931 1221 894.5 1251 c 128,-1,27
 858 1281 858 1281 788 1281 c 0,28,29
 672 1281 672 1281 605.5 1217 c 128,-1,30
 539 1153 539 1153 513 1021 c 2,31,-1
 316 0 l 1,32,-1
 35 0 l 1,33,-1
 235 1027 l 2,34,35
 285 1264 285 1264 423.5 1374 c 128,-1,36
 562 1484 562 1484 797 1484 c 0,37,38
 978 1484 978 1484 1082.5 1407 c 128,-1,39
 1187 1330 1187 1330 1187 1196 c 0,40,41
 1187 1031 1187 1031 1044 924 c 0,42,43
 955 857 955 857 929 828 c 0,44,45
 900 796 900 796 900 759 c 0,46,47
 900 709 900 709 950 662 c 0,48,49
 964 649 964 649 983 634 c 128,-1,50
 1002 619 1002 619 1026 601 c 0,51,52
 1152 507 1152 507 1152 345 c 0,0,1
EndSplineSet
EndChar

StartChar: ae
Encoding: 230 230 167
Width: 1821
GlyphClass: 2
Flags: W
LayerCount: 2
Fore
SplineSet
1027 476 m 1,0,1
 1020 441 1020 441 1020 387 c 0,2,3
 1020 281 1020 281 1066.5 224.5 c 128,-1,4
 1113 168 1113 168 1204 168 c 0,5,6
 1278 168 1278 168 1331 210 c 128,-1,7
 1384 252 1384 252 1417 337 c 1,8,-1
 1662 263 l 1,9,10
 1587 104 1587 104 1476 42 c 128,-1,11
 1365 -20 1365 -20 1185 -20 c 0,12,13
 1037 -20 1037 -20 938.5 35 c 128,-1,14
 840 90 840 90 791 199 c 1,15,16
 739 118 739 118 678 72 c 0,17,18
 615 24 615 24 541.5 2 c 128,-1,19
 468 -20 468 -20 349 -20 c 0,20,21
 231 -20 231 -20 150 42 c 0,22,23
 98 82 98 82 70 142.5 c 128,-1,24
 42 203 42 203 42 278 c 0,25,26
 42 469 42 469 177 564.5 c 128,-1,27
 312 660 312 660 583 660 c 2,28,-1
 774 660 l 1,29,30
 795 755 795 755 795 791 c 0,31,32
 795 919 795 919 668 919 c 0,33,34
 574 919 574 919 528 882.5 c 128,-1,35
 482 846 482 846 465 777 c 1,36,-1
 202 808 l 1,37,38
 236 952 236 952 355.5 1027 c 128,-1,39
 475 1102 475 1102 673 1102 c 0,40,41
 880 1102 880 1102 973 989 c 1,42,43
 1113 1102 1113 1102 1315 1102 c 0,44,45
 1524 1102 1524 1102 1637.5 994.5 c 128,-1,46
 1751 887 1751 887 1751 691 c 0,47,48
 1751 642 1751 642 1745 588 c 128,-1,49
 1739 534 1739 534 1727 476 c 1,50,-1
 1027 476 l 1,0,1
1060 663 m 1,51,-1
 1491 663 l 1,52,-1
 1494 719 l 1,53,54
 1494 826 1494 826 1444.5 875 c 128,-1,55
 1395 924 1395 924 1315 924 c 0,56,57
 1219 924 1219 924 1153.5 857.5 c 128,-1,58
 1088 791 1088 791 1060 663 c 1,51,-1
341 325 m 0,59,60
 341 253 341 253 375.5 214.5 c 128,-1,61
 410 176 410 176 475 176 c 0,62,63
 544 176 544 176 605 223 c 0,64,65
 645 254 645 254 675 302 c 128,-1,66
 705 350 705 350 721 411 c 2,67,-1
 743 500 l 1,68,-1
 582 500 l 2,69,70
 481 500 481 500 421 464 c 0,71,72
 341 419 341 419 341 325 c 0,59,60
EndSplineSet
EndChar

StartChar: eth
Encoding: 240 240 177
Width: 1251
Flags: W
LayerCount: 2
Fore
SplineSet
661 1305 m 1,0,1
 539 1424 539 1424 439 1484 c 1,2,-1
 732 1484 l 1,3,4
 768 1465 768 1465 803.5 1441.5 c 128,-1,5
 839 1418 839 1418 873 1390 c 1,6,-1
 1168 1499 l 1,7,-1
 1136 1323 l 1,8,-1
 991 1269 l 1,9,10
 1086 1146 1086 1146 1129 1017.5 c 128,-1,11
 1172 889 1172 889 1172 728 c 0,12,13
 1172 521 1172 521 1111 364 c 0,14,15
 1040 179 1040 179 890.5 79.5 c 128,-1,16
 741 -20 741 -20 527 -20 c 0,17,18
 308 -20 308 -20 183 95.5 c 128,-1,19
 58 211 58 211 58 410 c 0,20,21
 58 612 58 612 156 751 c 0,22,23
 230 859 230 859 356.5 919 c 128,-1,24
 483 979 483 979 649 979 c 0,25,26
 710 979 710 979 777 960.5 c 128,-1,27
 844 942 844 942 881 916 c 1,28,29
 865 986 865 986 834 1052 c 128,-1,30
 803 1118 803 1118 756 1180 c 1,31,-1
 479 1069 l 1,32,-1
 512 1248 l 1,33,-1
 661 1305 l 1,0,1
658 787 m 0,34,35
 564 787 564 787 491 734 c 0,36,37
 448 702 448 702 416.5 651.5 c 128,-1,38
 385 601 385 601 368.5 536.5 c 128,-1,39
 352 472 352 472 352 395 c 0,40,41
 352 293 352 293 407 232.5 c 128,-1,42
 462 172 462 172 555 172 c 0,43,44
 642 172 642 172 715 230 c 0,45,46
 763 268 763 268 797.5 326 c 128,-1,47
 832 384 832 384 850 456 c 128,-1,48
 868 528 868 528 868 606 c 0,49,50
 868 668 868 668 839 711 c 0,51,52
 815 748 815 748 769.5 767.5 c 128,-1,53
 724 787 724 787 658 787 c 0,34,35
EndSplineSet
EndChar

StartChar: divide
Encoding: 247 247 184
Width: 1124
Flags: W
LayerCount: 2
Fore
SplineSet
700 1194 m 1,0,-1
 700 961 l 1,1,-1
 462 961 l 1,2,-1
 462 1194 l 1,3,-1
 700 1194 l 1,0,-1
1096 793 m 1,4,-1
 1096 569 l 1,5,-1
 69 569 l 1,6,-1
 69 793 l 1,7,-1
 1096 793 l 1,4,-1
700 403 m 1,8,-1
 700 170 l 1,9,-1
 462 170 l 1,10,-1
 462 403 l 1,11,-1
 700 403 l 1,8,-1
EndSplineSet
EndChar

StartChar: oslash
Encoding: 248 248 185
Width: 1251
GlyphClass: 2
Flags: W
LayerCount: 2
Fore
SplineSet
173 114 m 1,0,1
 63 229 63 229 63 419 c 0,2,3
 63 620 63 620 143 775 c 256,4,5
 223 930 223 930 369.5 1015.5 c 128,-1,6
 516 1101 516 1101 704 1101 c 0,7,8
 863 1101 863 1101 977 1047 c 1,9,-1
 1037 1116 l 1,10,-1
 1226 1116 l 1,11,-1
 1092 960 l 1,12,13
 1185 855 1185 855 1185 683 c 0,14,15
 1185 476 1185 476 1104 315 c 0,16,17
 1022 154 1022 154 872.5 67 c 128,-1,18
 723 -20 723 -20 535 -20 c 0,19,20
 396 -20 396 -20 291 29 c 1,21,-1
 233 -38 l 1,22,-1
 42 -38 l 1,23,-1
 173 114 l 1,0,1
358 431 m 0,24,25
 358 384 358 384 366 338 c 1,26,-1
 821 865 l 1,27,28
 771 909 771 909 683 909 c 0,29,30
 570 909 570 909 502 849 c 0,31,32
 457 809 457 809 424.5 739.5 c 128,-1,33
 392 670 392 670 375 588.5 c 128,-1,34
 358 507 358 507 358 431 c 0,24,25
891 662 m 0,35,36
 891 697 891 697 887 722 c 1,37,-1
 443 206 l 1,38,39
 492 172 492 172 566 172 c 0,40,41
 678 172 678 172 744 229 c 0,42,43
 809 285 809 285 846.5 400 c 128,-1,44
 884 515 884 515 891 662 c 0,35,36
EndSplineSet
EndChar

StartChar: thorn
Encoding: 254 254 191
Width: 1251
Flags: W
LayerCount: 2
Fore
SplineSet
662 -20 m 0,0,1
 537 -20 537 -20 459 32 c 128,-1,2
 381 84 381 84 349 178 c 1,3,-1
 347 178 l 1,4,5
 343 156 343 156 340 133.5 c 128,-1,6
 337 111 337 111 333 88 c 0,7,8
 329 63 329 63 324.5 39 c 128,-1,9
 320 15 320 15 315 -10 c 2,10,-1
 234 -425 l 1,11,-1
 -46 -425 l 1,12,-1
 323 1484 l 1,13,-1
 604 1484 l 1,14,-1
 521 1057 l 2,15,16
 512 1011 512 1011 503.5 975 c 128,-1,17
 495 939 495 939 487 913 c 1,18,-1
 493 913 l 1,19,20
 565 1013 565 1013 647.5 1057.5 c 128,-1,21
 730 1102 730 1102 848 1102 c 0,22,23
 1007 1102 1007 1102 1096 1007.5 c 128,-1,24
 1185 913 1185 913 1185 748 c 0,25,26
 1185 547 1185 547 1123 355 c 256,27,28
 1061 163 1061 163 948.5 71.5 c 128,-1,29
 836 -20 836 -20 662 -20 c 0,0,1
728 907 m 0,30,31
 583 907 583 907 502 787 c 0,32,33
 474 744 474 744 452.5 686 c 128,-1,34
 431 628 431 628 417 554 c 0,35,36
 400 458 400 458 400 401 c 0,37,38
 400 294 400 294 453 233.5 c 128,-1,39
 506 173 506 173 601 173 c 0,40,41
 704 173 704 173 762 237 c 0,42,43
 792 269 792 269 815.5 323.5 c 128,-1,44
 839 378 839 378 855.5 443 c 128,-1,45
 872 508 872 508 880.5 574 c 128,-1,46
 889 640 889 640 889 694 c 0,47,48
 889 800 889 800 850.5 853.5 c 128,-1,49
 812 907 812 907 728 907 c 0,30,31
EndSplineSet
EndChar

StartChar: dcroat
Encoding: 273 273 210
Width: 1251
Flags: W
LayerCount: 2
Fore
SplineSet
392 -21 m 0,0,1
 238 -21 238 -21 148 77 c 128,-1,2
 58 175 58 175 58 340 c 0,3,4
 58 522 58 522 121 699 c 0,5,6
 184 875 184 875 298.5 968 c 128,-1,7
 413 1061 413 1061 571 1061 c 0,8,9
 698 1061 698 1061 778 1012.5 c 128,-1,10
 858 964 858 964 887 871 c 1,11,-1
 893 871 l 1,12,13
 895 893 895 893 901.5 938.5 c 128,-1,14
 908 984 908 984 922 1053 c 2,15,-1
 947 1175 l 1,16,-1
 658 1175 l 1,17,-1
 691 1345 l 1,18,-1
 981 1345 l 1,19,-1
 1009 1484 l 1,20,-1
 1286 1484 l 1,21,-1
 1259 1345 l 1,22,-1
 1391 1345 l 1,23,-1
 1358 1175 l 1,24,-1
 1227 1175 l 1,25,-1
 1048 231 l 2,26,27
 1038 175 1038 175 1031 117 c 128,-1,28
 1024 59 1024 59 1019 0 c 1,29,-1
 738 0 l 1,30,31
 738 63 738 63 753 160 c 1,32,-1
 749 160 l 1,33,34
 678 67 678 67 595.5 23 c 128,-1,35
 513 -21 513 -21 392 -21 c 0,0,1
515 172 m 0,36,37
 621 172 621 172 690 235 c 0,38,39
 736 277 736 277 768.5 348.5 c 128,-1,40
 801 420 801 420 818.5 502.5 c 128,-1,41
 836 585 836 585 836 656 c 0,42,43
 836 771 836 771 789 822.5 c 128,-1,44
 742 874 742 874 648 874 c 0,45,46
 551 874 551 874 487 810 c 0,47,48
 445 767 445 767 415.5 693.5 c 128,-1,49
 386 620 386 620 370.5 537 c 128,-1,50
 355 454 355 454 355 382 c 0,51,52
 355 277 355 277 395 224.5 c 128,-1,53
 435 172 435 172 515 172 c 0,36,37
EndSplineSet
EndChar

StartChar: Hbar
Encoding: 294 294 231
Width: 1479
Flags: W
LayerCount: 2
Fore
SplineSet
448 604 m 1,0,-1
 330 0 l 1,1,-1
 36 0 l 1,2,-1
 238 1045 l 1,3,-1
 115 1045 l 1,4,-1
 148 1215 l 1,5,-1
 271 1215 l 1,6,-1
 309 1409 l 1,7,-1
 604 1409 l 1,8,-1
 566 1215 l 1,9,-1
 1192 1215 l 1,10,-1
 1230 1409 l 1,11,-1
 1514 1409 l 1,12,-1
 1476 1215 l 1,13,-1
 1599 1215 l 1,14,-1
 1566 1045 l 1,15,-1
 1443 1045 l 1,16,-1
 1240 0 l 1,17,-1
 956 0 l 1,18,-1
 1074 604 l 1,19,-1
 448 604 l 1,0,-1
495 848 m 1,20,-1
 1121 848 l 1,21,-1
 1159 1045 l 1,22,-1
 533 1045 l 1,23,-1
 495 848 l 1,20,-1
EndSplineSet
EndChar

StartChar: hbar
Encoding: 295 295 232
Width: 1251
Flags: W
LayerCount: 2
Fore
SplineSet
478 857 m 1,0,1
 553 961 553 961 643.5 1011 c 128,-1,2
 734 1061 734 1061 851 1061 c 0,3,4
 1003 1061 1003 1061 1080 988 c 128,-1,5
 1157 915 1157 915 1157 777 c 0,6,7
 1157 752 1157 752 1150 697.5 c 128,-1,8
 1143 643 1143 643 1136 613 c 2,9,-1
 1017 0 l 1,10,-1
 738 0 l 1,11,-1
 848 555 l 2,12,13
 874 682 874 682 874 720 c 0,14,15
 874 849 874 849 722 849 c 0,16,17
 655 849 655 849 592.5 811.5 c 128,-1,18
 530 774 530 774 486 710 c 128,-1,19
 442 646 442 646 427 566 c 2,20,-1
 317 0 l 1,21,-1
 35 0 l 1,22,-1
 261 1175 l 1,23,-1
 124 1175 l 1,24,-1
 157 1345 l 1,25,-1
 294 1345 l 1,26,-1
 321 1484 l 1,27,-1
 601 1484 l 1,28,-1
 574 1345 l 1,29,-1
 887 1345 l 1,30,-1
 854 1175 l 1,31,-1
 540 1175 l 1,32,33
 523 1084 523 1084 506.5 1004.5 c 128,-1,34
 490 925 490 925 475 857 c 1,35,-1
 478 857 l 1,0,1
EndSplineSet
EndChar

StartChar: dotlessi
Encoding: 305 305 242
Width: 569
Flags: W
LayerCount: 2
Fore
SplineSet
526 1082 m 1,0,-1
 315 0 l 1,1,-1
 35 0 l 1,2,-1
 245 1082 l 1,3,-1
 526 1082 l 1,0,-1
EndSplineSet
EndChar

StartChar: jcircumflex
Encoding: 309 309 246
Width: 569
Flags: W
LayerCount: 2
Fore
SplineSet
430 1375 m 1,0,-1
 182 1183 l 1,1,-1
 13 1183 l 1,2,-1
 18 1211 l 1,3,-1
 338 1529 l 1,4,-1
 567 1529 l 1,5,-1
 755 1211 l 1,6,-1
 750 1183 l 1,7,-1
 600 1183 l 1,8,-1
 434 1375 l 1,9,-1
 430 1375 l 1,0,-1
-54 -425 m 0,10,11
 -151 -425 -151 -425 -220 -406 c 1,12,-1
 -184 -218 l 1,13,14
 -170 -219 -170 -219 -155 -220 c 128,-1,15
 -140 -221 -140 -221 -126 -222 c 0,16,17
 -59 -222 -59 -222 -27.5 -187.5 c 128,-1,18
 4 -153 4 -153 22 -60 c 2,19,-1
 245 1082 l 1,20,-1
 526 1082 l 1,21,-1
 290 -128 l 2,22,23
 261 -272 261 -272 173.5 -348.5 c 128,-1,24
 86 -425 86 -425 -54 -425 c 0,10,11
EndSplineSet
EndChar

StartChar: kgreenlandic
Encoding: 312 312 249
Width: 1139
Flags: W
LayerCount: 2
Fore
SplineSet
400 422 m 1,0,-1
 315 0 l 1,1,-1
 35 0 l 1,2,-1
 245 1082 l 1,3,-1
 526 1082 l 1,4,-1
 438 634 l 1,5,-1
 595 786 l 1,6,-1
 902 1082 l 1,7,-1
 1224 1082 l 1,8,-1
 751 660 l 1,9,-1
 1026 0 l 1,10,-1
 728 0 l 1,11,-1
 540 497 l 1,12,-1
 400 422 l 1,0,-1
EndSplineSet
EndChar

StartChar: Lslash
Encoding: 321 321 258
Width: 1251
Flags: W
LayerCount: 2
Fore
SplineSet
375 228 m 1,0,-1
 1131 228 l 1,1,-1
 1086 0 l 1,2,-1
 36 0 l 1,3,-1
 129 482 l 1,4,-1
 -19 418 l 1,5,-1
 25 643 l 1,6,-1
 173 708 l 1,7,-1
 309 1409 l 1,8,-1
 604 1409 l 1,9,-1
 495 848 l 1,10,-1
 831 997 l 1,11,-1
 788 774 l 1,12,-1
 452 625 l 1,13,-1
 375 228 l 1,0,-1
EndSplineSet
EndChar

StartChar: lslash
Encoding: 322 322 259
Width: 569
Flags: W
LayerCount: 2
Fore
SplineSet
455 717 m 1,0,-1
 315 0 l 1,1,-1
 35 0 l 1,2,-1
 143 561 l 1,3,-1
 6 492 l 1,4,-1
 47 707 l 1,5,-1
 185 776 l 1,6,-1
 323 1484 l 1,7,-1
 604 1484 l 1,8,-1
 496 932 l 1,9,-1
 640 1006 l 1,10,-1
 598 793 l 1,11,-1
 455 717 l 1,0,-1
EndSplineSet
EndChar

StartChar: Eng
Encoding: 330 330 267
Width: 1481
Flags: W
LayerCount: 2
Fore
SplineSet
871 -425 m 0,0,1
 774 -425 774 -425 705 -406 c 1,2,-1
 741 -218 l 1,3,4
 759 -219 759 -219 777.5 -220 c 128,-1,5
 796 -221 796 -221 814 -222 c 0,6,7
 862 -222 862 -222 889.5 -206 c 128,-1,8
 917 -190 917 -190 935 -154 c 0,9,10
 943 -136 943 -136 953 -97.5 c 128,-1,11
 963 -59 963 -59 973 0 c 1,12,-1
 511 1131 l 1,13,14
 500 1050 500 1050 490.5 990 c 128,-1,15
 481 930 481 930 473 892 c 2,16,-1
 299 0 l 1,17,-1
 37 0 l 1,18,-1
 311 1409 l 1,19,-1
 661 1409 l 1,20,-1
 1060 411 l 1,21,22
 1068 451 1068 451 1076 491 c 128,-1,23
 1084 531 1084 531 1091 571 c 2,24,-1
 1253 1409 l 1,25,-1
 1515 1409 l 1,26,-1
 1215 -128 l 2,27,28
 1186 -272 1186 -272 1098.5 -348.5 c 128,-1,29
 1011 -425 1011 -425 871 -425 c 0,0,1
EndSplineSet
EndChar

StartChar: eng
Encoding: 331 331 268
Width: 1251
Flags: W
LayerCount: 2
Fore
SplineSet
649 -425 m 0,0,1
 552 -425 552 -425 483 -406 c 1,2,-1
 519 -218 l 1,3,4
 533 -219 533 -219 548 -220 c 128,-1,5
 563 -221 563 -221 577 -222 c 0,6,7
 644 -222 644 -222 675.5 -186.5 c 128,-1,8
 707 -151 707 -151 725 -60 c 2,9,-1
 856 595 l 2,10,11
 882 722 882 722 882 760 c 0,12,13
 882 889 882 889 730 889 c 0,14,15
 663 889 663 889 600.5 851.5 c 128,-1,16
 538 814 538 814 494 750 c 128,-1,17
 450 686 450 686 435 606 c 2,18,-1
 317 0 l 1,19,-1
 35 0 l 1,20,-1
 201 851 l 2,21,22
 209 891 209 891 218.5 948.5 c 128,-1,23
 228 1006 228 1006 239 1082 c 1,24,-1
 507 1082 l 1,25,26
 507 1070 507 1070 502.5 1031.5 c 128,-1,27
 498 993 498 993 492.5 953.5 c 128,-1,28
 487 914 487 914 483 897 c 1,29,-1
 486 897 l 1,30,31
 561 1001 561 1001 651.5 1051 c 128,-1,32
 742 1101 742 1101 859 1101 c 0,33,34
 1011 1101 1011 1101 1088 1028 c 128,-1,35
 1165 955 1165 955 1165 817 c 0,36,37
 1165 792 1165 792 1158 737.5 c 128,-1,38
 1151 683 1151 683 1144 653 c 2,39,-1
 993 -128 l 2,40,41
 968 -266 968 -266 880.5 -345.5 c 128,-1,42
 793 -425 793 -425 649 -425 c 0,0,1
EndSplineSet
EndChar

StartChar: OE
Encoding: 338 338 275
Width: 2048
GlyphClass: 2
Flags: W
LayerCount: 2
Fore
SplineSet
917 0 m 1,0,1
 857 -10 857 -10 706 -10 c 0,2,3
 516 -10 516 -10 381 58.5 c 128,-1,4
 246 127 246 127 174.5 257.5 c 128,-1,5
 103 388 103 388 103 573 c 0,6,7
 103 743 103 743 161.5 901 c 128,-1,8
 220 1059 220 1059 335 1177 c 0,9,10
 449 1296 449 1296 607 1358 c 128,-1,11
 765 1420 765 1420 949 1420 c 0,12,13
 989 1420 989 1420 1023.5 1418.5 c 128,-1,14
 1058 1417 1058 1417 1087 1415 c 2,15,-1
 1150 1409 l 1,16,-1
 2099 1409 l 1,17,-1
 2055 1182 l 1,18,-1
 1388 1182 l 1,19,-1
 1319 827 l 1,20,-1
 1925 827 l 1,21,-1
 1882 606 l 1,22,-1
 1276 606 l 1,23,-1
 1203 231 l 1,24,-1
 1911 231 l 1,25,-1
 1866 0 l 1,26,-1
 917 0 l 1,0,1
736 222 m 0,27,28
 787 222 787 222 830.5 227 c 128,-1,29
 874 232 874 232 909 242 c 1,30,-1
 1089 1169 l 1,31,32
 1058 1179 1058 1179 1009 1183.5 c 128,-1,33
 960 1188 960 1188 939 1188 c 0,34,35
 685 1188 685 1188 547 1020 c 0,36,37
 501 964 501 964 468.5 889.5 c 128,-1,38
 436 815 436 815 419.5 731.5 c 128,-1,39
 403 648 403 648 403 563 c 0,40,41
 403 399 403 399 489 310.5 c 128,-1,42
 575 222 575 222 736 222 c 0,27,28
EndSplineSet
EndChar

StartChar: oe
Encoding: 339 339 276
Width: 1933
GlyphClass: 2
Flags: W
LayerCount: 2
Fore
SplineSet
1163 476 m 1,0,1
 1156 441 1156 441 1156 387 c 0,2,3
 1156 281 1156 281 1202.5 224.5 c 128,-1,4
 1249 168 1249 168 1340 168 c 0,5,6
 1414 168 1414 168 1467 210 c 128,-1,7
 1520 252 1520 252 1553 337 c 1,8,-1
 1798 263 l 1,9,10
 1723 104 1723 104 1612 42 c 128,-1,11
 1501 -20 1501 -20 1321 -20 c 0,12,13
 1074 -20 1074 -20 955 132 c 1,14,15
 887 57 887 57 777.5 18.5 c 128,-1,16
 668 -20 668 -20 530 -20 c 0,17,18
 312 -20 312 -20 185 97.5 c 128,-1,19
 58 215 58 215 58 419 c 0,20,21
 58 620 58 620 138 775 c 256,22,23
 218 930 218 930 364.5 1015.5 c 128,-1,24
 511 1101 511 1101 699 1101 c 0,25,26
 824 1101 824 1101 911 1067.5 c 128,-1,27
 998 1034 998 1034 1068 960 c 1,28,29
 1144 1031 1144 1031 1240 1066.5 c 128,-1,30
 1336 1102 1336 1102 1451 1102 c 0,31,32
 1660 1102 1660 1102 1773.5 994.5 c 128,-1,33
 1887 887 1887 887 1887 691 c 0,34,35
 1887 592 1887 592 1863 476 c 1,36,-1
 1163 476 l 1,0,1
886 662 m 1,37,38
 886 909 886 909 678 909 c 0,39,40
 565 909 565 909 497 849 c 0,41,42
 452 809 452 809 419.5 739.5 c 128,-1,43
 387 670 387 670 370 588.5 c 128,-1,44
 353 507 353 507 353 431 c 0,45,46
 353 307 353 307 405 239.5 c 128,-1,47
 457 172 457 172 562 172 c 0,48,49
 676 172 676 172 741 231 c 256,50,51
 806 290 806 290 843 406.5 c 128,-1,52
 880 523 880 523 886 662 c 1,37,38
1196 663 m 1,53,-1
 1627 663 l 1,54,-1
 1630 719 l 1,55,56
 1630 826 1630 826 1580.5 875 c 128,-1,57
 1531 924 1531 924 1451 924 c 0,58,59
 1355 924 1355 924 1289.5 857.5 c 128,-1,60
 1224 791 1224 791 1196 663 c 1,53,-1
EndSplineSet
EndChar

StartChar: Tbar
Encoding: 358 358 295
Width: 1251
Flags: W
LayerCount: 2
Fore
SplineSet
787 626 m 1,0,-1
 665 0 l 1,1,-1
 370 0 l 1,2,-1
 492 626 l 1,3,-1
 265 626 l 1,4,-1
 302 816 l 1,5,-1
 529 816 l 1,6,-1
 600 1181 l 1,7,-1
 145 1181 l 1,8,-1
 189 1409 l 1,9,-1
 1395 1409 l 1,10,-1
 1351 1181 l 1,11,-1
 895 1181 l 1,12,-1
 824 816 l 1,13,-1
 1052 816 l 1,14,-1
 1015 626 l 1,15,-1
 787 626 l 1,0,-1
EndSplineSet
EndChar

StartChar: tbar
Encoding: 359 359 296
Width: 682
Flags: W
LayerCount: 2
Fore
SplineSet
397 268 m 0,0,1
 397 222 397 222 420.5 199.5 c 128,-1,2
 444 177 444 177 484 177 c 0,3,4
 518 177 518 177 592 190 c 1,5,-1
 560 8 l 1,6,7
 479 -16 479 -16 376 -16 c 0,8,9
 252 -16 252 -16 184 42.5 c 128,-1,10
 116 101 116 101 116 209 c 0,11,12
 116 283 116 283 132 366 c 2,13,-1
 152 473 l 1,14,-1
 26 473 l 1,15,-1
 62 663 l 1,16,-1
 189 663 l 1,17,-1
 234 892 l 1,18,-1
 86 892 l 1,19,-1
 123 1082 l 1,20,-1
 285 1082 l 1,21,-1
 422 1336 l 1,22,-1
 598 1336 l 1,23,-1
 550 1082 l 1,24,-1
 752 1082 l 1,25,-1
 717 892 l 1,26,-1
 512 892 l 1,27,-1
 467 663 l 1,28,-1
 652 663 l 1,29,-1
 615 473 l 1,30,-1
 430 473 l 1,31,-1
 408 357 l 2,32,33
 397 299 397 299 397 268 c 0,0,1
EndSplineSet
EndChar

StartChar: longs
Encoding: 383 383 320
Width: 569
Flags: W
LayerCount: 2
Fore
SplineSet
35 0 m 1,0,-1
 268 1195 l 2,1,2
 298 1350 298 1350 392.5 1417 c 128,-1,3
 487 1484 487 1484 659 1484 c 0,4,5
 729 1484 729 1484 814 1467 c 1,6,-1
 778 1286 l 1,7,8
 767 1288 767 1288 735 1292 c 128,-1,9
 703 1296 703 1296 682 1296 c 0,10,11
 618 1296 618 1296 586 1265 c 0,12,13
 570 1249 570 1249 559.5 1224.5 c 128,-1,14
 549 1200 549 1200 542 1167 c 2,15,-1
 315 0 l 1,16,-1
 35 0 l 1,0,-1
EndSplineSet
EndChar

StartChar: uni0180
Encoding: 384 384 321
Width: 1251
Flags: W
LayerCount: 2
Fore
SplineSet
161 1345 m 1,0,-1
 303 1345 l 1,1,-1
 330 1484 l 1,2,-1
 611 1484 l 1,3,-1
 584 1345 l 1,4,-1
 827 1345 l 1,5,-1
 799 1175 l 1,6,-1
 551 1175 l 1,7,-1
 520 1020 l 2,8,9
 511 979 511 979 503.5 942 c 128,-1,10
 496 905 496 905 488 873 c 1,11,-1
 492 873 l 1,12,13
 555 967 555 967 647 1014.5 c 128,-1,14
 739 1062 739 1062 848 1062 c 0,15,16
 1007 1062 1007 1062 1096 967.5 c 128,-1,17
 1185 873 1185 873 1185 708 c 0,18,19
 1185 488 1185 488 1122 318 c 0,20,21
 1058 149 1058 149 943.5 64.5 c 128,-1,22
 829 -20 829 -20 669 -20 c 0,23,24
 544 -20 544 -20 466 32 c 128,-1,25
 388 84 388 84 356 178 c 1,26,-1
 354 178 l 1,27,28
 344 132 344 132 329 80.5 c 128,-1,29
 314 29 314 29 306 0 c 1,30,-1
 35 0 l 1,31,32
 39 13 39 13 51.5 68.5 c 128,-1,33
 64 124 64 124 84 223 c 2,34,-1
 269 1175 l 1,35,-1
 128 1175 l 1,36,-1
 161 1345 l 1,0,-1
728 867 m 0,37,38
 634 867 634 867 581 837.5 c 128,-1,39
 528 808 528 808 490 745 c 0,40,41
 464 703 464 703 445.5 642 c 128,-1,42
 427 581 427 581 417 517 c 128,-1,43
 407 453 407 453 407 401 c 0,44,45
 407 294 407 294 460 233.5 c 128,-1,46
 513 173 513 173 608 173 c 0,47,48
 717 173 717 173 788 261 c 0,49,50
 822 302 822 302 845 360.5 c 128,-1,51
 868 419 868 419 880 493 c 128,-1,52
 892 567 892 567 892 654 c 0,53,54
 892 765 892 765 851 816 c 128,-1,55
 810 867 810 867 728 867 c 0,37,38
EndSplineSet
EndChar

StartChar: uni0181
Encoding: 385 385 322
Width: 1630
Flags: W
LayerCount: 2
Fore
SplineSet
1575 431 m 0,0,1
 1575 220 1575 220 1418.5 110 c 128,-1,2
 1262 0 1262 0 948 0 c 2,3,-1
 243 0 l 1,4,-1
 475 1195 l 1,5,-1
 455 1195 l 2,6,7
 383 1195 383 1195 345 1157 c 128,-1,8
 307 1119 307 1119 307 1048 c 0,9,10
 307 1029 307 1029 310 1005 c 128,-1,11
 313 981 313 981 319 951 c 1,12,-1
 94 934 l 1,13,14
 92 953 92 953 90.5 974.5 c 128,-1,15
 89 996 89 996 89 1021 c 0,16,17
 89 1220 89 1220 183.5 1314.5 c 128,-1,18
 278 1409 278 1409 476 1409 c 2,19,-1
 1101 1409 l 2,20,21
 1352 1409 1352 1409 1481 1326.5 c 128,-1,22
 1610 1244 1610 1244 1610 1083 c 0,23,24
 1610 805 1610 805 1286 738 c 1,25,26
 1422 715 1422 715 1498.5 632.5 c 128,-1,27
 1575 550 1575 550 1575 431 c 0,0,1
701 841 m 1,28,-1
 995 841 l 2,29,30
 1170 841 1170 841 1243.5 887 c 128,-1,31
 1317 933 1317 933 1317 1038 c 0,32,33
 1317 1118 1317 1118 1260 1154 c 128,-1,34
 1203 1190 1203 1190 1069 1190 c 2,35,-1
 768 1190 l 1,36,-1
 701 841 l 1,28,-1
580 219 m 1,37,-1
 908 219 l 2,38,39
 1117 219 1117 219 1198 269.5 c 128,-1,40
 1279 320 1279 320 1279 437 c 0,41,42
 1279 527 1279 527 1211 575 c 128,-1,43
 1143 623 1143 623 989 623 c 2,44,-1
 659 623 l 1,45,-1
 580 219 l 1,37,-1
EndSplineSet
EndChar

StartChar: uni0182
Encoding: 386 386 323
Width: 1450
Flags: W
LayerCount: 2
Fore
SplineSet
309 1409 m 1,0,-1
 1368 1409 l 1,1,-1
 1324 1182 l 1,2,-1
 560 1182 l 1,3,-1
 495 848 l 1,4,-1
 869 848 l 2,5,6
 1101 848 1101 848 1235.5 744.5 c 128,-1,7
 1370 641 1370 641 1370 462 c 0,8,9
 1370 241 1370 241 1208 120.5 c 128,-1,10
 1046 0 1046 0 756 0 c 2,11,-1
 36 0 l 1,12,-1
 309 1409 l 1,0,-1
375 230 m 1,13,-1
 766 230 l 2,14,15
 911 230 911 230 988.5 285 c 128,-1,16
 1066 340 1066 340 1066 441 c 0,17,18
 1066 530 1066 530 1004 575.5 c 128,-1,19
 942 621 942 621 805 621 c 2,20,-1
 451 621 l 1,21,-1
 375 230 l 1,13,-1
EndSplineSet
EndChar

StartChar: uni0183
Encoding: 387 387 324
Width: 1251
Flags: W
LayerCount: 2
Fore
SplineSet
855 1102 m 0,0,1
 1014 1102 1014 1102 1103 1007.5 c 128,-1,2
 1192 913 1192 913 1192 748 c 0,3,4
 1192 547 1192 547 1130 355 c 256,5,6
 1068 163 1068 163 955.5 71.5 c 128,-1,7
 843 -20 843 -20 669 -20 c 0,8,9
 544 -20 544 -20 466.5 32 c 128,-1,10
 389 84 389 84 357 178 c 1,11,-1
 354 178 l 1,12,13
 344 132 344 132 329 80.5 c 128,-1,14
 314 29 314 29 306 0 c 1,15,-1
 35 0 l 1,16,17
 38 8 38 8 44 35 c 128,-1,18
 50 62 50 62 60 108 c 2,19,-1
 330 1484 l 1,20,-1
 1111 1484 l 1,21,-1
 1075 1271 l 1,22,-1
 569 1271 l 1,23,24
 560 1226 560 1226 552 1187 c 128,-1,25
 544 1148 544 1148 537 1113 c 0,26,27
 521 1037 521 1037 510.5 987 c 128,-1,28
 500 937 500 937 495 913 c 1,29,-1
 499 913 l 1,30,31
 562 1007 562 1007 654 1054.5 c 128,-1,32
 746 1102 746 1102 855 1102 c 0,0,1
735 907 m 0,33,34
 578 907 578 907 496 766 c 0,35,36
 469 718 469 718 449 652.5 c 128,-1,37
 429 587 429 587 418 520.5 c 128,-1,38
 407 454 407 454 407 401 c 0,39,40
 407 294 407 294 460 233.5 c 128,-1,41
 513 173 513 173 608 173 c 0,42,43
 709 173 709 173 766 236 c 0,44,45
 795 267 795 267 819 323.5 c 128,-1,46
 843 380 843 380 861 447.5 c 128,-1,47
 879 515 879 515 889 580.5 c 128,-1,48
 899 646 899 646 899 694 c 0,49,50
 899 799 899 799 863.5 853 c 128,-1,51
 828 907 828 907 735 907 c 0,33,34
EndSplineSet
EndChar

StartChar: uni0184
Encoding: 388 388 325
Width: 1450
Flags: W
LayerCount: 2
Fore
SplineSet
495 848 m 1,0,-1
 869 848 l 2,1,2
 1101 848 1101 848 1235.5 744.5 c 128,-1,3
 1370 641 1370 641 1370 462 c 0,4,5
 1370 241 1370 241 1208 120.5 c 128,-1,6
 1046 0 1046 0 756 0 c 2,7,-1
 36 0 l 1,8,-1
 230 1003 l 1,9,-1
 112 1206 l 1,10,-1
 118 1242 l 1,11,-1
 529 1409 l 1,12,-1
 604 1409 l 1,13,-1
 495 848 l 1,0,-1
375 230 m 1,14,-1
 766 230 l 2,15,16
 911 230 911 230 988.5 285 c 128,-1,17
 1066 340 1066 340 1066 441 c 0,18,19
 1066 530 1066 530 1004 575.5 c 128,-1,20
 942 621 942 621 805 621 c 2,21,-1
 451 621 l 1,22,-1
 375 230 l 1,14,-1
EndSplineSet
EndChar

StartChar: uni0185
Encoding: 389 389 326
Width: 1251
Flags: W
LayerCount: 2
Fore
SplineSet
855 1102 m 0,0,1
 1015 1102 1015 1102 1105 1006 c 0,2,3
 1192 911 1192 911 1192 748 c 0,4,5
 1192 690 1192 690 1187 632 c 128,-1,6
 1182 574 1182 574 1171 516 c 0,7,8
 1143 374 1143 374 1099 272.5 c 128,-1,9
 1055 171 1055 171 993 106 c 0,10,11
 930 41 930 41 849.5 10.5 c 128,-1,12
 769 -20 769 -20 669 -20 c 0,13,14
 544 -20 544 -20 466 32 c 128,-1,15
 388 84 388 84 356 178 c 1,16,-1
 354 178 l 1,17,18
 344 132 344 132 329 80.5 c 128,-1,19
 314 29 314 29 306 0 c 1,20,-1
 35 0 l 1,21,22
 40 14 40 14 48 51.5 c 128,-1,23
 56 89 56 89 66 136 c 128,-1,24
 76 183 76 183 84 223 c 2,25,-1
 254 1097 l 1,26,-1
 142 1290 l 1,27,-1
 147 1325 l 1,28,-1
 539 1484 l 1,29,-1
 611 1484 l 1,30,31
 598 1419 598 1419 587 1363.5 c 128,-1,32
 576 1308 576 1308 567 1261 c 0,33,34
 548 1167 548 1167 535.5 1104 c 128,-1,35
 523 1041 523 1041 515 1003 c 0,36,37
 511 986 511 986 503.5 951 c 128,-1,38
 496 916 496 916 495 913 c 1,39,-1
 499 913 l 1,40,41
 557 999 557 999 647.5 1050.5 c 128,-1,42
 738 1102 738 1102 855 1102 c 0,0,1
735 907 m 0,43,44
 682 907 682 907 634.5 890.5 c 128,-1,45
 587 874 587 874 547 834 c 256,46,47
 507 794 507 794 475.5 725.5 c 128,-1,48
 444 657 444 657 424 554 c 0,49,50
 407 463 407 463 407 401 c 0,51,52
 407 293 407 293 460.5 233 c 128,-1,53
 514 173 514 173 608 173 c 0,54,55
 659 173 659 173 699.5 188.5 c 128,-1,56
 740 204 740 204 773 243 c 0,57,58
 805 281 805 281 830.5 347.5 c 128,-1,59
 856 414 856 414 877 516 c 0,60,61
 899 616 899 616 899 694 c 0,62,63
 899 799 899 799 863.5 853 c 128,-1,64
 828 907 828 907 735 907 c 0,43,44
EndSplineSet
EndChar

StartChar: uni0186
Encoding: 390 390 327
Width: 1479
Flags: W
LayerCount: 2
Fore
SplineSet
121 1027 m 1,0,1
 247 1238 247 1238 420 1334 c 128,-1,2
 593 1430 593 1430 827 1430 c 0,3,4
 1019 1430 1019 1430 1158 1361 c 0,5,6
 1298 1291 1298 1291 1371.5 1164 c 128,-1,7
 1445 1037 1445 1037 1445 871 c 0,8,9
 1445 611 1445 611 1342 408 c 0,10,11
 1239 203 1239 203 1048.5 91.5 c 128,-1,12
 858 -20 858 -20 605 -20 c 0,13,14
 374 -20 374 -20 223.5 83.5 c 128,-1,15
 73 187 73 187 37 372 c 1,16,-1
 311 443 l 1,17,18
 330 338 330 338 420.5 275 c 128,-1,19
 511 212 511 212 644 212 c 0,20,21
 797 212 797 212 909 294 c 0,22,23
 1022 375 1022 375 1081.5 522.5 c 128,-1,24
 1141 670 1141 670 1141 860 c 0,25,26
 1141 1021 1141 1021 1045.5 1109.5 c 128,-1,27
 950 1198 950 1198 782 1198 c 0,28,29
 650 1198 650 1198 544.5 1131 c 128,-1,30
 439 1064 439 1064 359 930 c 1,31,-1
 121 1027 l 1,0,1
EndSplineSet
EndChar

StartChar: uni0187
Encoding: 391 391 328
Width: 1479
Flags: W
LayerCount: 2
Fore
SplineSet
1376 352 m 1,0,1
 1272 166 1272 166 1104 73 c 128,-1,2
 936 -20 936 -20 711 -20 c 0,3,4
 519 -20 519 -20 381 52 c 256,5,6
 243 124 243 124 171.5 258 c 128,-1,7
 100 392 100 392 100 569 c 0,8,9
 100 821 100 821 205 1020 c 0,10,11
 310 1218 310 1218 498.5 1324 c 128,-1,12
 687 1430 687 1430 927 1430 c 0,13,14
 1151 1430 1151 1430 1296 1337 c 1,15,-1
 1311 1417 l 2,16,17
 1339 1560 1339 1560 1435.5 1633.5 c 128,-1,18
 1532 1707 1532 1707 1681 1707 c 0,19,20
 1754 1707 1754 1707 1830 1690 c 1,21,-1
 1790 1486 l 1,22,23
 1735 1498 1735 1498 1705 1498 c 0,24,25
 1653 1498 1653 1498 1617 1468 c 128,-1,26
 1581 1438 1581 1438 1565 1357 c 2,27,-1
 1503 1038 l 1,28,-1
 1229 967 l 1,29,30
 1200 1074 1200 1074 1117.5 1136 c 128,-1,31
 1035 1198 1035 1198 918 1198 c 0,32,33
 767 1198 767 1198 655 1130 c 0,34,35
 534 1058 534 1058 467.5 915 c 128,-1,36
 401 772 401 772 401 573 c 0,37,38
 401 400 401 400 486.5 305.5 c 128,-1,39
 572 211 572 211 731 211 c 0,40,41
 864 211 864 211 968.5 275.5 c 128,-1,42
 1073 340 1073 340 1149 469 c 1,43,-1
 1376 352 l 1,0,1
EndSplineSet
EndChar

StartChar: uni0188
Encoding: 392 392 329
Width: 1139
Flags: W
LayerCount: 2
Fore
SplineSet
536 173 m 0,0,1
 619 173 619 173 673 225.5 c 128,-1,2
 727 278 727 278 759 381 c 1,3,-1
 1030 331 l 1,4,5
 925 -20 925 -20 520 -20 c 0,6,7
 300 -20 300 -20 181.5 92.5 c 128,-1,8
 63 205 63 205 63 405 c 0,9,10
 63 601 63 601 142 771 c 0,11,12
 221 942 221 942 352.5 1022 c 128,-1,13
 484 1102 484 1102 680 1102 c 0,14,15
 815 1102 815 1102 918 1049 c 1,16,17
 946 1189 946 1189 1038.5 1258.5 c 128,-1,18
 1131 1328 1131 1328 1272 1328 c 0,19,20
 1346 1328 1346 1328 1420 1311 c 1,21,-1
 1381 1110 l 1,22,23
 1326 1122 1326 1122 1296 1122 c 0,24,25
 1244 1122 1244 1122 1208 1092 c 128,-1,26
 1172 1062 1172 1062 1156 981 c 2,27,-1
 1109 741 l 1,28,-1
 825 718 l 1,29,30
 820 813 820 813 778 861 c 128,-1,31
 736 909 736 909 658 909 c 0,32,33
 567 909 567 909 512 858 c 0,34,35
 472 821 472 821 441 752 c 128,-1,36
 410 683 410 683 381 575 c 1,37,38
 358 457 358 457 358 407 c 0,39,40
 358 173 358 173 536 173 c 0,0,1
EndSplineSet
EndChar

StartChar: uni018A
Encoding: 394 394 331
Width: 1623
Flags: W
LayerCount: 2
Fore
SplineSet
906 1409 m 2,0,1
 1128 1409 1128 1409 1281.5 1339.5 c 128,-1,2
 1435 1270 1435 1270 1514 1136 c 128,-1,3
 1593 1002 1593 1002 1593 807 c 0,4,5
 1593 572 1593 572 1494 390 c 0,6,7
 1395 209 1395 209 1207 104.5 c 128,-1,8
 1019 0 1019 0 786 0 c 2,9,-1
 240 0 l 1,10,-1
 472 1195 l 1,11,-1
 455 1195 l 2,12,13
 383 1195 383 1195 345 1157 c 128,-1,14
 307 1119 307 1119 307 1048 c 0,15,16
 307 1029 307 1029 310 1005 c 128,-1,17
 313 981 313 981 319 951 c 1,18,-1
 94 934 l 1,19,20
 92 953 92 953 90.5 974.5 c 128,-1,21
 89 996 89 996 89 1021 c 0,22,23
 89 1220 89 1220 183.5 1314.5 c 128,-1,24
 278 1409 278 1409 476 1409 c 2,25,-1
 906 1409 l 2,0,1
579 228 m 1,26,-1
 777 228 l 2,27,28
 937 228 937 228 1061 297 c 0,29,30
 1184 365 1184 365 1250.5 494 c 128,-1,31
 1317 623 1317 623 1317 794 c 0,32,33
 1317 983 1317 983 1211.5 1082 c 128,-1,34
 1106 1181 1106 1181 908 1181 c 2,35,-1
 764 1181 l 1,36,-1
 579 228 l 1,26,-1
EndSplineSet
EndChar

StartChar: uni018B
Encoding: 395 395 332
Width: 1366
Flags: W
LayerCount: 2
Fore
SplineSet
480 0 m 2,0,1
 341 0 341 0 242 46 c 0,2,3
 141 92 141 92 87 176 c 128,-1,4
 33 260 33 260 33 370 c 0,5,6
 33 515 33 515 106 621 c 0,7,8
 178 728 178 728 308 784.5 c 128,-1,9
 438 841 438 841 611 841 c 2,10,-1
 1020 841 l 1,11,-1
 1086 1182 l 1,12,-1
 380 1182 l 1,13,-1
 424 1409 l 1,14,-1
 1425 1409 l 1,15,-1
 1152 0 l 1,16,-1
 480 0 l 2,0,1
978 623 m 1,17,-1
 641 623 l 2,18,19
 490 623 490 623 412.5 563.5 c 128,-1,20
 335 504 335 504 335 392 c 0,21,22
 335 306 335 306 393.5 262.5 c 128,-1,23
 452 219 452 219 570 219 c 2,24,-1
 899 219 l 1,25,-1
 978 623 l 1,17,-1
EndSplineSet
EndChar

StartChar: uni018C
Encoding: 396 396 333
Width: 1251
Flags: W
LayerCount: 2
Fore
SplineSet
392 -21 m 0,0,1
 238 -21 238 -21 148 81 c 128,-1,2
 58 183 58 183 58 354 c 0,3,4
 58 546 58 546 122 728 c 0,5,6
 186 911 186 911 301.5 1006.5 c 128,-1,7
 417 1102 417 1102 580 1102 c 0,8,9
 704 1102 704 1102 784.5 1051.5 c 128,-1,10
 865 1001 865 1001 894 904 c 1,11,-1
 899 904 l 1,12,13
 901 920 901 920 904 941 c 128,-1,14
 907 962 907 962 911 987 c 256,15,16
 915 1012 915 1012 929 1083 c 128,-1,17
 943 1154 943 1154 966 1271 c 1,18,-1
 460 1271 l 1,19,-1
 506 1484 l 1,20,-1
 1286 1484 l 1,21,-1
 1048 231 l 2,22,23
 1038 175 1038 175 1031 117 c 128,-1,24
 1024 59 1024 59 1019 0 c 1,25,-1
 738 0 l 1,26,27
 738 31 738 31 742.5 80.5 c 128,-1,28
 747 130 747 130 753 160 c 1,29,-1
 749 160 l 1,30,31
 678 67 678 67 595.5 23 c 128,-1,32
 513 -21 513 -21 392 -21 c 0,0,1
515 172 m 0,33,34
 671 172 671 172 752 313 c 0,35,36
 780 361 780 361 800 426.5 c 128,-1,37
 820 492 820 492 831 559.5 c 128,-1,38
 842 627 842 627 842 681 c 0,39,40
 842 801 842 801 795 855.5 c 128,-1,41
 748 910 748 910 654 910 c 0,42,43
 553 910 553 910 488 841 c 0,44,45
 445 795 445 795 415.5 718.5 c 128,-1,46
 386 642 386 642 370.5 555.5 c 128,-1,47
 355 469 355 469 355 393 c 0,48,49
 355 283 355 283 395 227.5 c 128,-1,50
 435 172 435 172 515 172 c 0,33,34
EndSplineSet
EndChar

StartChar: uni018D
Encoding: 397 397 334
Width: 1250
Flags: W
LayerCount: 2
Fore
SplineSet
1203 678 m 0,0,1
 1203 506 1203 506 1139 369 c 0,2,3
 1075 231 1075 231 951.5 138 c 128,-1,4
 828 45 828 45 655 9 c 1,5,-1
 953 -244 l 1,6,-1
 918 -424 l 1,7,-1
 -5 -424 l 1,8,-1
 35 -221 l 1,9,-1
 440 -221 l 1,10,-1
 572 -221 l 1,11,-1
 273 41 l 2,12,13
 192 114 192 114 160 166 c 0,14,15
 125 220 125 220 104 288 c 128,-1,16
 83 356 83 356 83 444 c 0,17,18
 83 632 83 632 166 784 c 0,19,20
 249 934 249 934 399.5 1018 c 128,-1,21
 550 1102 550 1102 745 1102 c 0,22,23
 964 1102 964 1102 1083.5 990 c 128,-1,24
 1203 878 1203 878 1203 678 c 0,0,1
911 689 m 0,25,26
 911 794 911 794 855 851.5 c 128,-1,27
 799 909 799 909 698 909 c 0,28,29
 595 909 595 909 524 847 c 0,30,31
 476 805 476 805 443.5 741 c 128,-1,32
 411 677 411 677 394 596.5 c 128,-1,33
 377 516 377 516 377 422 c 0,34,35
 377 306 377 306 428.5 249 c 128,-1,36
 480 192 480 192 567 192 c 0,37,38
 618 192 618 192 662.5 207 c 128,-1,39
 707 222 707 222 745 252 c 0,40,41
 796 292 796 292 833 358.5 c 128,-1,42
 870 425 870 425 890.5 510 c 128,-1,43
 911 595 911 595 911 689 c 0,25,26
EndSplineSet
EndChar

StartChar: uni018E
Encoding: 398 398 335
Width: 1366
Flags: W
LayerCount: 2
Fore
SplineSet
20 0 m 1,0,-1
 64 228 l 1,1,-1
 877 228 l 1,2,-1
 946 582 l 1,3,-1
 194 582 l 1,4,-1
 238 810 l 1,5,-1
 990 810 l 1,6,-1
 1062 1181 l 1,7,-1
 208 1181 l 1,8,-1
 253 1409 l 1,9,-1
 1401 1409 l 1,10,-1
 1128 0 l 1,11,-1
 20 0 l 1,0,-1
EndSplineSet
EndChar

StartChar: uni018F
Encoding: 399 399 336
Width: 1531
Flags: W
LayerCount: 2
Fore
SplineSet
1161 848 m 1,0,1
 1162 861 1162 861 1162.5 875 c 128,-1,2
 1163 889 1163 889 1163 903 c 0,3,4
 1163 1032 1163 1032 1080 1116 c 128,-1,5
 997 1200 997 1200 869 1200 c 0,6,7
 786 1200 786 1200 727 1182 c 0,8,9
 669 1163 669 1163 624.5 1124.5 c 128,-1,10
 580 1086 580 1086 524 997 c 1,11,-1
 265 1070 l 1,12,13
 352 1258 352 1258 498.5 1344 c 128,-1,14
 645 1430 645 1430 873 1430 c 0,15,16
 1053 1430 1053 1430 1186.5 1358 c 128,-1,17
 1320 1286 1320 1286 1393.5 1153 c 128,-1,18
 1467 1020 1467 1020 1467 837 c 0,19,20
 1467 593 1467 593 1360 396 c 0,21,22
 1252 199 1252 199 1064 89.5 c 128,-1,23
 876 -20 876 -20 643 -20 c 0,24,25
 481 -20 481 -20 360 53 c 0,26,27
 239 125 239 125 173 255.5 c 128,-1,28
 107 386 107 386 107 545 c 0,29,30
 107 697 107 697 155 848 c 1,31,-1
 1161 848 l 1,0,1
700 206 m 0,32,33
 852 206 852 206 961.5 313 c 128,-1,34
 1071 420 1071 420 1119 613 c 1,35,-1
 409 613 l 1,36,37
 402 572 402 572 402 520 c 0,38,39
 402 375 402 375 480.5 290.5 c 128,-1,40
 559 206 559 206 700 206 c 0,32,33
EndSplineSet
EndChar

StartChar: uni0190
Encoding: 400 400 337
Width: 1316
Flags: W
LayerCount: 2
Fore
SplineSet
563 -20 m 0,0,1
 419 -20 419 -20 304 27 c 0,2,3
 190 74 190 74 128 156.5 c 128,-1,4
 66 239 66 239 66 343 c 0,5,6
 66 500 66 500 166 600 c 128,-1,7
 266 700 266 700 454 726 c 1,8,9
 349 757 349 757 289 826.5 c 128,-1,10
 229 896 229 896 229 995 c 0,11,12
 229 1121 229 1121 300 1222 c 0,13,14
 371 1321 371 1321 498.5 1375 c 128,-1,15
 626 1429 626 1429 783 1429 c 0,16,17
 1001 1429 1001 1429 1133 1329 c 128,-1,18
 1265 1229 1265 1229 1305 1036 c 1,19,-1
 1033 976 l 1,20,21
 1006 1103 1006 1103 940.5 1157.5 c 128,-1,22
 875 1212 875 1212 766 1212 c 0,23,24
 649 1212 649 1212 580.5 1158 c 128,-1,25
 512 1104 512 1104 512 1001 c 0,26,27
 512 924 512 924 577 876.5 c 128,-1,28
 642 829 642 829 774 829 c 2,29,-1
 833 829 l 1,30,-1
 789 602 l 1,31,-1
 730 602 l 2,32,33
 531 602 531 602 445.5 551.5 c 128,-1,34
 360 501 360 501 360 387 c 0,35,36
 360 304 360 304 428 256 c 128,-1,37
 496 208 496 208 613 208 c 0,38,39
 850 208 850 208 979 461 c 1,40,-1
 1226 329 l 1,41,42
 1163 210 1163 210 1077 135 c 0,43,44
 984 53 984 53 858.5 16.5 c 128,-1,45
 733 -20 733 -20 563 -20 c 0,0,1
EndSplineSet
EndChar

StartChar: uni0191
Encoding: 401 401 338
Width: 1251
Flags: W
LayerCount: 2
Fore
SplineSet
313 -86 m 2,0,1
 277 -267 277 -267 183.5 -346 c 128,-1,2
 90 -425 90 -425 -95 -425 c 0,3,4
 -167 -425 -167 -425 -255 -405 c 1,5,-1
 -213 -185 l 1,6,7
 -151 -198 -151 -198 -120 -198 c 0,8,9
 -56 -198 -56 -198 -21.5 -159.5 c 128,-1,10
 13 -121 13 -121 28 -42 c 2,11,-1
 309 1409 l 1,12,-1
 1295 1409 l 1,13,-1
 1251 1181 l 1,14,-1
 560 1181 l 1,15,-1
 475 745 l 1,16,-1
 1143 745 l 1,17,-1
 1099 517 l 1,18,-1
 431 517 l 1,19,-1
 313 -86 l 2,0,1
EndSplineSet
EndChar

StartChar: florin
Encoding: 402 402 339
Width: 1139
GlyphClass: 2
Flags: W
LayerCount: 2
Fore
SplineSet
1045 1286 m 1,0,1
 1034 1288 1034 1288 1002 1292 c 128,-1,2
 970 1296 970 1296 949 1296 c 0,3,4
 882 1296 882 1296 852 1264 c 128,-1,5
 822 1232 822 1232 809 1167 c 2,6,-1
 793 1082 l 1,7,-1
 1006 1082 l 1,8,-1
 969 892 l 1,9,-1
 756 892 l 1,10,-1
 498 -425 l 1,11,-1
 218 -425 l 1,12,-1
 476 892 l 1,13,-1
 318 892 l 1,14,-1
 355 1082 l 1,15,-1
 513 1082 l 1,16,-1
 535 1195 l 2,17,18
 565 1350 565 1350 659.5 1417 c 128,-1,19
 754 1484 754 1484 926 1484 c 0,20,21
 996 1484 996 1484 1081 1467 c 1,22,-1
 1045 1286 l 1,0,1
EndSplineSet
EndChar

StartChar: uni0193
Encoding: 403 403 340
Width: 1593
Flags: W
LayerCount: 2
Fore
SplineSet
740 -19 m 0,0,1
 440 -19 440 -19 270 139.5 c 128,-1,2
 100 298 100 298 100 583 c 0,3,4
 100 831 100 831 204 1025 c 0,5,6
 308 1218 308 1218 500 1324 c 128,-1,7
 692 1430 692 1430 942 1430 c 0,8,9
 1170 1430 1170 1430 1321 1328 c 1,10,-1
 1338 1417 l 2,11,12
 1366 1560 1366 1560 1462.5 1633.5 c 128,-1,13
 1559 1707 1559 1707 1708 1707 c 0,14,15
 1781 1707 1781 1707 1857 1690 c 1,16,-1
 1817 1486 l 1,17,18
 1762 1498 1762 1498 1732 1498 c 0,19,20
 1680 1498 1680 1498 1644 1468 c 128,-1,21
 1608 1438 1608 1438 1592 1357 c 2,22,-1
 1530 1039 l 1,23,-1
 1248 961 l 1,24,25
 1219 1074 1219 1074 1136 1136 c 128,-1,26
 1053 1198 1053 1198 926 1198 c 0,27,28
 766 1198 766 1198 646 1123 c 0,29,30
 526 1047 526 1047 462.5 909.5 c 128,-1,31
 399 772 399 772 399 592 c 0,32,33
 399 415 399 415 494 313 c 128,-1,34
 589 211 589 211 764 211 c 0,35,36
 872 211 872 211 974 237 c 128,-1,37
 1076 263 1076 263 1148 307 c 1,38,-1
 1194 535 l 1,39,-1
 852 535 l 1,40,-1
 891 743 l 1,41,-1
 1505 743 l 1,42,-1
 1400 175 l 1,43,44
 1253 72 1253 72 1096 26.5 c 128,-1,45
 939 -19 939 -19 740 -19 c 0,0,1
EndSplineSet
EndChar

StartChar: uni0194
Encoding: 404 404 341
Width: 1271
Flags: W
LayerCount: 2
Fore
SplineSet
470 -425 m 0,0,1
 347 -425 347 -425 272 -357 c 128,-1,2
 197 -289 197 -289 197 -179 c 0,3,4
 197 -118 197 -118 222.5 -52.5 c 128,-1,5
 248 13 248 13 313 104 c 0,6,7
 339 140 339 140 373 181.5 c 128,-1,8
 407 223 407 223 448 270 c 1,9,-1
 179 1409 l 1,10,-1
 487 1409 l 1,11,-1
 652 543 l 1,12,-1
 1152 1409 l 1,13,-1
 1457 1409 l 1,14,-1
 747 270 l 1,15,16
 809 93 809 93 825 26 c 0,17,18
 841 -42 841 -42 841 -96 c 0,19,20
 841 -201 841 -201 794 -275 c 0,21,22
 751 -346 751 -346 668 -385.5 c 128,-1,23
 585 -425 585 -425 470 -425 c 0,0,1
505 -218 m 0,24,25
 557 -218 557 -218 581 -182 c 128,-1,26
 605 -146 605 -146 605 -95 c 0,27,28
 605 -32 605 -32 591 14 c 128,-1,29
 577 60 577 60 565 95 c 1,30,-1
 525 44 l 2,31,32
 482 -10 482 -10 460.5 -56 c 128,-1,33
 439 -102 439 -102 439 -140 c 0,34,35
 439 -172 439 -172 456 -195 c 128,-1,36
 473 -218 473 -218 505 -218 c 0,24,25
EndSplineSet
EndChar

StartChar: uni0195
Encoding: 405 405 342
Width: 1912
Flags: W
LayerCount: 2
Fore
SplineSet
1227 -20 m 0,0,1
 1029 -20 1029 -20 920.5 62 c 128,-1,2
 812 144 812 144 812 296 c 0,3,4
 812 346 812 346 819.5 400 c 128,-1,5
 827 454 827 454 837 507 c 2,6,-1
 856 601 l 2,7,8
 866 646 866 646 874 690.5 c 128,-1,9
 882 735 882 735 882 760 c 0,10,11
 882 889 882 889 730 889 c 0,12,13
 663 889 663 889 601 852 c 128,-1,14
 539 815 539 815 495 751 c 128,-1,15
 451 687 451 687 435 606 c 2,16,-1
 317 0 l 1,17,-1
 35 0 l 1,18,-1
 321 1484 l 1,19,-1
 601 1484 l 1,20,-1
 522 1079 l 2,21,22
 512 1033 512 1033 502.5 988 c 128,-1,23
 493 943 493 943 483 897 c 1,24,-1
 486 897 l 1,25,26
 562 1004 562 1004 652.5 1052.5 c 128,-1,27
 743 1101 743 1101 859 1101 c 0,28,29
 1011 1101 1011 1101 1088 1028 c 128,-1,30
 1165 955 1165 955 1165 817 c 0,31,32
 1165 783 1165 783 1159 733 c 128,-1,33
 1153 683 1153 683 1139 615 c 2,34,-1
 1118 510 l 2,35,36
 1093 388 1093 388 1093 357 c 0,37,38
 1093 270 1093 270 1130.5 230.5 c 128,-1,39
 1168 191 1168 191 1243 191 c 0,40,41
 1338 191 1338 191 1397 255.5 c 128,-1,42
 1456 320 1456 320 1481 448 c 2,43,-1
 1605 1082 l 1,44,-1
 1885 1082 l 1,45,-1
 1763 456 l 2,46,47
 1715 210 1715 210 1584.5 95 c 128,-1,48
 1454 -20 1454 -20 1227 -20 c 0,0,1
EndSplineSet
EndChar

StartChar: uni0196
Encoding: 406 406 343
Width: 569
Flags: W
LayerCount: 2
Fore
SplineSet
348 151 m 0,0,1
 348 106 348 106 358 67.5 c 128,-1,2
 368 29 368 29 390 0 c 1,3,-1
 90 0 l 1,4,5
 63 49 63 49 63 130 c 0,6,7
 63 175 63 175 74 236 c 2,8,-1
 317 1484 l 1,9,-1
 599 1484 l 1,10,-1
 357 241 l 2,11,12
 352 216 352 216 350 194.5 c 128,-1,13
 348 173 348 173 348 151 c 0,0,1
EndSplineSet
EndChar

StartChar: uni0197
Encoding: 407 407 344
Width: 569
Flags: W
LayerCount: 2
Fore
SplineSet
437 626 m 1,0,-1
 315 0 l 1,1,-1
 34 0 l 1,2,-1
 156 626 l 1,3,-1
 13 626 l 1,4,-1
 56 847 l 1,5,-1
 199 847 l 1,6,-1
 323 1484 l 1,7,-1
 604 1484 l 1,8,-1
 480 847 l 1,9,-1
 636 847 l 1,10,-1
 593 626 l 1,11,-1
 437 626 l 1,0,-1
EndSplineSet
EndChar

StartChar: uni0198
Encoding: 408 408 345
Width: 1479
Flags: W
LayerCount: 2
Fore
SplineSet
856 793 m 1,0,-1
 1321 0 l 1,1,-1
 995 0 l 1,2,-1
 640 640 l 1,3,-1
 429 517 l 1,4,-1
 330 0 l 1,5,-1
 36 0 l 1,6,-1
 309 1409 l 1,7,-1
 603 1409 l 1,8,-1
 474 770 l 1,9,-1
 663 929 l 1,10,-1
 1031 1241 l 2,11,12
 1087 1288 1087 1288 1134.5 1322.5 c 128,-1,13
 1182 1357 1182 1357 1226 1379 c 0,14,15
 1322 1430 1322 1430 1434 1430 c 0,16,17
 1477 1430 1477 1430 1511.5 1424 c 128,-1,18
 1546 1418 1546 1418 1575 1410 c 1,19,-1
 1531 1190 l 1,20,21
 1506 1195 1506 1195 1481.5 1199 c 128,-1,22
 1457 1203 1457 1203 1435 1203 c 0,23,24
 1388 1203 1388 1203 1336 1177 c 0,25,26
 1285 1151 1285 1151 1220 1095 c 2,27,-1
 856 793 l 1,0,-1
EndSplineSet
EndChar

StartChar: uni0199
Encoding: 409 409 346
Width: 1139
Flags: W
LayerCount: 2
Fore
SplineSet
400 422 m 1,0,-1
 315 0 l 1,1,-1
 35 0 l 1,2,-1
 264 1181 l 2,3,4
 293 1335 293 1335 383.5 1409.5 c 128,-1,5
 474 1484 474 1484 638 1484 c 0,6,7
 722 1484 722 1484 798 1467 c 1,8,-1
 758 1263 l 1,9,10
 703 1275 703 1275 673 1275 c 0,11,12
 621 1275 621 1275 586 1245 c 128,-1,13
 551 1215 551 1215 534 1134 c 2,14,-1
 437 634 l 1,15,-1
 625 815 l 1,16,-1
 902 1082 l 1,17,-1
 1224 1082 l 1,18,-1
 751 660 l 1,19,-1
 1026 0 l 1,20,-1
 728 0 l 1,21,-1
 540 497 l 1,22,-1
 400 422 l 1,0,-1
EndSplineSet
EndChar

StartChar: uni019A
Encoding: 410 410 347
Width: 569
Flags: W
LayerCount: 2
Fore
SplineSet
436 623 m 1,0,-1
 315 0 l 1,1,-1
 35 0 l 1,2,-1
 156 623 l 1,3,-1
 3 623 l 1,4,-1
 44 827 l 1,5,-1
 195 827 l 1,6,-1
 323 1484 l 1,7,-1
 604 1484 l 1,8,-1
 476 827 l 1,9,-1
 647 827 l 1,10,-1
 606 623 l 1,11,-1
 436 623 l 1,0,-1
EndSplineSet
EndChar

StartChar: uni019B
Encoding: 411 411 348
Width: 1139
Flags: W
LayerCount: 2
Fore
SplineSet
996 1293 m 1,0,-1
 793 1213 l 1,1,-1
 1026 0 l 1,2,-1
 732 0 l 1,3,-1
 652 511 l 2,4,5
 644 564 644 564 635 617.5 c 128,-1,6
 626 671 626 671 618 724 c 1,7,8
 603 698 603 698 588.5 671.5 c 128,-1,9
 574 645 574 645 559 619 c 128,-1,10
 544 593 544 593 529.5 566.5 c 128,-1,11
 515 540 515 540 500 514 c 2,12,-1
 211 0 l 1,13,-1
 -85 0 l 1,14,-1
 531 1034 l 1,15,-1
 522 1106 l 1,16,-1
 218 986 l 1,17,-1
 178 1159 l 1,18,-1
 485 1280 l 1,19,-1
 443 1484 l 1,20,-1
 741 1484 l 1,21,-1
 759 1388 l 1,22,-1
 955 1466 l 1,23,-1
 996 1293 l 1,0,-1
EndSplineSet
EndChar

StartChar: uni019C
Encoding: 412 412 349
Width: 1865
Flags: W
LayerCount: 2
Fore
SplineSet
1020 -20 m 0,0,1
 945 -20 945 -20 900 2 c 0,2,3
 852 24 852 24 821 64 c 128,-1,4
 790 104 790 104 767 185 c 1,5,-1
 760 185 l 1,6,7
 725 143 725 143 694 112.5 c 128,-1,8
 663 82 663 82 637 62 c 0,9,10
 583 22 583 22 518.5 1 c 128,-1,11
 454 -20 454 -20 375 -20 c 0,12,13
 225 -20 225 -20 148 54.5 c 128,-1,14
 71 129 71 129 71 276 c 0,15,16
 71 333 71 333 83 396 c 2,17,-1
 280 1409 l 1,18,-1
 575 1409 l 1,19,-1
 394 476 l 2,20,21
 371 356 371 356 371 313 c 0,22,23
 371 250 371 250 400 220.5 c 128,-1,24
 429 191 429 191 489 191 c 0,25,26
 593 191 593 191 667 273 c 128,-1,27
 741 355 741 355 767 490 c 2,28,-1
 945 1409 l 1,29,-1
 1240 1409 l 1,30,-1
 1059 476 l 2,31,32
 1033 340 1033 340 1033 303 c 0,33,34
 1033 250 1033 250 1064.5 220.5 c 128,-1,35
 1096 191 1096 191 1152 191 c 0,36,37
 1250 191 1250 191 1329.5 284.5 c 128,-1,38
 1409 378 1409 378 1440 534 c 2,39,-1
 1610 1409 l 1,40,-1
 1905 1409 l 1,41,-1
 1686 280 l 2,42,43
 1673 210 1673 210 1659.5 140.5 c 128,-1,44
 1646 71 1646 71 1632 1 c 1,45,-1
 1330 1 l 1,46,-1
 1350 169 l 1,47,-1
 1346 169 l 1,48,49
 1286 71 1286 71 1209.5 25.5 c 128,-1,50
 1133 -20 1133 -20 1020 -20 c 0,0,1
EndSplineSet
EndChar

StartChar: uni019D
Encoding: 413 413 350
Width: 1479
Flags: W
LayerCount: 2
Fore
SplineSet
884 0 m 1,0,-1
 510 1131 l 1,1,2
 499 1050 499 1050 489.5 990 c 128,-1,3
 480 930 480 930 472 892 c 2,4,-1
 282 -77 l 2,5,6
 256 -208 256 -208 210.5 -284.5 c 128,-1,7
 165 -361 165 -361 91 -393 c 128,-1,8
 17 -425 17 -425 -96 -425 c 0,9,10
 -168 -425 -168 -425 -256 -405 c 1,11,-1
 -211 -175 l 1,12,13
 -152 -188 -152 -188 -120 -188 c 0,14,15
 -56 -188 -56 -188 -21 -149.5 c 128,-1,16
 14 -111 14 -111 29 -32 c 2,17,-1
 310 1409 l 1,18,-1
 660 1409 l 1,19,-1
 1037 268 l 1,20,21
 1045 336 1045 336 1055.5 399.5 c 128,-1,22
 1066 463 1066 463 1078 524 c 2,23,-1
 1252 1409 l 1,24,-1
 1514 1409 l 1,25,-1
 1240 0 l 1,26,-1
 884 0 l 1,0,-1
EndSplineSet
EndChar

StartChar: uni019E
Encoding: 414 414 351
Width: 1251
Flags: W
LayerCount: 2
Fore
SplineSet
1153 702 m 2,0,-1
 932 -425 l 1,1,-1
 653 -425 l 1,2,-1
 856 595 l 2,3,4
 882 722 882 722 882 760 c 0,5,6
 882 889 882 889 730 889 c 0,7,8
 663 889 663 889 601 852 c 128,-1,9
 539 815 539 815 495 751 c 128,-1,10
 451 687 451 687 435 606 c 2,11,-1
 317 0 l 1,12,-1
 35 0 l 1,13,-1
 201 851 l 2,14,15
 205 869 205 869 209 891.5 c 128,-1,16
 213 914 213 914 217 940 c 0,17,18
 221 960 221 960 224.5 982.5 c 128,-1,19
 228 1005 228 1005 231.5 1030 c 128,-1,20
 235 1055 235 1055 239 1082 c 1,21,-1
 507 1082 l 1,22,23
 507 1076 507 1076 502.5 1037.5 c 128,-1,24
 498 999 498 999 492.5 957 c 128,-1,25
 487 915 487 915 483 897 c 1,26,-1
 486 897 l 1,27,28
 562 1004 562 1004 652.5 1052.5 c 128,-1,29
 743 1101 743 1101 859 1101 c 0,30,31
 1011 1101 1011 1101 1088 1028 c 128,-1,32
 1165 955 1165 955 1165 817 c 0,33,34
 1165 797 1165 797 1161.5 764 c 128,-1,35
 1158 731 1158 731 1153 702 c 2,0,-1
EndSplineSet
EndChar

StartChar: Ohorn
Encoding: 416 416 353
Width: 1715
Flags: W
LayerCount: 2
Fore
SplineSet
928 1430 m 0,0,1
 1183 1430 1183 1430 1347.5 1309.5 c 128,-1,2
 1512 1189 1512 1189 1549 969 c 1,3,4
 1631 997 1631 997 1668 1042 c 128,-1,5
 1705 1087 1705 1087 1718 1149 c 1,6,-1
 1591 1149 l 1,7,-1
 1642 1409 l 1,8,-1
 1929 1409 l 1,9,-1
 1887 1197 l 2,10,11
 1859 1055 1859 1055 1781 965 c 128,-1,12
 1703 875 1703 875 1559 832 c 1,13,14
 1559 819 1559 819 1558.5 805 c 128,-1,15
 1558 791 1558 791 1557 777 c 0,16,17
 1550 671 1550 671 1522.5 574 c 128,-1,18
 1495 477 1495 477 1448 390 c 0,19,20
 1342 192 1342 192 1154.5 86 c 128,-1,21
 967 -20 967 -20 727 -20 c 0,22,23
 535 -20 535 -20 392 52 c 0,24,25
 250 124 250 124 175 258.5 c 128,-1,26
 100 393 100 393 100 573 c 0,27,28
 100 809 100 809 206 1012 c 0,29,30
 311 1215 311 1215 498 1322.5 c 128,-1,31
 685 1430 685 1430 928 1430 c 0,0,1
914 1197 m 0,32,33
 752 1197 752 1197 638 1122 c 0,34,35
 562 1072 562 1072 509 986.5 c 128,-1,36
 456 901 456 901 428 796 c 128,-1,37
 400 691 400 691 400 581 c 0,38,39
 400 396 400 396 490 304 c 128,-1,40
 580 212 580 212 741 212 c 256,41,42
 902 212 902 212 1016 287 c 0,43,44
 1092 337 1092 337 1145.5 421 c 128,-1,45
 1199 505 1199 505 1227 610 c 128,-1,46
 1255 715 1255 715 1255 827 c 0,47,48
 1255 1003 1255 1003 1167.5 1100 c 128,-1,49
 1080 1197 1080 1197 914 1197 c 0,32,33
EndSplineSet
EndChar

StartChar: ohorn
Encoding: 417 417 354
Width: 1375
Flags: W
LayerCount: 2
Fore
SplineSet
535 -20 m 0,0,1
 317 -20 317 -20 190 97 c 128,-1,2
 63 214 63 214 63 419 c 0,3,4
 63 620 63 620 143 775 c 256,5,6
 223 930 223 930 370 1015.5 c 128,-1,7
 517 1101 517 1101 704 1101 c 0,8,9
 937 1101 937 1101 1061 991.5 c 128,-1,10
 1185 882 1185 882 1185 683 c 0,11,12
 1185 673 1185 673 1184.5 662 c 128,-1,13
 1184 651 1184 651 1184 640 c 1,14,15
 1255 658 1255 658 1292 700.5 c 128,-1,16
 1329 743 1329 743 1343 822 c 1,17,-1
 1236 822 l 1,18,-1
 1287 1082 l 1,19,-1
 1554 1082 l 1,20,-1
 1512 870 l 2,21,22
 1480 709 1480 709 1395.5 616.5 c 128,-1,23
 1311 524 1311 524 1166 497 c 1,24,25
 1138 356 1138 356 1064 247.5 c 128,-1,26
 990 139 990 139 881 73 c 0,27,28
 729 -20 729 -20 535 -20 c 0,0,1
891 662 m 0,29,30
 891 909 891 909 683 909 c 0,31,32
 567 909 567 909 499 847 c 0,33,34
 454 805 454 805 422.5 735.5 c 128,-1,35
 391 666 391 666 374.5 586 c 128,-1,36
 358 506 358 506 358 431 c 0,37,38
 358 301 358 301 410 236.5 c 128,-1,39
 462 172 462 172 566 172 c 0,40,41
 622 172 622 172 666.5 186.5 c 128,-1,42
 711 201 711 201 744 229 c 0,43,44
 788 267 788 267 821 331 c 128,-1,45
 854 395 854 395 872.5 479.5 c 128,-1,46
 891 564 891 564 891 662 c 0,29,30
EndSplineSet
EndChar

StartChar: uni01A2
Encoding: 418 418 355
Width: 1851
Flags: W
LayerCount: 2
Fore
SplineSet
686 -20 m 0,0,1
 408 -20 408 -20 255.5 132 c 128,-1,2
 103 284 103 284 103 558 c 0,3,4
 103 817 103 817 204 1017 c 0,5,6
 305 1215 305 1215 493.5 1322.5 c 128,-1,7
 682 1430 682 1430 937 1430 c 0,8,9
 1038 1430 1038 1430 1140.5 1407 c 128,-1,10
 1243 1384 1243 1384 1311 1347 c 1,11,-1
 1835 1425 l 1,12,-1
 1908 1425 l 1,13,-1
 1548 -425 l 1,14,-1
 1266 -425 l 1,15,-1
 1578 1181 l 1,16,-1
 1323 1181 l 1,17,-1
 1107 62 l 1,18,19
 1060 39 1060 39 988.5 20 c 128,-1,20
 917 1 917 1 838 -9.5 c 128,-1,21
 759 -20 759 -20 686 -20 c 0,0,1
1043 1188 m 1,22,23
 985 1203 985 1203 924 1203 c 0,24,25
 768 1203 768 1203 650 1121 c 0,26,27
 571 1066 571 1066 516 981 c 128,-1,28
 461 896 461 896 432.5 789.5 c 128,-1,29
 404 683 404 683 404 562 c 0,30,31
 404 384 404 384 487.5 295.5 c 128,-1,32
 571 207 571 207 737 207 c 0,33,34
 797 207 797 207 855 221 c 1,35,-1
 1043 1188 l 1,22,23
EndSplineSet
EndChar

StartChar: uni01A3
Encoding: 419 419 356
Width: 1502
Flags: W
LayerCount: 2
Fore
SplineSet
515 -20 m 256,0,1
 309 -20 309 -20 193 98.5 c 128,-1,2
 77 217 77 217 77 420 c 0,3,4
 77 618 77 618 155 775 c 0,5,6
 232 931 232 931 374 1016.5 c 128,-1,7
 516 1102 516 1102 706 1102 c 0,8,9
 810 1102 810 1102 904.5 1076.5 c 128,-1,10
 999 1051 999 1051 1050 1014 c 1,11,-1
 1450 1102 l 1,12,-1
 1527 1102 l 1,13,-1
 1230 -425 l 1,14,-1
 977 -425 l 1,15,-1
 1230 877 l 1,16,-1
 1036 877 l 1,17,-1
 883 51 l 1,18,19
 721 -20 721 -20 515 -20 c 256,0,1
786 899 m 1,20,21
 760 909 760 909 691 909 c 0,22,23
 596 909 596 909 523 845 c 0,24,25
 474 802 474 802 438.5 735.5 c 128,-1,26
 403 669 403 669 384.5 586.5 c 128,-1,27
 366 504 366 504 366 412 c 0,28,29
 366 292 366 292 412.5 232 c 128,-1,30
 459 172 459 172 552 172 c 0,31,32
 612 172 612 172 647 179 c 1,33,-1
 786 899 l 1,20,21
EndSplineSet
EndChar

StartChar: uni01A4
Encoding: 420 420 357
Width: 1516
Flags: W
LayerCount: 2
Fore
SplineSet
1023 1409 m 2,0,1
 1269 1409 1269 1409 1405.5 1297 c 128,-1,2
 1542 1185 1542 1185 1542 987 c 0,3,4
 1542 837 1542 837 1472.5 726.5 c 128,-1,5
 1403 616 1403 616 1276.5 556 c 128,-1,6
 1150 496 1150 496 978 496 c 2,7,-1
 640 496 l 1,8,-1
 542 0 l 1,9,-1
 248 0 l 1,10,-1
 479 1195 l 1,11,-1
 455 1195 l 2,12,13
 383 1195 383 1195 345 1157 c 128,-1,14
 307 1119 307 1119 307 1048 c 0,15,16
 307 1029 307 1029 310 1005 c 128,-1,17
 313 981 313 981 319 951 c 1,18,-1
 94 934 l 1,19,20
 92 953 92 953 90.5 974.5 c 128,-1,21
 89 996 89 996 89 1021 c 0,22,23
 89 1220 89 1220 183.5 1314.5 c 128,-1,24
 278 1409 278 1409 476 1409 c 2,25,-1
 1023 1409 l 2,0,1
683 723 m 1,26,-1
 933 723 l 2,27,28
 1087 723 1087 723 1165 781 c 128,-1,29
 1243 839 1243 839 1243 971 c 0,30,31
 1243 1073 1243 1073 1179 1126.5 c 128,-1,32
 1115 1180 1115 1180 995 1180 c 2,33,-1
 772 1180 l 1,34,-1
 683 723 l 1,26,-1
EndSplineSet
EndChar

StartChar: uni01A5
Encoding: 421 421 358
Width: 1251
Flags: W
LayerCount: 2
Fore
SplineSet
662 -20 m 0,0,1
 537 -20 537 -20 459 32 c 128,-1,2
 381 84 381 84 349 178 c 1,3,-1
 347 178 l 1,4,5
 346 164 346 164 343.5 148.5 c 128,-1,6
 341 133 341 133 339 117 c 0,7,8
 336 101 336 101 310 -35 c 128,-1,9
 284 -171 284 -171 235 -425 c 1,10,-1
 -45 -425 l 1,11,-1
 262 1181 l 2,12,13
 291 1336 291 1336 382.5 1410 c 128,-1,14
 474 1484 474 1484 640 1484 c 0,15,16
 716 1484 716 1484 819 1464 c 1,17,-1
 779 1260 l 1,18,19
 710 1275 710 1275 678 1275 c 0,20,21
 619 1275 619 1275 582.5 1240 c 128,-1,22
 546 1205 546 1205 532 1134 c 2,23,-1
 489 913 l 1,24,-1
 493 913 l 1,25,26
 566 1016 566 1016 650 1059 c 128,-1,27
 734 1102 734 1102 848 1102 c 0,28,29
 1007 1102 1007 1102 1096 1007.5 c 128,-1,30
 1185 913 1185 913 1185 748 c 0,31,32
 1185 547 1185 547 1123 355 c 256,33,34
 1061 163 1061 163 948.5 71.5 c 128,-1,35
 836 -20 836 -20 662 -20 c 0,0,1
728 907 m 0,36,37
 571 907 571 907 489 766 c 0,38,39
 462 718 462 718 442 652.5 c 128,-1,40
 422 587 422 587 411 520.5 c 128,-1,41
 400 454 400 454 400 401 c 0,42,43
 400 294 400 294 453 233.5 c 128,-1,44
 506 173 506 173 601 173 c 0,45,46
 704 173 704 173 763 238 c 0,47,48
 803 282 803 282 831 362 c 128,-1,49
 859 442 859 442 874 532 c 128,-1,50
 889 622 889 622 889 694 c 0,51,52
 889 800 889 800 850.5 853.5 c 128,-1,53
 812 907 812 907 728 907 c 0,36,37
EndSplineSet
EndChar

StartChar: uni01A6
Encoding: 422 422 359
Width: 1366
Flags: W
LayerCount: 2
Fore
SplineSet
965 -329 m 1,0,-1
 654 359 l 1,1,-1
 402 359 l 1,2,-1
 331 0 l 1,3,-1
 36 0 l 1,4,-1
 307 1410 l 1,5,-1
 592 1410 l 1,6,-1
 559 1234 l 1,7,-1
 838 1234 l 2,8,9
 998 1234 998 1234 1111 1185 c 256,10,11
 1224 1136 1224 1136 1283 1045 c 128,-1,12
 1342 954 1342 954 1342 831 c 0,13,14
 1342 666 1342 666 1233.5 551 c 128,-1,15
 1125 436 1125 436 939 408 c 1,16,-1
 1291 -329 l 1,17,-1
 965 -329 l 1,0,-1
749 589 m 2,18,19
 894 589 894 589 968.5 647.5 c 128,-1,20
 1043 706 1043 706 1043 814 c 0,21,22
 1043 906 1043 906 979.5 955.5 c 128,-1,23
 916 1005 916 1005 801 1005 c 2,24,-1
 528 1005 l 1,25,-1
 447 589 l 1,26,-1
 749 589 l 2,18,19
EndSplineSet
EndChar

StartChar: uni01A7
Encoding: 423 423 360
Width: 1366
Flags: W
LayerCount: 2
Fore
SplineSet
1070 1077 m 0,0,1
 1070 1149 1070 1149 1010.5 1185 c 128,-1,2
 951 1221 951 1221 832 1221 c 0,3,4
 706 1221 706 1221 629.5 1175 c 128,-1,5
 553 1129 553 1129 513 1038 c 1,6,-1
 235 1077 l 1,7,8
 288 1207 288 1207 368.5 1284 c 128,-1,9
 449 1361 449 1361 569.5 1395.5 c 128,-1,10
 690 1430 690 1430 861 1430 c 0,11,12
 1089 1430 1089 1430 1224 1339 c 128,-1,13
 1359 1248 1359 1248 1359 1089 c 0,14,15
 1359 1001 1359 1001 1336 937 c 128,-1,16
 1313 873 1313 873 1273 826 c 0,17,18
 1231 778 1231 778 1176 746 c 0,19,20
 1138 724 1138 724 1093.5 705.5 c 128,-1,21
 1049 687 1049 687 982 668 c 128,-1,22
 915 649 915 649 807 625 c 0,23,24
 718 604 718 604 636 584.5 c 128,-1,25
 554 565 554 565 491 538 c 256,26,27
 428 511 428 511 390 471 c 128,-1,28
 352 431 352 431 352 370 c 0,29,30
 352 278 352 278 421 239.5 c 128,-1,31
 490 201 490 201 624 201 c 0,32,33
 767 201 767 201 857 246 c 0,34,35
 908 272 908 272 946 313.5 c 128,-1,36
 984 355 984 355 1011 414 c 1,37,-1
 1300 364 l 1,38,39
 1220 172 1220 172 1042.5 76 c 128,-1,40
 865 -20 865 -20 591 -20 c 0,41,42
 337 -20 337 -20 197.5 77 c 128,-1,43
 58 174 58 174 58 345 c 0,44,45
 58 464 58 464 101 552 c 128,-1,46
 144 640 144 640 240 701 c 0,47,48
 282 728 282 728 336 750 c 128,-1,49
 390 772 390 772 455 790 c 0,50,51
 475 795 475 795 495 800.5 c 128,-1,52
 515 806 515 806 537 810 c 2,53,-1
 686 842 l 2,54,55
 781 862 781 862 845 879 c 128,-1,56
 909 896 909 896 941 910 c 0,57,58
 1004 937 1004 937 1037 976.5 c 128,-1,59
 1070 1016 1070 1016 1070 1077 c 0,0,1
EndSplineSet
EndChar

StartChar: uni01A8
Encoding: 424 424 361
Width: 1139
Flags: W
LayerCount: 2
Fore
SplineSet
640 916 m 0,0,1
 539 916 539 916 485.5 884 c 128,-1,2
 432 852 432 852 407 785 c 1,3,-1
 163 811 l 1,4,5
 216 957 216 957 340.5 1030 c 128,-1,6
 465 1103 465 1103 670 1103 c 0,7,8
 866 1103 866 1103 972 1029.5 c 128,-1,9
 1078 956 1078 956 1078 809 c 0,10,11
 1078 710 1078 710 1028.5 641.5 c 128,-1,12
 979 573 979 573 885 528 c 0,13,14
 792 484 792 484 522 425 c 0,15,16
 403 399 403 399 351 366 c 0,17,18
 324 349 324 349 310.5 327 c 128,-1,19
 297 305 297 305 297 279 c 0,20,21
 297 166 297 166 497 166 c 0,22,23
 605 166 605 166 670 198 c 128,-1,24
 735 230 735 230 776 307 c 1,25,-1
 1016 270 l 1,26,27
 953 113 953 113 829.5 46.5 c 128,-1,28
 706 -20 706 -20 480 -20 c 0,29,30
 271 -20 271 -20 153 57.5 c 128,-1,31
 35 135 35 135 35 270 c 0,32,33
 35 380 35 380 81 453 c 0,34,35
 112 501 112 501 159 537 c 128,-1,36
 206 573 206 573 289.5 602.5 c 128,-1,37
 373 632 373 632 510 659 c 2,38,-1
 635 683 l 2,39,40
 732 702 732 702 776.5 730.5 c 128,-1,41
 821 759 821 759 821 808 c 0,42,43
 821 870 821 870 775.5 893 c 128,-1,44
 730 916 730 916 640 916 c 0,0,1
EndSplineSet
EndChar

StartChar: uni01AA
Encoding: 426 426 363
Width: 737
Flags: W
LayerCount: 2
Fore
SplineSet
152 1259 m 0,0,1
 152 1370 152 1370 224 1427 c 128,-1,2
 296 1484 296 1484 428 1484 c 0,3,4
 567 1484 567 1484 640.5 1413 c 128,-1,5
 714 1342 714 1342 714 1217 c 0,6,7
 714 1152 714 1152 701 1090 c 2,8,-1
 474 -68 l 2,9,10
 469 -93 469 -93 469 -118 c 0,11,12
 469 -209 469 -209 565 -209 c 0,13,14
 583 -209 583 -209 623.5 -205 c 128,-1,15
 664 -201 664 -201 682 -197 c 1,16,-1
 641 -408 l 1,17,18
 568 -425 568 -425 455 -425 c 0,19,20
 317 -425 317 -425 248 -367.5 c 128,-1,21
 179 -310 179 -310 179 -195 c 0,22,23
 179 -157 179 -157 190 -96 c 2,24,-1
 422 1092 l 1,25,26
 381 1081 381 1081 329 1081 c 0,27,28
 253 1081 253 1081 202.5 1129.5 c 128,-1,29
 152 1178 152 1178 152 1259 c 0,0,1
376 1369 m 256,30,31
 334 1369 334 1369 309 1344 c 128,-1,32
 284 1319 284 1319 284 1277 c 256,33,34
 284 1235 284 1235 309 1210 c 128,-1,35
 334 1185 334 1185 376 1185 c 256,36,37
 418 1185 418 1185 443 1210 c 128,-1,38
 468 1235 468 1235 468 1277 c 256,39,40
 468 1319 468 1319 443 1344 c 128,-1,41
 418 1369 418 1369 376 1369 c 256,30,31
EndSplineSet
EndChar

StartChar: uni01AB
Encoding: 427 427 364
Width: 682
Flags: W
LayerCount: 2
Fore
SplineSet
167 -427 m 0,0,1
 90 -427 90 -427 4 -407 c 1,2,-1
 43 -206 l 1,3,4
 112 -221 112 -221 150 -221 c 0,5,6
 202 -221 202 -221 240.5 -191 c 128,-1,7
 279 -161 279 -161 295 -80 c 2,8,-1
 308 -11 l 1,9,10
 218 3 218 3 167 57.5 c 128,-1,11
 116 112 116 112 116 209 c 0,12,13
 116 283 116 283 132 366 c 2,14,-1
 234 892 l 1,15,-1
 86 892 l 1,16,-1
 123 1082 l 1,17,-1
 285 1082 l 1,18,-1
 422 1336 l 1,19,-1
 598 1336 l 1,20,-1
 550 1082 l 1,21,-1
 752 1082 l 1,22,-1
 717 892 l 1,23,-1
 512 892 l 1,24,-1
 408 357 l 2,25,26
 397 299 397 299 397 268 c 0,27,28
 397 222 397 222 420.5 199.5 c 128,-1,29
 444 177 444 177 484 177 c 0,30,31
 518 177 518 177 592 190 c 1,32,-1
 534 -124 l 2,33,34
 506 -267 506 -267 414.5 -347 c 128,-1,35
 323 -427 323 -427 167 -427 c 0,0,1
EndSplineSet
EndChar

StartChar: uni01AC
Encoding: 428 428 365
Width: 1251
Flags: W
LayerCount: 2
Fore
SplineSet
913 1181 m 1,0,-1
 683 0 l 1,1,-1
 388 0 l 1,2,-1
 618 1181 l 1,3,-1
 435 1181 l 2,4,5
 287 1181 287 1181 287 1048 c 0,6,7
 287 1023 287 1023 290 995.5 c 128,-1,8
 293 968 293 968 299 938 c 1,9,-1
 74 921 l 1,10,11
 69 959 69 959 69 1021 c 0,12,13
 69 1220 69 1220 163.5 1314.5 c 128,-1,14
 258 1409 258 1409 456 1409 c 2,15,-1
 1395 1409 l 1,16,-1
 1351 1181 l 1,17,-1
 913 1181 l 1,0,-1
EndSplineSet
EndChar

StartChar: uni01AD
Encoding: 429 429 366
Width: 682
Flags: W
LayerCount: 2
Fore
SplineSet
376 -16 m 0,0,1
 252 -16 252 -16 184 42.5 c 128,-1,2
 116 101 116 101 116 209 c 0,3,4
 116 283 116 283 132 366 c 2,5,-1
 234 892 l 1,6,-1
 86 892 l 1,7,-1
 123 1082 l 1,8,-1
 271 1082 l 1,9,-1
 290 1181 l 2,10,11
 319 1336 319 1336 410.5 1410 c 128,-1,12
 502 1484 502 1484 668 1484 c 0,13,14
 744 1484 744 1484 847 1464 c 1,15,-1
 807 1270 l 1,16,17
 738 1285 738 1285 706 1285 c 0,18,19
 647 1285 647 1285 610.5 1250 c 128,-1,20
 574 1215 574 1215 560 1144 c 2,21,-1
 550 1082 l 1,22,-1
 752 1082 l 1,23,-1
 717 892 l 1,24,-1
 512 892 l 1,25,-1
 408 357 l 2,26,27
 397 299 397 299 397 268 c 0,28,29
 397 222 397 222 420.5 199.5 c 128,-1,30
 444 177 444 177 484 177 c 0,31,32
 518 177 518 177 592 190 c 1,33,-1
 560 8 l 1,34,35
 479 -16 479 -16 376 -16 c 0,0,1
EndSplineSet
EndChar

StartChar: uni01AE
Encoding: 430 430 367
Width: 1251
Flags: W
LayerCount: 2
Fore
SplineSet
145 1181 m 1,0,-1
 189 1409 l 1,1,-1
 1395 1409 l 1,2,-1
 1351 1181 l 1,3,-1
 895 1181 l 1,4,-1
 656 -42 l 2,5,6
 649 -74 649 -74 649 -105 c 0,7,8
 649 -198 649 -198 744 -198 c 0,9,10
 774 -198 774 -198 842 -185 c 1,11,-1
 799 -405 l 1,12,13
 702 -425 702 -425 630 -425 c 0,14,15
 488 -425 488 -425 418 -362.5 c 128,-1,16
 348 -300 348 -300 348 -167 c 0,17,18
 348 -101 348 -101 362 -36 c 2,19,-1
 600 1181 l 1,20,-1
 145 1181 l 1,0,-1
EndSplineSet
EndChar

StartChar: Uhorn
Encoding: 431 431 368
Width: 1656
Flags: W
LayerCount: 2
Fore
SplineSet
672 -20 m 0,0,1
 408 -20 408 -20 263.5 97.5 c 128,-1,2
 119 215 119 215 119 431 c 0,3,4
 119 517 119 517 142 635 c 2,5,-1
 290 1409 l 1,6,-1
 585 1409 l 1,7,-1
 432 599 l 2,8,9
 414 512 414 512 414 427 c 0,10,11
 414 324 414 324 487 267.5 c 128,-1,12
 560 211 560 211 688 211 c 0,13,14
 853 211 853 211 938.5 287 c 128,-1,15
 1024 363 1024 363 1058 541 c 2,16,-1
 1226 1409 l 1,17,-1
 1521 1409 l 1,18,-1
 1429 937 l 1,19,20
 1679 969 1679 969 1708 1149 c 1,21,-1
 1581 1149 l 1,22,-1
 1632 1409 l 1,23,-1
 1919 1409 l 1,24,-1
 1877 1197 l 2,25,26
 1842 1021 1842 1021 1726 919.5 c 128,-1,27
 1610 818 1610 818 1402 797 c 1,28,-1
 1350 530 l 2,29,30
 1295 249 1295 249 1130 114.5 c 128,-1,31
 965 -20 965 -20 672 -20 c 0,0,1
EndSplineSet
EndChar

StartChar: uhorn
Encoding: 432 432 369
Width: 1462
Flags: W
LayerCount: 2
Fore
SplineSet
764 185 m 1,0,1
 689 81 689 81 598.5 31 c 128,-1,2
 508 -19 508 -19 391 -19 c 0,3,4
 239 -19 239 -19 162 54 c 128,-1,5
 85 127 85 127 85 265 c 0,6,7
 85 290 85 290 92 344.5 c 128,-1,8
 99 399 99 399 106 429 c 2,9,-1
 233 1082 l 1,10,-1
 512 1082 l 1,11,-1
 394 487 l 2,12,13
 368 362 368 362 368 322 c 0,14,15
 368 193 368 193 520 193 c 0,16,17
 588 193 588 193 650 230.5 c 128,-1,18
 712 268 712 268 756.5 332.5 c 128,-1,19
 801 397 801 397 815 476 c 2,20,-1
 933 1082 l 1,21,-1
 1215 1082 l 1,22,-1
 1125 623 l 1,23,24
 1260 633 1260 633 1329 682.5 c 128,-1,25
 1398 732 1398 732 1413 822 c 1,26,-1
 1286 822 l 1,27,-1
 1337 1082 l 1,28,-1
 1604 1082 l 1,29,-1
 1562 870 l 2,30,31
 1537 743 1537 743 1477 658 c 0,32,33
 1417 576 1417 576 1329 533.5 c 128,-1,34
 1241 491 1241 491 1098 483 c 1,35,36
 1081 396 1081 396 1068 330.5 c 128,-1,37
 1055 265 1055 265 1045 210 c 0,38,39
 1035 156 1035 156 1027 106 c 128,-1,40
 1019 56 1019 56 1011 0 c 1,41,-1
 743 0 l 1,42,43
 743 6 743 6 747.5 44.5 c 128,-1,44
 752 83 752 83 758 125.5 c 128,-1,45
 764 168 764 168 767 185 c 1,46,-1
 764 185 l 1,0,1
EndSplineSet
EndChar

StartChar: uni01B1
Encoding: 433 433 370
Width: 1599
Flags: W
LayerCount: 2
Fore
SplineSet
697 -22 m 0,0,1
 522 -22 522 -22 385 44 c 0,2,3
 247 109 247 109 172.5 227.5 c 128,-1,4
 98 346 98 346 98 495 c 0,5,6
 98 729 98 729 229.5 898 c 128,-1,7
 361 1067 361 1067 645 1191 c 1,8,9
 588 1186 588 1186 544 1183 c 128,-1,10
 500 1180 500 1180 469 1180 c 2,11,-1
 199 1180 l 1,12,-1
 243 1408 l 1,13,-1
 879 1408 l 1,14,-1
 819 1099 l 1,15,16
 618 1009 618 1009 511 871.5 c 128,-1,17
 404 734 404 734 404 561 c 0,18,19
 404 390 404 390 489.5 300 c 128,-1,20
 575 210 575 210 738 210 c 0,21,22
 877 210 877 210 987 272 c 0,23,24
 1096 334 1096 334 1156 443 c 128,-1,25
 1216 552 1216 552 1216 688 c 0,26,27
 1216 833 1216 833 1158 930.5 c 128,-1,28
 1100 1028 1100 1028 971 1099 c 1,29,-1
 1031 1408 l 1,30,-1
 1675 1408 l 1,31,-1
 1631 1180 l 1,32,-1
 1363 1180 l 2,33,34
 1334 1180 1334 1180 1287.5 1183 c 128,-1,35
 1241 1186 1241 1186 1179 1191 c 1,36,37
 1332 1113 1332 1113 1417 977 c 128,-1,38
 1502 841 1502 841 1502 679 c 0,39,40
 1502 471 1502 471 1401 311 c 256,41,42
 1300 151 1300 151 1115 64.5 c 128,-1,43
 930 -22 930 -22 697 -22 c 0,0,1
EndSplineSet
EndChar

StartChar: uni01B2
Encoding: 434 434 371
Width: 1479
Flags: W
LayerCount: 2
Fore
SplineSet
611 -20 m 0,0,1
 438 -20 438 -20 323 36 c 0,2,3
 225 84 225 84 173.5 170 c 128,-1,4
 122 256 122 256 122 377 c 0,5,6
 122 451 122 451 138 528 c 2,7,-1
 310 1409 l 1,8,-1
 605 1409 l 1,9,-1
 438 551 l 2,10,11
 425 489 425 489 425 432 c 0,12,13
 425 322 425 322 478 266.5 c 128,-1,14
 531 211 531 211 637 211 c 0,15,16
 757 211 757 211 843.5 268.5 c 128,-1,17
 930 326 930 326 996 450 c 0,18,19
 1029 512 1029 512 1058.5 596.5 c 128,-1,20
 1088 681 1088 681 1111.5 769.5 c 128,-1,21
 1135 858 1135 858 1148 932 c 128,-1,22
 1161 1006 1161 1006 1161 1046 c 0,23,24
 1161 1122 1161 1122 1128 1161.5 c 128,-1,25
 1095 1201 1095 1201 1021 1201 c 0,26,27
 973 1201 973 1201 908 1188 c 1,28,-1
 950 1408 l 1,29,30
 1047 1428 1047 1428 1186 1428 c 0,31,32
 1323 1428 1323 1428 1393.5 1350 c 128,-1,33
 1464 1272 1464 1272 1464 1121 c 0,34,35
 1464 1049 1464 1049 1445 944.5 c 128,-1,36
 1426 840 1426 840 1391.5 724.5 c 128,-1,37
 1357 609 1357 609 1311 500 c 128,-1,38
 1265 391 1265 391 1210 309 c 0,39,40
 1101 146 1101 146 951.5 63 c 128,-1,41
 802 -20 802 -20 611 -20 c 0,0,1
EndSplineSet
EndChar

StartChar: uni01B3
Encoding: 435 435 372
Width: 1466
Flags: W
LayerCount: 2
Fore
SplineSet
1646 1301 m 1,0,-1
 1501 1116 l 1,1,2
 1473 1147 1473 1147 1442 1162.5 c 128,-1,3
 1411 1178 1411 1178 1377 1178 c 0,4,5
 1339 1178 1339 1178 1309 1157.5 c 128,-1,6
 1279 1137 1279 1137 1246 1094 c 2,7,-1
 836 578 l 1,8,-1
 724 0 l 1,9,-1
 430 0 l 1,10,-1
 542 578 l 1,11,-1
 172 1409 l 1,12,-1
 464 1409 l 1,13,-1
 723 804 l 1,14,-1
 1053 1239 l 2,15,16
 1125 1335 1125 1335 1200 1382.5 c 128,-1,17
 1275 1430 1275 1430 1365 1430 c 0,18,19
 1529 1430 1529 1430 1646 1301 c 1,0,-1
EndSplineSet
EndChar

StartChar: uni01B4
Encoding: 436 436 373
Width: 1139
Flags: W
LayerCount: 2
Fore
SplineSet
88 -425 m 0,0,1
 -8 -425 -8 -425 -85 -407 c 1,2,-1
 -47 -211 l 1,3,4
 -6 -220 -6 -220 40 -220 c 0,5,6
 107 -220 107 -220 162 -185.5 c 128,-1,7
 217 -151 217 -151 265 -72 c 2,8,-1
 324 24 l 1,9,-1
 112 1082 l 1,10,-1
 403 1082 l 1,11,-1
 474 585 l 2,12,13
 475 571 475 571 480 525 c 128,-1,14
 485 479 485 479 491 422 c 128,-1,15
 497 365 497 365 502.5 317 c 128,-1,16
 508 269 508 269 509 251 c 1,17,-1
 646 543 l 1,18,-1
 1003 1219 l 2,19,20
 1056 1322 1056 1322 1107 1376 c 0,21,22
 1157 1428 1157 1428 1220 1456 c 128,-1,23
 1283 1484 1283 1484 1364 1484 c 0,24,25
 1433 1484 1433 1484 1502 1464.5 c 128,-1,26
 1571 1445 1571 1445 1621 1410 c 1,27,-1
 1488 1214 l 1,28,29
 1439 1250 1439 1250 1385 1250 c 0,30,31
 1341 1250 1341 1250 1310.5 1224 c 128,-1,32
 1280 1198 1280 1198 1249 1144 c 2,33,-1
 570 -57 l 2,34,35
 521 -143 521 -143 475.5 -200.5 c 128,-1,36
 430 -258 430 -258 396 -292 c 0,37,38
 329 -360 329 -360 255 -392.5 c 128,-1,39
 181 -425 181 -425 88 -425 c 0,0,1
EndSplineSet
EndChar

StartChar: uni01B5
Encoding: 437 437 374
Width: 1251
Flags: W
LayerCount: 2
Fore
SplineSet
1192 636 m 1,0,-1
 732 636 l 1,1,-1
 345 231 l 1,2,-1
 1127 231 l 1,3,-1
 1082 0 l 1,4,-1
 -48 0 l 1,5,-1
 -8 209 l 1,6,-1
 400 636 l 1,7,-1
 87 636 l 1,8,-1
 125 833 l 1,9,-1
 589 833 l 1,10,-1
 919 1178 l 1,11,-1
 256 1178 l 1,12,-1
 301 1409 l 1,13,-1
 1315 1409 l 1,14,-1
 1275 1204 l 1,15,-1
 920 833 l 1,16,-1
 1230 833 l 1,17,-1
 1192 636 l 1,0,-1
EndSplineSet
EndChar

StartChar: uni01B6
Encoding: 438 438 375
Width: 1024
Flags: W
LayerCount: 2
Fore
SplineSet
903 205 m 1,0,-1
 863 0 l 1,1,-1
 -35 0 l 1,2,-1
 3 199 l 1,3,-1
 241 447 l 1,4,-1
 53 447 l 1,5,-1
 91 644 l 1,6,-1
 430 644 l 1,7,-1
 656 879 l 1,8,-1
 176 879 l 1,9,-1
 216 1082 l 1,10,-1
 1025 1082 l 1,11,-1
 986 881 l 1,12,-1
 758 644 l 1,13,-1
 959 644 l 1,14,-1
 921 447 l 1,15,-1
 568 447 l 1,16,-1
 336 205 l 1,17,-1
 903 205 l 1,0,-1
EndSplineSet
EndChar

StartChar: uni01B7
Encoding: 439 439 376
Width: 1251
Flags: W
LayerCount: 2
Fore
SplineSet
437 -427 m 0,0,1
 227 -427 227 -427 97 -338.5 c 128,-1,2
 -33 -250 -33 -250 -91 -72 c 1,3,-1
 170 38 l 1,4,5
 211 -63 211 -63 247 -106 c 0,6,7
 284 -151 284 -151 335.5 -173 c 128,-1,8
 387 -195 387 -195 464 -195 c 0,9,10
 514 -195 514 -195 559.5 -180.5 c 128,-1,11
 605 -166 605 -166 646 -138 c 0,12,13
 729 -81 729 -81 776.5 14.5 c 128,-1,14
 824 110 824 110 824 209 c 0,15,16
 824 370 824 370 740.5 447 c 128,-1,17
 657 524 657 524 474 524 c 2,18,-1
 346 524 l 1,19,-1
 390 755 l 1,20,-1
 880 1178 l 1,21,-1
 200 1178 l 1,22,-1
 245 1409 l 1,23,-1
 1295 1409 l 1,24,-1
 1255 1204 l 1,25,-1
 706 737 l 1,26,27
 908 714 908 714 1014.5 598 c 128,-1,28
 1121 482 1121 482 1121 286 c 0,29,30
 1121 181 1121 181 1099.5 88 c 128,-1,31
 1078 -5 1078 -5 1034 -87 c 0,32,33
 946 -250 946 -250 790.5 -338.5 c 128,-1,34
 635 -427 635 -427 437 -427 c 0,0,1
EndSplineSet
EndChar

StartChar: uni01B8
Encoding: 440 440 377
Width: 1251
Flags: W
LayerCount: 2
Fore
SplineSet
519 -427 m 0,0,1
 357 -427 357 -427 239.5 -364 c 128,-1,2
 122 -301 122 -301 58 -184.5 c 128,-1,3
 -6 -68 -6 -68 -6 92 c 0,4,5
 -6 268 -6 268 74 411 c 0,6,7
 154 553 154 553 300 638.5 c 128,-1,8
 446 724 446 724 632 737 c 1,9,-1
 254 1204 l 1,10,-1
 294 1409 l 1,11,-1
 1344 1409 l 1,12,-1
 1299 1178 l 1,13,-1
 616 1178 l 1,14,-1
 943 755 l 1,15,-1
 899 524 l 1,16,-1
 771 524 l 2,17,18
 617 524 617 524 509 473.5 c 128,-1,19
 401 423 401 423 344 327 c 128,-1,20
 287 231 287 231 287 92 c 256,21,22
 287 -47 287 -47 354.5 -121 c 128,-1,23
 422 -195 422 -195 552 -195 c 0,24,25
 770 -195 770 -195 900 49 c 1,26,-1
 1132 -64 l 1,27,28
 1060 -190 1060 -190 971 -270.5 c 128,-1,29
 882 -351 882 -351 770.5 -389 c 128,-1,30
 659 -427 659 -427 519 -427 c 0,0,1
EndSplineSet
EndChar

StartChar: uni01B9
Encoding: 441 441 378
Width: 1078
Flags: W
LayerCount: 2
Fore
SplineSet
986 -46 m 1,0,1
 941 -227 941 -227 797.5 -326 c 128,-1,2
 654 -425 654 -425 438 -425 c 0,3,4
 294 -425 294 -425 183 -372 c 0,5,6
 74 -319 74 -319 16 -223.5 c 128,-1,7
 -42 -128 -42 -128 -42 -3 c 0,8,9
 -42 147 -42 147 17.5 256 c 128,-1,10
 77 365 77 365 193.5 432 c 128,-1,11
 310 499 310 499 482 520 c 1,12,-1
 191 887 l 1,13,-1
 229 1082 l 1,14,-1
 1131 1082 l 1,15,-1
 1091 879 l 1,16,-1
 526 879 l 1,17,-1
 793 530 l 1,18,-1
 756 341 l 1,19,-1
 654 341 l 2,20,21
 494 341 494 341 402 300 c 0,22,23
 318 263 318 263 279.5 192.5 c 128,-1,24
 241 122 241 122 241 15 c 0,25,26
 241 -99 241 -99 296.5 -166.5 c 128,-1,27
 352 -234 352 -234 451 -234 c 0,28,29
 561 -234 561 -234 628 -183 c 128,-1,30
 695 -132 695 -132 716 -33 c 1,31,-1
 986 -46 l 1,0,1
EndSplineSet
EndChar

StartChar: uni01BA
Encoding: 442 442 379
Width: 1078
Flags: W
LayerCount: 2
Fore
SplineSet
893 -105 m 1,0,1
 755 -434 755 -434 335 -434 c 0,2,3
 271 -434 271 -434 214.5 -425.5 c 128,-1,4
 158 -417 158 -417 110 -401 c 0,5,6
 13 -367 13 -367 -41.5 -304 c 128,-1,7
 -96 -241 -96 -241 -96 -154 c 0,8,9
 -96 -92 -96 -92 -78 -45 c 128,-1,10
 -60 2 -60 2 -28 38 c 256,11,12
 4 74 4 74 50.5 101 c 128,-1,13
 97 128 97 128 156 148 c 0,14,15
 217 168 217 168 379 207 c 0,16,17
 453 224 453 224 502.5 238 c 128,-1,18
 552 252 552 252 576 262 c 0,19,20
 624 282 624 282 650 307 c 128,-1,21
 676 332 676 332 676 369 c 0,22,23
 676 436 676 436 565 454 c 0,24,25
 537 458 537 458 489 460 c 128,-1,26
 441 462 441 462 373 462 c 2,27,-1
 271 462 l 1,28,-1
 299 606 l 1,29,-1
 655 879 l 1,30,-1
 117 879 l 1,31,-1
 157 1082 l 1,32,-1
 1059 1082 l 1,33,-1
 1027 919 l 1,34,-1
 624 624 l 1,35,36
 796 620 796 620 881 561 c 128,-1,37
 966 502 966 502 966 393 c 0,38,39
 966 322 966 322 941 268 c 128,-1,40
 916 214 916 214 868 173 c 0,41,42
 844 153 844 153 812.5 134.5 c 128,-1,43
 781 116 781 116 741 100 c 256,44,45
 701 84 701 84 634 64.5 c 128,-1,46
 567 45 567 45 472 23 c 0,47,48
 392 4 392 4 341 -9.5 c 128,-1,49
 290 -23 290 -23 268 -32 c 0,50,51
 225 -50 225 -50 200 -74 c 128,-1,52
 175 -98 175 -98 175 -132 c 0,53,54
 175 -186 175 -186 224 -213.5 c 128,-1,55
 273 -241 273 -241 364 -241 c 0,56,57
 462 -241 462 -241 532 -195 c 128,-1,58
 602 -149 602 -149 630 -61 c 1,59,-1
 893 -105 l 1,0,1
EndSplineSet
EndChar

StartChar: uni01BB
Encoding: 443 443 380
Width: 1139
Flags: W
LayerCount: 2
Fore
SplineSet
997 231 m 1,0,-1
 953 0 l 1,1,-1
 -32 0 l 1,2,-1
 5 195 l 1,3,4
 56 285 56 285 135 370 c 0,5,6
 165 403 165 403 200.5 436 c 128,-1,7
 236 469 236 469 277.5 503 c 128,-1,8
 319 537 319 537 368 573 c 1,9,-1
 88 573 l 1,10,-1
 125 764 l 1,11,-1
 633 764 l 1,12,13
 735 842 735 842 782 914 c 128,-1,14
 829 986 829 986 829 1063 c 0,15,16
 829 1134 829 1134 788.5 1170 c 128,-1,17
 748 1206 748 1206 667 1206 c 0,18,19
 579 1206 579 1206 525 1162 c 128,-1,20
 471 1118 471 1118 444 1022 c 1,21,-1
 178 1081 l 1,22,23
 231 1260 231 1260 359 1345 c 128,-1,24
 487 1430 487 1430 687 1430 c 0,25,26
 827 1430 827 1430 923 1391 c 128,-1,27
 1019 1352 1019 1352 1068.5 1274.5 c 128,-1,28
 1118 1197 1118 1197 1118 1083 c 0,29,30
 1118 910 1118 910 981 764 c 1,31,-1
 1167 764 l 1,32,-1
 1134 573 l 1,33,-1
 749 573 l 1,34,-1
 633 493 l 2,35,36
 581 457 581 457 536.5 423 c 128,-1,37
 492 389 492 389 457 357 c 0,38,39
 420 323 420 323 391.5 291.5 c 128,-1,40
 363 260 363 260 343 231 c 1,41,-1
 997 231 l 1,0,-1
EndSplineSet
EndChar

StartChar: uni01BC
Encoding: 444 444 381
Width: 1139
Flags: W
LayerCount: 2
Fore
SplineSet
211 1409 m 1,0,-1
 1192 1409 l 1,1,-1
 1148 1181 l 1,2,-1
 623 1181 l 1,3,-1
 571 943 l 1,4,-1
 595 943 l 1,5,6
 822 938 822 938 936.5 839 c 128,-1,7
 1051 740 1051 740 1051 555 c 0,8,9
 1051 418 1051 418 1007 307 c 0,10,11
 946 153 946 153 806.5 66.5 c 128,-1,12
 667 -20 667 -20 466 -20 c 0,13,14
 299 -20 299 -20 188 44 c 0,15,16
 37 130 37 130 5 316 c 1,17,-1
 284 377 l 1,18,19
 293 293 293 293 347 248 c 128,-1,20
 401 203 401 203 493 203 c 0,21,22
 601 203 601 203 669 265 c 0,23,24
 710 302 710 302 732 357.5 c 128,-1,25
 754 413 754 413 754 484 c 0,26,27
 754 620 754 620 680.5 672.5 c 128,-1,28
 607 725 607 725 414 725 c 2,29,-1
 250 725 l 1,30,-1
 347 1181 l 1,31,-1
 167 1181 l 1,32,-1
 211 1409 l 1,0,-1
EndSplineSet
EndChar

StartChar: uni01BD
Encoding: 445 445 382
Width: 1018
Flags: W
LayerCount: 2
Fore
SplineSet
460 172 m 0,0,1
 551 172 551 172 606 221 c 128,-1,2
 661 270 661 270 661 352 c 0,3,4
 661 437 661 437 605 473.5 c 128,-1,5
 549 510 549 510 411 510 c 2,6,-1
 204 510 l 1,7,-1
 288 879 l 1,8,-1
 124 879 l 1,9,-1
 164 1082 l 1,10,-1
 1016 1082 l 1,11,-1
 976 879 l 1,12,-1
 534 879 l 1,13,-1
 486 695 l 1,14,-1
 525 694 l 2,15,16
 733 688 733 688 834 612.5 c 128,-1,17
 935 537 935 537 935 381 c 0,18,19
 935 268 935 268 875 176 c 0,20,21
 814 85 814 85 701.5 32.5 c 128,-1,22
 589 -20 589 -20 430 -20 c 0,23,24
 244 -20 244 -20 132.5 60 c 128,-1,25
 21 140 21 140 3 285 c 1,26,-1
 269 332 l 1,27,28
 279 250 279 250 322.5 211 c 128,-1,29
 366 172 366 172 460 172 c 0,0,1
EndSplineSet
EndChar

StartChar: uni01BE
Encoding: 446 446 383
Width: 1139
Flags: W
LayerCount: 2
Fore
SplineSet
1046 351 m 0,0,1
 1046 241 1046 241 981.5 157.5 c 128,-1,2
 917 74 917 74 798.5 27 c 128,-1,3
 680 -20 680 -20 518 -20 c 0,4,5
 304 -20 304 -20 191 49.5 c 128,-1,6
 78 119 78 119 47 270 c 1,7,-1
 301 307 l 1,8,9
 321 230 321 230 373.5 198 c 128,-1,10
 426 166 426 166 537 166 c 0,11,12
 658 166 658 166 718 200 c 128,-1,13
 778 234 778 234 778 302 c 0,14,15
 778 347 778 347 735 376.5 c 128,-1,16
 692 406 692 406 598 426 c 0,17,18
 399 468 399 468 329 504 c 0,19,20
 258 540 258 540 221.5 594 c 128,-1,21
 185 648 185 648 185 726 c 0,22,23
 185 745 185 745 187.5 765.5 c 128,-1,24
 190 786 190 786 194 808 c 0,25,26
 198 829 198 829 202 850 c 128,-1,27
 206 871 206 871 210 892 c 1,28,-1
 73 892 l 1,29,-1
 110 1082 l 1,30,-1
 261 1082 l 1,31,-1
 398 1336 l 1,32,-1
 574 1336 l 1,33,-1
 525 1082 l 1,34,-1
 750 1082 l 1,35,-1
 713 892 l 1,36,-1
 488 892 l 1,37,-1
 479 852 l 2,38,39
 470 804 470 804 470 791 c 0,40,41
 470 745 470 745 517.5 718 c 128,-1,42
 565 691 565 691 704 659 c 0,43,44
 777 643 777 643 829 625 c 128,-1,45
 881 607 881 607 913 589 c 0,46,47
 976 552 976 552 1011 495 c 128,-1,48
 1046 438 1046 438 1046 351 c 0,0,1
EndSplineSet
EndChar

StartChar: uni01BF
Encoding: 447 447 384
Width: 1264
Flags: W
LayerCount: 2
Fore
SplineSet
255 -425 m 1,0,-1
 -25 -425 l 1,1,-1
 267 1082 l 1,2,-1
 532 1082 l 1,3,4
 530 1051 530 1051 525 1010 c 128,-1,5
 520 969 520 969 512 918 c 1,6,-1
 516 918 l 1,7,8
 584 1009 584 1009 677.5 1057 c 128,-1,9
 771 1105 771 1105 885 1105 c 0,10,11
 1044 1105 1044 1105 1131 1016 c 128,-1,12
 1218 927 1218 927 1218 759 c 0,13,14
 1218 309 1218 309 780 23 c 0,15,16
 682 -41 682 -41 561.5 -97.5 c 128,-1,17
 441 -154 441 -154 297 -204 c 1,18,-1
 255 -425 l 1,0,-1
926 732 m 0,19,20
 926 910 926 910 750 910 c 0,21,22
 639 910 639 910 560 823 c 128,-1,23
 481 736 481 736 453 595 c 2,24,-1
 339 15 l 1,25,26
 555 111 555 111 692 236 c 0,27,28
 808 342 808 342 867 466.5 c 128,-1,29
 926 591 926 591 926 732 c 0,19,20
EndSplineSet
EndChar

StartChar: uni01C1
Encoding: 449 449 386
Width: 1019
Flags: W
LayerCount: 2
Fore
SplineSet
591 1484 m 1,0,-1
 302 0 l 1,1,-1
 62 0 l 1,2,-1
 351 1484 l 1,3,-1
 591 1484 l 1,0,-1
1022 1484 m 1,4,-1
 733 0 l 1,5,-1
 493 0 l 1,6,-1
 782 1484 l 1,7,-1
 1022 1484 l 1,4,-1
EndSplineSet
EndChar

StartChar: uni01C2
Encoding: 450 450 387
Width: 1197
Flags: W
LayerCount: 2
Fore
SplineSet
685 399 m 1,0,-1
 607 0 l 1,1,-1
 362 0 l 1,2,-1
 440 399 l 1,3,-1
 46 399 l 1,4,-1
 86 608 l 1,5,-1
 480 608 l 1,6,-1
 532 874 l 1,7,-1
 138 874 l 1,8,-1
 179 1083 l 1,9,-1
 573 1083 l 1,10,-1
 651 1484 l 1,11,-1
 896 1484 l 1,12,-1
 818 1083 l 1,13,-1
 1212 1083 l 1,14,-1
 1171 874 l 1,15,-1
 777 874 l 1,16,-1
 725 608 l 1,17,-1
 1119 608 l 1,18,-1
 1079 399 l 1,19,-1
 685 399 l 1,0,-1
EndSplineSet
EndChar

StartChar: uni01DD
Encoding: 477 477 414
Width: 1139
Flags: W
LayerCount: 2
Fore
SplineSet
787 606 m 1,0,1
 794 642 794 642 794 695 c 0,2,3
 794 801 794 801 747.5 857.5 c 0,4,5
 701 914 701 914 610 914 c 0,6,7
 537 914 537 914 483.5 872 c 0,8,9
 430 830 430 830 397 745 c 1,10,-1
 152 819 l 1,11,12
 227 978 227 978 338 1040 c 0,13,14
 449 1102 449 1102 629 1102 c 0,15,16
 842 1102 842 1102 962 986.5 c 0,17,18
 1082 871 1082 871 1082 664 c 256,19,20
 1082 457 1082 457 1010 302 c 0,21,22
 938 146 938 146 805.5 63 c 0,23,24
 673 -20 673 -20 499 -20 c 0,25,26
 290 -20 290 -20 176.5 87.5 c 0,27,28
 63 195 63 195 63 391 c 0,29,30
 63 491 63 491 87 606 c 1,31,-1
 787 606 l 1,0,1
320 363 m 1,32,33
 320 256 320 256 369.5 207 c 0,34,35
 419 158 419 158 499 158 c 0,36,37
 595 158 595 158 660.5 224.5 c 0,38,39
 726 291 726 291 754 419 c 1,40,-1
 323 419 l 1,41,-1
 320 363 l 1,32,33
EndSplineSet
EndChar

StartChar: uni01E4
Encoding: 484 484 421
Width: 1593
Flags: W
LayerCount: 2
Fore
SplineSet
1456 484 m 1,0,-1
 1592 484 l 1,1,-1
 1563 334 l 1,2,-1
 1429 334 l 1,3,-1
 1400 175 l 1,4,5
 1253 72 1253 72 1096 26.5 c 128,-1,6
 939 -19 939 -19 740 -19 c 0,7,8
 440 -19 440 -19 270 139.5 c 128,-1,9
 100 298 100 298 100 583 c 0,10,11
 100 831 100 831 204 1025 c 0,12,13
 308 1218 308 1218 500 1324 c 128,-1,14
 692 1430 692 1430 942 1430 c 0,15,16
 1170 1430 1170 1430 1324 1327 c 128,-1,17
 1478 1224 1478 1224 1530 1039 c 1,18,-1
 1248 961 l 1,19,20
 1219 1074 1219 1074 1136 1136 c 128,-1,21
 1053 1198 1053 1198 926 1198 c 0,22,23
 766 1198 766 1198 646 1123 c 0,24,25
 526 1047 526 1047 462.5 909.5 c 128,-1,26
 399 772 399 772 399 592 c 0,27,28
 399 415 399 415 494 313 c 128,-1,29
 589 211 589 211 764 211 c 0,30,31
 871 211 871 211 970.5 233 c 128,-1,32
 1070 255 1070 255 1148 295 c 1,33,-1
 1155 334 l 1,34,-1
 815 334 l 1,35,-1
 846 484 l 1,36,-1
 1183 484 l 1,37,-1
 1199 570 l 1,38,-1
 857 570 l 1,39,-1
 896 778 l 1,40,-1
 1510 778 l 1,41,-1
 1456 484 l 1,0,-1
EndSplineSet
EndChar

StartChar: uni01E5
Encoding: 485 485 422
Width: 1251
Flags: W
LayerCount: 2
Fore
SplineSet
974 -93 m 1,0,1
 918 -265 918 -265 788 -345 c 128,-1,2
 658 -425 658 -425 431 -425 c 0,3,4
 254 -425 254 -425 149.5 -370 c 128,-1,5
 45 -315 45 -315 6 -198 c 1,6,-1
 286 -148 l 1,7,8
 326 -239 326 -239 464 -239 c 0,9,10
 551 -239 551 -239 605 -203.5 c 128,-1,11
 659 -168 659 -168 692 -93 c 1,12,-1
 -3 -93 l 1,13,-1
 16 0 l 1,14,-1
 723 0 l 1,15,16
 728 16 728 16 742 85.5 c 128,-1,17
 756 155 756 155 778 279 c 1,18,-1
 776 279 l 1,19,20
 718 195 718 195 670 154 c 0,21,22
 621 114 621 114 560.5 92 c 128,-1,23
 500 70 500 70 422 70 c 0,24,25
 267 70 267 70 174.5 170 c 128,-1,26
 82 270 82 270 82 434 c 0,27,28
 82 545 82 545 101 640.5 c 128,-1,29
 120 736 120 736 156 814.5 c 128,-1,30
 192 893 192 893 243 951 c 0,31,32
 308 1023 308 1023 394 1062 c 128,-1,33
 480 1101 480 1101 586 1101 c 0,34,35
 704 1101 704 1101 788.5 1045.5 c 128,-1,36
 873 990 873 990 901 893 c 1,37,-1
 903 893 l 1,38,39
 908 915 908 915 918 958 c 128,-1,40
 928 1001 928 1001 938 1038.5 c 128,-1,41
 948 1076 948 1076 951 1082 c 1,42,-1
 1216 1082 l 1,43,-1
 1209 1051 l 2,44,45
 1199 1002 1199 1002 1188.5 952.5 c 128,-1,46
 1178 903 1178 903 1167 853 c 2,47,-1
 1000 0 l 1,48,-1
 1194 0 l 1,49,-1
 1175 -93 l 1,50,-1
 974 -93 l 1,0,1
376 474 m 0,51,52
 376 374 376 374 419.5 324.5 c 128,-1,53
 463 275 463 275 549 275 c 0,54,55
 659 275 659 275 720 323 c 0,56,57
 782 371 782 371 814 469 c 128,-1,58
 846 567 846 567 846 686 c 0,59,60
 846 790 846 790 794 849.5 c 128,-1,61
 742 909 742 909 648 909 c 0,62,63
 558 909 558 909 498 858 c 0,64,65
 458 825 458 825 431 770.5 c 128,-1,66
 404 716 404 716 390 641.5 c 128,-1,67
 376 567 376 567 376 474 c 0,51,52
EndSplineSet
EndChar

StartChar: uni01F6
Encoding: 502 502 439
Width: 2120
Flags: W
LayerCount: 2
Fore
SplineSet
1318 349 m 0,0,1
 1318 191 1318 191 1476 191 c 0,2,3
 1575 191 1575 191 1629.5 250.5 c 128,-1,4
 1684 310 1684 310 1710 448 c 2,5,-1
 1833 1082 l 1,6,-1
 2113 1082 l 1,7,-1
 1991 456 l 2,8,9
 1942 207 1942 207 1818.5 93.5 c 128,-1,10
 1695 -20 1695 -20 1471 -20 c 0,11,12
 1253 -20 1253 -20 1140.5 66 c 128,-1,13
 1028 152 1028 152 1028 322 c 0,14,15
 1028 350 1028 350 1034 392 c 0,16,17
 1036 412 1036 412 1046.5 465.5 c 128,-1,18
 1057 519 1057 519 1074 604 c 1,19,-1
 448 604 l 1,20,-1
 330 0 l 1,21,-1
 36 0 l 1,22,-1
 309 1409 l 1,23,-1
 604 1409 l 1,24,-1
 495 848 l 1,25,-1
 1121 848 l 1,26,-1
 1230 1409 l 1,27,-1
 1514 1409 l 1,28,-1
 1329 448 l 2,29,30
 1318 387 1318 387 1318 349 c 0,0,1
EndSplineSet
EndChar

StartChar: uni01F7
Encoding: 503 503 440
Width: 1410
Flags: W
LayerCount: 2
Fore
SplineSet
247 -424 m 1,0,-1
 -43 -424 l 1,1,-1
 313 1409 l 1,2,-1
 585 1409 l 1,3,-1
 552 1243 l 1,4,5
 647 1345 647 1345 743 1387.5 c 128,-1,6
 839 1430 839 1430 965 1430 c 0,7,8
 1136 1430 1136 1430 1238 1315 c 128,-1,9
 1340 1200 1340 1200 1340 1009 c 0,10,11
 1340 765 1340 765 1219 541 c 0,12,13
 1139 391 1139 391 1000 251.5 c 128,-1,14
 861 112 861 112 680 -2.5 c 128,-1,15
 499 -117 499 -117 292 -193 c 1,16,-1
 247 -424 l 1,0,-1
1041 981 m 0,17,18
 1041 1080 1041 1080 992.5 1139 c 128,-1,19
 944 1198 944 1198 843 1198 c 0,20,21
 754 1198 754 1198 678 1157 c 0,22,23
 612 1120 612 1120 567 1056.5 c 128,-1,24
 522 993 522 993 507 912 c 2,25,-1
 338 61 l 1,26,27
 544 145 544 145 711 295 c 0,28,29
 821 395 821 395 894.5 506.5 c 128,-1,30
 968 618 968 618 1004.5 738 c 128,-1,31
 1041 858 1041 858 1041 981 c 0,17,18
EndSplineSet
EndChar

StartChar: uni021C
Encoding: 540 540 477
Width: 1182
Flags: W
LayerCount: 2
Fore
SplineSet
362 656 m 1,0,1
 571 714 571 714 678 770 c 0,2,3
 783 824 783 824 834.5 890.5 c 128,-1,4
 886 957 886 957 886 1038 c 0,5,6
 886 1115 886 1115 833.5 1156.5 c 128,-1,7
 781 1198 781 1198 688 1198 c 0,8,9
 596 1198 596 1198 512 1160 c 128,-1,10
 428 1122 428 1122 349 1035 c 1,11,-1
 158 1167 l 1,12,13
 264 1301 264 1301 398 1365.5 c 128,-1,14
 532 1430 532 1430 710 1430 c 0,15,16
 861 1430 861 1430 968 1384 c 128,-1,17
 1075 1338 1075 1338 1132.5 1255 c 128,-1,18
 1190 1172 1190 1172 1190 1060 c 0,19,20
 1190 943 1190 943 1131.5 852 c 128,-1,21
 1073 761 1073 761 959 691 c 1,22,23
 1003 639 1003 639 1035 562.5 c 128,-1,24
 1067 486 1067 486 1067 389 c 0,25,26
 1067 226 1067 226 995.5 99 c 128,-1,27
 924 -28 924 -28 799 -122 c 0,28,29
 715 -184 715 -184 597 -239.5 c 128,-1,30
 479 -295 479 -295 313.5 -342 c 128,-1,31
 148 -389 148 -389 -80 -427 c 1,32,-1
 -35 -189 l 1,33,34
 110 -159 110 -159 225.5 -123.5 c 128,-1,35
 341 -88 341 -88 429 -48 c 0,36,37
 774 110 774 110 774 379 c 0,38,39
 774 436 774 436 758 483.5 c 128,-1,40
 742 531 742 531 718 558 c 1,41,42
 649 520 649 520 542.5 482.5 c 128,-1,43
 436 445 436 445 315 410 c 1,44,-1
 362 656 l 1,0,1
EndSplineSet
EndChar

StartChar: uni021D
Encoding: 541 541 478
Width: 1065
Flags: W
LayerCount: 2
Fore
SplineSet
291 485 m 1,0,1
 407 511 407 511 489.5 542 c 128,-1,2
 572 573 572 573 621 608 c 256,3,4
 670 643 670 643 694 686.5 c 128,-1,5
 718 730 718 730 718 782 c 0,6,7
 718 843 718 843 680 880.5 c 128,-1,8
 642 918 642 918 572 918 c 0,9,10
 499 918 499 918 435.5 874.5 c 128,-1,11
 372 831 372 831 329 741 c 1,12,-1
 111 811 l 1,13,14
 161 951 161 951 287 1026.5 c 128,-1,15
 413 1102 413 1102 600 1102 c 0,16,17
 782 1102 782 1102 887.5 1020.5 c 128,-1,18
 993 939 993 939 993 797 c 0,19,20
 993 685 993 685 938 601 c 128,-1,21
 883 517 883 517 790 472 c 1,22,23
 849 427 849 427 883.5 354.5 c 128,-1,24
 918 282 918 282 918 196 c 0,25,26
 918 14 918 14 812 -116 c 256,27,28
 706 -246 706 -246 488.5 -325 c 128,-1,29
 271 -404 271 -404 -81 -431 c 1,30,-1
 -40 -214 l 1,31,32
 235 -176 235 -176 368 -123 c 0,33,34
 503 -70 503 -70 568.5 10 c 128,-1,35
 634 90 634 90 634 203 c 0,36,37
 634 257 634 257 614.5 301 c 128,-1,38
 595 345 595 345 569 370 c 1,39,40
 512 347 512 347 431 321.5 c 128,-1,41
 350 296 350 296 250 274 c 1,42,-1
 291 485 l 1,0,1
EndSplineSet
EndChar

StartChar: uni0220
Encoding: 544 544 481
Width: 1450
Flags: W
LayerCount: 2
Fore
SplineSet
827 -425 m 1,0,-1
 1057 754 l 2,1,2
 1087 891 1087 891 1087 975 c 0,3,4
 1087 1092 1087 1092 1034.5 1145.5 c 128,-1,5
 982 1199 982 1199 872 1199 c 0,6,7
 790 1199 790 1199 712 1169 c 0,8,9
 669 1153 669 1153 626 1128 c 128,-1,10
 583 1103 583 1103 541 1069 c 1,11,-1
 333 0 l 1,12,-1
 42 0 l 1,13,-1
 257 1105 l 1,14,-1
 316 1409 l 1,15,-1
 588 1409 l 1,16,17
 581 1377 581 1377 575 1344 c 128,-1,18
 569 1311 569 1311 562 1279 c 1,19,-1
 562 1279 l 1,20,21
 655 1351 655 1351 764 1390.5 c 128,-1,22
 873 1430 873 1430 985 1430 c 0,23,24
 1184 1430 1184 1430 1287 1336 c 128,-1,25
 1390 1242 1390 1242 1390 1053 c 0,26,27
 1390 969 1390 969 1363 834 c 2,28,-1
 1118 -425 l 1,29,-1
 827 -425 l 1,0,-1
EndSplineSet
EndChar

StartChar: uni0221
Encoding: 545 545 482
Width: 1620
Flags: W
LayerCount: 2
Fore
SplineSet
392 -21 m 0,0,1
 238 -21 238 -21 148 81 c 128,-1,2
 58 183 58 183 58 354 c 0,3,4
 58 546 58 546 122 728 c 0,5,6
 186 911 186 911 301.5 1006.5 c 128,-1,7
 417 1102 417 1102 580 1102 c 0,8,9
 704 1102 704 1102 784.5 1051.5 c 128,-1,10
 865 1001 865 1001 894 904 c 1,11,-1
 899 904 l 1,12,13
 901 920 901 920 904 941 c 128,-1,14
 907 962 907 962 911 988 c 256,15,16
 915 1014 915 1014 939.5 1137.5 c 128,-1,17
 964 1261 964 1261 1009 1484 c 1,18,-1
 1286 1484 l 1,19,-1
 1045 216 l 1,20,-1
 1029 112 l 1,21,22
 1160 192 1160 192 1302 192 c 0,23,24
 1442 192 1442 192 1523.5 122 c 128,-1,25
 1605 52 1605 52 1605 -68 c 0,26,27
 1605 -234 1605 -234 1490 -329.5 c 128,-1,28
 1375 -425 1375 -425 1180 -425 c 0,29,30
 1073 -425 1073 -425 976.5 -390 c 128,-1,31
 880 -355 880 -355 804 -285 c 1,32,33
 770 -319 770 -319 735.5 -352 c 128,-1,34
 701 -385 701 -385 666 -419 c 1,35,-1
 527 -268 l 1,36,37
 552 -239 552 -239 605.5 -189 c 128,-1,38
 659 -139 659 -139 741 -68 c 1,39,-1
 739 -37 l 1,40,-1
 739 -6 l 2,41,42
 739 41 739 41 742.5 82.5 c 128,-1,43
 746 124 746 124 753 160 c 1,44,-1
 749 160 l 1,45,46
 678 67 678 67 595.5 23 c 128,-1,47
 513 -21 513 -21 392 -21 c 0,0,1
515 172 m 0,48,49
 671 172 671 172 752 313 c 0,50,51
 780 361 780 361 800 426.5 c 128,-1,52
 820 492 820 492 831 559.5 c 128,-1,53
 842 627 842 627 842 681 c 0,54,55
 842 801 842 801 795 855.5 c 128,-1,56
 748 910 748 910 654 910 c 0,57,58
 553 910 553 910 488 841 c 0,59,60
 445 795 445 795 415.5 718.5 c 128,-1,61
 386 642 386 642 370.5 555.5 c 128,-1,62
 355 469 355 469 355 393 c 0,63,64
 355 283 355 283 395 227.5 c 128,-1,65
 435 172 435 172 515 172 c 0,48,49
1202 -229 m 0,66,67
 1276 -229 1276 -229 1319.5 -196.5 c 128,-1,68
 1363 -164 1363 -164 1363 -110 c 0,69,70
 1363 -65 1363 -65 1329 -38.5 c 128,-1,71
 1295 -12 1295 -12 1245 -12 c 0,72,73
 1108 -12 1108 -12 1013 -107 c 1,74,-1
 1015 -119 l 1,75,76
 1027 -165 1027 -165 1080.5 -197 c 128,-1,77
 1134 -229 1134 -229 1202 -229 c 0,66,67
EndSplineSet
EndChar

StartChar: uni0222
Encoding: 546 546 483
Width: 1292
Flags: W
LayerCount: 2
Fore
SplineSet
870 1429 m 1,0,1
 1061 1420 1061 1420 1159.5 1333.5 c 128,-1,2
 1258 1247 1258 1247 1258 1095 c 0,3,4
 1258 967 1258 967 1183 878.5 c 128,-1,5
 1108 790 1108 790 958 743 c 1,6,-1
 957 739 l 1,7,8
 1057 716 1057 716 1114 641 c 128,-1,9
 1171 566 1171 566 1171 452 c 0,10,11
 1171 309 1171 309 1097 202 c 0,12,13
 1022 95 1022 95 879.5 37.5 c 128,-1,14
 737 -20 737 -20 545 -20 c 0,15,16
 309 -20 309 -20 180.5 78 c 128,-1,17
 52 176 52 176 52 359 c 0,18,19
 52 504 52 504 140 603 c 128,-1,20
 228 702 228 702 394 737 c 1,21,-1
 395 741 l 1,22,23
 213 830 213 830 213 1002 c 0,24,25
 213 1172 213 1172 347 1264.5 c 128,-1,26
 481 1357 481 1357 727 1357 c 1,27,-1
 692 1158 l 1,28,29
 585 1158 585 1158 540.5 1114 c 128,-1,30
 496 1070 496 1070 496 991 c 0,31,32
 496 918 496 918 552.5 878 c 128,-1,33
 609 838 609 838 714 838 c 0,34,35
 842 838 842 838 909 894 c 0,36,37
 943 923 943 923 960 967.5 c 128,-1,38
 977 1012 977 1012 977 1071 c 0,39,40
 977 1145 977 1145 942 1185.5 c 128,-1,41
 907 1226 907 1226 836 1231 c 1,42,-1
 870 1429 l 1,0,1
582 178 m 0,43,44
 724 178 724 178 802.5 248.5 c 128,-1,45
 881 319 881 319 881 441 c 0,46,47
 881 547 881 547 824.5 594 c 128,-1,48
 768 641 768 641 647 641 c 0,49,50
 552 641 552 641 485 607 c 256,51,52
 418 573 418 573 382 514 c 128,-1,53
 346 455 346 455 346 381 c 0,54,55
 346 281 346 281 406 229.5 c 128,-1,56
 466 178 466 178 582 178 c 0,43,44
EndSplineSet
EndChar

StartChar: uni0223
Encoding: 547 547 484
Width: 1292
Flags: W
LayerCount: 2
Fore
SplineSet
718 868 m 0,0,1
 814 868 814 868 884 910 c 0,2,3
 941 945 941 945 973 1003.5 c 128,-1,4
 1005 1062 1005 1062 1005 1138 c 0,5,6
 1005 1264 1005 1264 918 1337 c 1,7,-1
 1053 1489 l 1,8,9
 1162 1432 1162 1432 1222 1345 c 128,-1,10
 1282 1258 1282 1258 1282 1151 c 0,11,12
 1282 1019 1282 1019 1207 925.5 c 128,-1,13
 1132 832 1132 832 976 773 c 1,14,-1
 975 769 l 1,15,16
 1074 740 1074 740 1130 657.5 c 128,-1,17
 1186 575 1186 575 1186 464 c 0,18,19
 1186 321 1186 321 1109 211 c 0,20,21
 1031 100 1031 100 886.5 40 c 128,-1,22
 742 -20 742 -20 555 -20 c 0,23,24
 314 -20 314 -20 184 78 c 128,-1,25
 54 176 54 176 54 356 c 0,26,27
 54 478 54 478 110 572 c 0,28,29
 154 644 154 644 228 695 c 128,-1,30
 302 746 302 746 403 769 c 1,31,-1
 404 773 l 1,32,33
 323 813 323 813 274 890.5 c 128,-1,34
 225 968 225 968 225 1060 c 0,35,36
 225 1215 225 1215 323.5 1323 c 128,-1,37
 422 1431 422 1431 605 1489 c 1,38,-1
 682 1337 l 1,39,40
 601 1304 601 1304 552 1236 c 128,-1,41
 503 1168 503 1168 503 1080 c 0,42,43
 503 979 503 979 557 923.5 c 128,-1,44
 611 868 611 868 718 868 c 0,0,1
655 671 m 0,45,46
 556 671 556 671 488 636 c 0,47,48
 421 600 421 600 385.5 538.5 c 128,-1,49
 350 477 350 477 350 399 c 0,50,51
 350 284 350 284 411 231 c 128,-1,52
 472 178 472 178 596 178 c 0,53,54
 718 178 718 178 798 241 c 0,55,56
 845 278 845 278 870.5 333 c 128,-1,57
 896 388 896 388 896 458 c 0,58,59
 896 565 896 565 836 618 c 128,-1,60
 776 671 776 671 655 671 c 0,45,46
EndSplineSet
EndChar

StartChar: uni0224
Encoding: 548 548 485
Width: 1251
Flags: W
LayerCount: 2
Fore
SplineSet
1158 8 m 0,0,1
 1158 -32 1158 -32 1148 -85 c 128,-1,2
 1138 -138 1138 -138 1121.5 -190.5 c 128,-1,3
 1105 -243 1105 -243 1084 -282 c 1,4,-1
 841 -244 l 1,5,6
 896 -150 896 -150 896 -83 c 0,7,8
 896 0 896 0 792 0 c 2,9,-1
 -48 0 l 1,10,-1
 -8 209 l 1,11,-1
 919 1178 l 1,12,-1
 256 1178 l 1,13,-1
 301 1409 l 1,14,-1
 1315 1409 l 1,15,-1
 1275 1204 l 1,16,-1
 345 231 l 1,17,-1
 891 231 l 2,18,19
 1024 231 1024 231 1091 172.5 c 128,-1,20
 1158 114 1158 114 1158 8 c 0,0,1
EndSplineSet
EndChar

StartChar: uni0225
Encoding: 549 549 486
Width: 1024
Flags: W
LayerCount: 2
Fore
SplineSet
972 -8 m 0,0,1
 972 -80 972 -80 948 -159 c 128,-1,2
 924 -238 924 -238 897 -284 c 1,3,-1
 666 -248 l 1,4,5
 686 -211 686 -211 704 -172.5 c 128,-1,6
 722 -134 722 -134 722 -94 c 0,7,8
 722 -48 722 -48 694 -24 c 128,-1,9
 666 0 666 0 617 0 c 2,10,-1
 -35 0 l 1,11,-1
 3 199 l 1,12,-1
 656 879 l 1,13,-1
 176 879 l 1,14,-1
 216 1082 l 1,15,-1
 1025 1082 l 1,16,-1
 986 881 l 1,17,-1
 336 205 l 1,18,-1
 707 205 l 2,19,20
 834 205 834 205 903 149 c 128,-1,21
 972 93 972 93 972 -8 c 0,0,1
EndSplineSet
EndChar

StartChar: uni0234
Encoding: 564 564 501
Width: 926
Flags: W
LayerCount: 2
Fore
SplineSet
917 -68 m 0,0,1
 917 -234 917 -234 802 -329.5 c 128,-1,2
 687 -425 687 -425 492 -425 c 0,3,4
 385 -425 385 -425 288.5 -390 c 128,-1,5
 192 -355 192 -355 116 -285 c 1,6,7
 82 -319 82 -319 47.5 -352 c 128,-1,8
 13 -385 13 -385 -22 -419 c 1,9,-1
 -161 -268 l 1,10,11
 -136 -239 -136 -239 -82.5 -189 c 128,-1,12
 -29 -139 -29 -139 53 -68 c 1,13,14
 51 -55 51 -55 49.5 -40 c 128,-1,15
 48 -25 48 -25 48 -6 c 0,16,17
 48 32 48 32 52 70.5 c 128,-1,18
 56 109 56 109 63 146 c 2,19,-1
 323 1484 l 1,20,-1
 604 1484 l 1,21,-1
 336 111 l 1,22,23
 465 192 465 192 614 192 c 0,24,25
 754 192 754 192 835.5 122 c 128,-1,26
 917 52 917 52 917 -68 c 0,0,1
514 -229 m 0,27,28
 588 -229 588 -229 631.5 -196.5 c 128,-1,29
 675 -164 675 -164 675 -110 c 0,30,31
 675 -65 675 -65 641 -38.5 c 128,-1,32
 607 -12 607 -12 557 -12 c 0,33,34
 420 -12 420 -12 325 -107 c 1,35,-1
 329 -126 l 1,36,37
 344 -170 344 -170 396 -199.5 c 128,-1,38
 448 -229 448 -229 514 -229 c 0,27,28
EndSplineSet
EndChar

StartChar: uni0235
Encoding: 565 565 502
Width: 1608
Flags: W
LayerCount: 2
Fore
SplineSet
543 -268 m 1,0,1
 568 -239 568 -239 621.5 -189 c 128,-1,2
 675 -139 675 -139 757 -68 c 1,3,4
 755 -55 755 -55 753.5 -40 c 128,-1,5
 752 -25 752 -25 752 -6 c 0,6,7
 752 32 752 32 756 70.5 c 128,-1,8
 760 109 760 109 767 146 c 2,9,-1
 856 595 l 2,10,11
 882 722 882 722 882 760 c 0,12,13
 882 889 882 889 730 889 c 0,14,15
 663 889 663 889 601 852 c 128,-1,16
 539 815 539 815 495 751 c 128,-1,17
 451 687 451 687 435 606 c 2,18,-1
 317 0 l 1,19,-1
 35 0 l 1,20,-1
 201 851 l 2,21,22
 209 891 209 891 218.5 948.5 c 128,-1,23
 228 1006 228 1006 239 1082 c 1,24,-1
 507 1082 l 1,25,26
 507 1076 507 1076 502.5 1037.5 c 128,-1,27
 498 999 498 999 492.5 957 c 128,-1,28
 487 915 487 915 483 897 c 1,29,-1
 486 897 l 1,30,31
 562 1004 562 1004 652.5 1052.5 c 128,-1,32
 743 1101 743 1101 859 1101 c 0,33,34
 1011 1101 1011 1101 1088 1028 c 128,-1,35
 1165 955 1165 955 1165 817 c 0,36,37
 1165 801 1165 801 1161.5 769 c 128,-1,38
 1158 737 1158 737 1153.5 704.5 c 128,-1,39
 1149 672 1149 672 1144 653 c 2,40,-1
 1039 111 l 1,41,42
 1168 192 1168 192 1318 192 c 0,43,44
 1458 192 1458 192 1539.5 122 c 128,-1,45
 1621 52 1621 52 1621 -68 c 0,46,47
 1621 -234 1621 -234 1506 -329.5 c 128,-1,48
 1391 -425 1391 -425 1196 -425 c 0,49,50
 1089 -425 1089 -425 992.5 -390 c 128,-1,51
 896 -355 896 -355 820 -285 c 1,52,53
 786 -319 786 -319 751.5 -352 c 128,-1,54
 717 -385 717 -385 682 -419 c 1,55,-1
 543 -268 l 1,0,1
1218 -229 m 0,56,57
 1292 -229 1292 -229 1335.5 -196.5 c 128,-1,58
 1379 -164 1379 -164 1379 -110 c 0,59,60
 1379 -65 1379 -65 1345 -38.5 c 128,-1,61
 1311 -12 1311 -12 1261 -12 c 0,62,63
 1124 -12 1124 -12 1029 -107 c 1,64,-1
 1031 -119 l 1,65,66
 1043 -165 1043 -165 1096.5 -197 c 128,-1,67
 1150 -229 1150 -229 1218 -229 c 0,56,57
EndSplineSet
EndChar

StartChar: uni0236
Encoding: 566 566 503
Width: 1043
Flags: W
LayerCount: 2
Fore
SplineSet
-62 137 m 1,0,1
 -32 173 -32 173 158 337 c 1,2,3
 156 350 156 350 154.5 365 c 128,-1,4
 153 380 153 380 153 399 c 0,5,6
 153 437 153 437 157 475.5 c 128,-1,7
 161 514 161 514 168 551 c 2,8,-1
 234 892 l 1,9,-1
 86 892 l 1,10,-1
 123 1082 l 1,11,-1
 285 1082 l 1,12,-1
 422 1336 l 1,13,-1
 598 1336 l 1,14,-1
 550 1082 l 1,15,-1
 752 1082 l 1,16,-1
 717 892 l 1,17,-1
 512 892 l 1,18,-1
 439 516 l 1,19,20
 570 597 570 597 713 597 c 0,21,22
 853 597 853 597 934.5 527 c 128,-1,23
 1016 457 1016 457 1016 337 c 0,24,25
 1016 171 1016 171 901 75.5 c 128,-1,26
 786 -20 786 -20 591 -20 c 0,27,28
 484 -20 484 -20 387.5 15 c 128,-1,29
 291 50 291 50 215 120 c 1,30,31
 181 86 181 86 146.5 53 c 128,-1,32
 112 20 112 20 77 -14 c 1,33,-1
 -62 137 l 1,0,1
613 176 m 0,34,35
 687 176 687 176 730.5 208.5 c 128,-1,36
 774 241 774 241 774 295 c 0,37,38
 774 340 774 340 740 366.5 c 128,-1,39
 706 393 706 393 656 393 c 0,40,41
 519 393 519 393 424 298 c 1,42,43
 427 276 427 276 439 256 c 0,44,45
 462 221 462 221 509 198.5 c 128,-1,46
 556 176 556 176 613 176 c 0,34,35
EndSplineSet
EndChar

StartChar: uni0237
Encoding: 567 567 504
Width: 569
Flags: W
LayerCount: 2
Fore
SplineSet
-54 -425 m 0,0,1
 -151 -425 -151 -425 -220 -406 c 1,2,-1
 -184 -218 l 1,3,4
 -170 -219 -170 -219 -155 -220 c 128,-1,5
 -140 -221 -140 -221 -126 -222 c 0,6,7
 -59 -222 -59 -222 -27.5 -187.5 c 128,-1,8
 4 -153 4 -153 22 -60 c 2,9,-1
 245 1082 l 1,10,-1
 526 1082 l 1,11,-1
 290 -128 l 2,12,13
 261 -272 261 -272 173.5 -348.5 c 128,-1,14
 86 -425 86 -425 -54 -425 c 0,0,1
EndSplineSet
EndChar

StartChar: uni0238
Encoding: 568 568 505
Width: 1953
Flags: W
LayerCount: 2
Fore
SplineSet
1885 748 m 0,0,1
 1885 644 1885 644 1869.5 547 c 128,-1,2
 1854 450 1854 450 1823 355 c 0,3,4
 1761 163 1761 163 1648.5 71.5 c 128,-1,5
 1536 -20 1536 -20 1362 -20 c 0,6,7
 1237 -20 1237 -20 1159 32 c 128,-1,8
 1081 84 1081 84 1049 178 c 1,9,-1
 1045 178 l 1,10,-1
 1007 0 l 1,11,-1
 746 0 l 1,12,-1
 761 160 l 1,13,-1
 757 160 l 1,14,15
 686 67 686 67 603.5 23 c 128,-1,16
 521 -21 521 -21 400 -21 c 0,17,18
 246 -21 246 -21 156 81 c 128,-1,19
 66 183 66 183 66 354 c 0,20,21
 66 546 66 546 130 728 c 0,22,23
 194 911 194 911 309.5 1006.5 c 128,-1,24
 425 1102 425 1102 588 1102 c 0,25,26
 712 1102 712 1102 792.5 1051.5 c 128,-1,27
 873 1001 873 1001 902 904 c 1,28,-1
 907 904 l 1,29,30
 909 920 909 920 912 941 c 128,-1,31
 915 962 915 962 919 988 c 256,32,33
 923 1014 923 1014 947.5 1137.5 c 128,-1,34
 972 1261 972 1261 1017 1484 c 1,35,-1
 1294 1484 l 1,36,-1
 1212 1053 l 2,37,38
 1205 1018 1205 1018 1198.5 982.5 c 128,-1,39
 1192 947 1192 947 1185 912 c 1,40,-1
 1192 913 l 1,41,42
 1255 1007 1255 1007 1347 1054.5 c 128,-1,43
 1439 1102 1439 1102 1548 1102 c 0,44,45
 1707 1102 1707 1102 1796 1007.5 c 128,-1,46
 1885 913 1885 913 1885 748 c 0,0,1
523 172 m 0,47,48
 679 172 679 172 760 313 c 0,49,50
 788 361 788 361 808 426.5 c 128,-1,51
 828 492 828 492 839 559.5 c 128,-1,52
 850 627 850 627 850 681 c 0,53,54
 850 801 850 801 803 855.5 c 128,-1,55
 756 910 756 910 662 910 c 0,56,57
 561 910 561 910 496 841 c 0,58,59
 453 795 453 795 423.5 718.5 c 128,-1,60
 394 642 394 642 378.5 555.5 c 128,-1,61
 363 469 363 469 363 393 c 0,62,63
 363 283 363 283 403 227.5 c 128,-1,64
 443 172 443 172 523 172 c 0,47,48
1428 907 m 0,65,66
 1271 907 1271 907 1189 766 c 0,67,68
 1162 718 1162 718 1142 652.5 c 128,-1,69
 1122 587 1122 587 1111 520.5 c 128,-1,70
 1100 454 1100 454 1100 401 c 0,71,72
 1100 294 1100 294 1153 233.5 c 128,-1,73
 1206 173 1206 173 1301 173 c 0,74,75
 1402 173 1402 173 1459 236 c 0,76,77
 1488 267 1488 267 1512 323.5 c 128,-1,78
 1536 380 1536 380 1554 447.5 c 128,-1,79
 1572 515 1572 515 1582 580.5 c 128,-1,80
 1592 646 1592 646 1592 694 c 0,81,82
 1592 799 1592 799 1556.5 853 c 128,-1,83
 1521 907 1521 907 1428 907 c 0,65,66
EndSplineSet
EndChar

StartChar: uni0239
Encoding: 569 569 506
Width: 1949
Flags: W
LayerCount: 2
Fore
SplineSet
1540 1102 m 0,0,1
 1699 1102 1699 1102 1788 1007.5 c 128,-1,2
 1877 913 1877 913 1877 748 c 0,3,4
 1877 547 1877 547 1815 355 c 256,5,6
 1753 163 1753 163 1640.5 71.5 c 128,-1,7
 1528 -20 1528 -20 1354 -20 c 0,8,9
 1229 -20 1229 -20 1151 32 c 128,-1,10
 1073 84 1073 84 1041 178 c 1,11,-1
 1037 178 l 1,12,-1
 921 -425 l 1,13,-1
 640 -425 l 1,14,-1
 725 7 l 2,15,16
 734 46 734 46 743 85 c 128,-1,17
 752 124 752 124 761 163 c 1,18,-1
 757 163 l 1,19,20
 684 68 684 68 600 23.5 c 128,-1,21
 516 -21 516 -21 397 -21 c 0,22,23
 245 -21 245 -21 153.5 77 c 128,-1,24
 62 175 62 175 62 348 c 0,25,26
 62 545 62 545 126 727 c 0,27,28
 190 910 190 910 306 1006 c 128,-1,29
 422 1102 422 1102 583 1102 c 0,30,31
 713 1102 713 1102 784 1056.5 c 128,-1,32
 855 1011 855 1011 896 903 c 1,33,-1
 901 903 l 1,34,-1
 939 1082 l 1,35,-1
 1200 1082 l 1,36,-1
 1182 913 l 1,37,-1
 1185 913 l 1,38,39
 1258 1016 1258 1016 1342 1059 c 128,-1,40
 1426 1102 1426 1102 1540 1102 c 0,0,1
521 172 m 0,41,42
 629 172 629 172 700 237 c 0,43,44
 747 281 747 281 779.5 355 c 128,-1,45
 812 429 812 429 829 515.5 c 128,-1,46
 846 602 846 602 846 680 c 0,47,48
 846 795 846 795 802.5 852.5 c 128,-1,49
 759 910 759 910 672 910 c 0,50,51
 561 910 561 910 496 846 c 0,52,53
 452 803 452 803 421.5 725.5 c 128,-1,54
 391 648 391 648 375 558 c 128,-1,55
 359 468 359 468 359 386 c 0,56,57
 359 279 359 279 399.5 225.5 c 128,-1,58
 440 172 440 172 521 172 c 0,41,42
1420 907 m 0,59,60
 1263 907 1263 907 1181 766 c 0,61,62
 1154 718 1154 718 1134 652.5 c 128,-1,63
 1114 587 1114 587 1103 520.5 c 128,-1,64
 1092 454 1092 454 1092 401 c 0,65,66
 1092 294 1092 294 1145 233.5 c 128,-1,67
 1198 173 1198 173 1293 173 c 0,68,69
 1396 173 1396 173 1455 238 c 0,70,71
 1495 282 1495 282 1523 362 c 128,-1,72
 1551 442 1551 442 1566 532 c 128,-1,73
 1581 622 1581 622 1581 694 c 0,74,75
 1581 800 1581 800 1542.5 853.5 c 128,-1,76
 1504 907 1504 907 1420 907 c 0,59,60
EndSplineSet
EndChar

StartChar: uni023A
Encoding: 570 570 507
Width: 1479
Flags: W
LayerCount: 2
Fore
SplineSet
1149 1075 m 1,0,-1
 1331 0 l 1,1,-1
 1039 0 l 1,2,-1
 984 360 l 1,3,-1
 641 360 l 1,4,-1
 327 -82 l 1,5,-1
 166 -82 l 1,6,-1
 224 0 l 1,7,-1
 -42 0 l 1,8,-1
 745 1409 l 1,9,-1
 1093 1409 l 1,10,-1
 1118 1258 l 1,11,-1
 1279 1484 l 1,12,-1
 1440 1484 l 1,13,-1
 1149 1075 l 1,0,-1
566 582 m 1,14,-1
 638 582 l 1,15,-1
 905 958 l 1,16,17
 891 1058 891 1058 883.5 1116.5 c 128,-1,18
 876 1175 876 1175 876 1192 c 1,19,20
 866 1160 866 1160 841 1107 c 128,-1,21
 816 1054 816 1054 778 980 c 2,22,-1
 566 582 l 1,14,-1
799 582 m 1,23,-1
 961 582 l 1,24,-1
 933 771 l 1,25,-1
 799 582 l 1,23,-1
439 360 m 1,26,-1
 324 132 l 1,27,-1
 484 360 l 1,28,-1
 439 360 l 1,26,-1
EndSplineSet
EndChar

StartChar: uni023B
Encoding: 571 571 508
Width: 1479
Flags: W
LayerCount: 2
Fore
SplineSet
1322 1318 m 1,0,1
 1456 1220 1456 1220 1503 1038 c 1,2,-1
 1229 967 l 1,3,4
 1210 1039 1210 1039 1162 1093 c 1,5,-1
 561 248 l 1,6,7
 632 211 632 211 731 211 c 0,8,9
 864 211 864 211 968.5 275.5 c 128,-1,10
 1073 340 1073 340 1149 469 c 1,11,-1
 1376 352 l 1,12,13
 1272 166 1272 166 1104 73 c 128,-1,14
 936 -20 936 -20 711 -20 c 0,15,16
 539 -20 539 -20 411 37 c 1,17,-1
 327 -82 l 1,18,-1
 166 -82 l 1,19,-1
 298 104 l 1,20,21
 196 185 196 185 148 305.5 c 128,-1,22
 100 426 100 426 100 569 c 0,23,24
 100 821 100 821 205 1020 c 0,25,26
 310 1218 310 1218 498.5 1324 c 128,-1,27
 687 1430 687 1430 927 1430 c 0,28,29
 1089 1430 1089 1430 1207 1382 c 1,30,-1
 1279 1484 l 1,31,-1
 1440 1484 l 1,32,-1
 1322 1318 l 1,0,1
401 573 m 0,33,34
 401 426 401 426 462 335 c 1,35,-1
 1056 1171 l 1,36,37
 996 1198 996 1198 918 1198 c 0,38,39
 746 1198 746 1198 625 1111 c 0,40,41
 517 1035 517 1035 459 897 c 128,-1,42
 401 759 401 759 401 573 c 0,33,34
EndSplineSet
EndChar

